<?xml version="1.0" encoding="UTF-8" standalone="no"?>
<!-- Created with Inkscape (http://www.inkscape.org/) -->

<svg
   width="210mm"
   height="297mm"
   viewBox="0 0 210 297"
   version="1.1"
   id="svg5"
   inkscape:export-filename="flowerOfNoPower.png"
   inkscape:export-xdpi="25.4"
   inkscape:export-ydpi="25.4"
   inkscape:version="1.2 (dc2aedaf03, 2022-05-15)"
   sodipodi:docname="flowerOfPower.svg"
   xmlns:inkscape="http://www.inkscape.org/namespaces/inkscape"
   xmlns:sodipodi="http://sodipodi.sourceforge.net/DTD/sodipodi-0.dtd"
   xmlns="http://www.w3.org/2000/svg"
   xmlns:svg="http://www.w3.org/2000/svg">
  <sodipodi:namedview
     id="namedview7"
     pagecolor="#505050"
     bordercolor="#ffffff"
     borderopacity="1"
     inkscape:showpageshadow="0"
     inkscape:pageopacity="0"
     inkscape:pagecheckerboard="1"
     inkscape:deskcolor="#505050"
     inkscape:document-units="mm"
     showgrid="false"
     inkscape:zoom="2"
     inkscape:cx="202.75"
     inkscape:cy="239"
     inkscape:window-width="2560"
     inkscape:window-height="1346"
     inkscape:window-x="-11"
     inkscape:window-y="-11"
     inkscape:window-maximized="1"
     inkscape:current-layer="layer1" />
  <defs
     id="defs2" />
  <g
     inkscape:label="Warstwa 1"
     inkscape:groupmode="layer"
     id="layer1">
    <path
       id="path483"
       style="fill:#666666;stroke:#a1a1a1;stroke-width:0;stroke-linecap:round;stroke-linejoin:round;paint-order:markers fill stroke"
       inkscape:transform-center-x="-4.9834338"
       inkscape:transform-center-y="-5.441688"
       transform="matrix(0.93983931,0,0,0.93492654,-70.787432,30.325084)"
       d="m 121.25861,-32.434135 c -12.285,-0.176649 -6.44161,12.629704 -0.51685,24.3241009 9.33858,-10.3957269 18.9173,-22.0357889 3.18909,-24.1157209 -0.97317,-0.128692 -1.86199,-0.19673 -2.67224,-0.20838 z m -0.51685,24.3241009 c -1.55806,1.7343669 -3.10767,3.4357005 -4.53346,5.0503172 -1.84861,-1.106059 -3.84154,-2.2568399 -5.85253,-3.4368909 -0.37306,2.301585 -0.75667,4.5709196 -1.08319,6.70022383 -2.15309,0.0689214 -4.45153,0.1774814 -6.78122,0.27194441 0.93059,2.13801166 1.83414,4.25474976 2.71073,6.22266296 -1.77396,1.2219373 -3.64856,2.5567761 -5.55727,3.8956586 1.93854,1.295358 3.84297,2.587072 5.64414,3.768531 -0.83175,1.987146 -1.68753,4.1234 -2.56942,6.281805 2.33124,0.0417 4.63208,0.09868 6.78617,0.118838 0.37467,2.121487 0.80931,4.381561 1.2344,6.674245 1.98392,-1.22539 3.95012,-2.42127 5.77335,-3.568994 1.23534,1.336684 2.5659,2.740338 3.91049,4.165945 0.11618,0.03788 0.22983,0.08415 0.3398,0.133209 0.19073,0.09676 0.37314,0.208043 0.55039,0.327217 0.95458,-1.991761 1.90655,-3.952801 2.77286,-5.803691 2.08552,0.540493 4.32162,1.083574 6.58383,1.649354 -0.2905,-2.313349 -0.56126,-4.598433 -0.84786,-6.733388 2.04645,-0.672696 4.22117,-1.425289 6.42987,-2.172239 -1.49514,-1.789084 -2.9588,-3.56505 -4.35421,-5.206188 1.35792,-1.6723136 2.78061,-3.4809362 4.23489,-5.3034686 -2.22482,-0.6966966 -4.41598,-1.3996241 -6.4766,-2.0257648 0.23818,-2.1408193 0.45696,-4.4318156 0.695,-6.7510752 13.47616,-3.6965811 27.82723,-8.3104724 15.72057,-18.5635224 -12.10717,-10.253199 -14.29439,4.662208 -15.72112,18.5635224 -2.24826,0.6166744 -4.47143,1.2100416 -6.54369,1.7974862 -0.95717,-1.9299425 -2.01158,-3.9757461 -3.06537,-6.0557377 z m 15.39176,13.0350915 c 8.26827,2.5892764 17.00429,5.0604634 21.34931,2.9515918 -0.0308,-0.041011 -0.0594,-0.090472 -0.0836,-0.1497905 -0.002,-0.00562 -0.004,-0.011127 -0.007,-0.016582 -0.001,-0.00235 -0.003,-0.00439 -0.004,-0.00663 -0.009,-0.015234 -0.0111,-0.020223 -0.0127,-0.023215 -2.2e-4,-4.492e-4 -0.002,-0.00305 -0.002,-0.00332 0.002,0.00335 0.004,0.00554 -0.0209,-0.035928 -0.0559,-0.094055 0.003,0.00578 -0.0676,-0.1155211 -0.0772,-0.1308751 -0.14754,-0.2655304 -0.22489,-0.3963092 -0.0169,-0.028644 -0.0349,-0.057265 -0.0522,-0.085674 -0.0614,-0.098351 -0.0517,-0.082662 -0.11492,-0.1857181 -0.0188,-0.030666 -0.0385,-0.061213 -0.0566,-0.092306 -0.0205,-0.035289 -0.0399,-0.070782 -0.0594,-0.1066774 -0.0173,-0.031885 -0.0347,-0.064105 -0.0506,-0.096728 -0.0178,-0.036529 -0.0333,-0.073528 -0.05,-0.1105465 -0.0621,-0.1445286 -0.11033,-0.2954947 -0.1435,-0.4493716 -0.005,-0.024398 -0.01,-0.049019 -0.0143,-0.073513 -8e-5,-3.556e-4 7e-5,-7.363e-4 0,-0.00111 -0.0176,-0.040228 -0.037,-0.079629 -0.0544,-0.1199429 -0.20276,-0.4742606 -0.37483,-0.9623093 -0.5086,-1.4608721 -0.0296,-0.1103025 -0.054,-0.221866 -0.0814,-0.332745 -0.0145,-0.059509 -0.0237,-0.1203328 -0.0368,-0.1801908 -0.013,-0.034317 -0.0248,-0.068937 -0.0341,-0.1044665 -0.017,-0.055158 -0.0317,-0.1112971 -0.0396,-0.1685834 -0.006,-0.049652 -0.0112,-0.099223 -0.0132,-0.1492378 -3.2e-4,-0.010172 -3.9e-4,-0.020226 -5.5e-4,-0.0304 -0.0306,-0.1998012 -0.0537,-0.4007382 -0.0665,-0.6024785 -0.006,-0.087531 -0.0116,-0.1753967 -0.011,-0.2631006 6e-4,-0.088666 0.01,-0.1767948 0.0143,-0.2653117 0.009,-0.07878 0.0123,-0.1588449 0.028,-0.2365695 0.0165,-0.08134 0.0417,-0.1607102 0.0682,-0.2393332 0.0676,-0.2005756 0.16767,-0.3896694 0.29471,-0.5588126 0.0274,-0.036482 0.0584,-0.070153 0.0885,-0.1044664 0.0156,-0.023828 0.0311,-0.047517 0.0495,-0.069092 0.0326,-0.037671 0.0672,-0.0733404 0.10886,-0.10115006 0.005,-0.00332 0.0103,-0.006171 0.0154,-0.009396 0.001,-9.4618e-4 0.002,-0.001821 0.003,-0.002764 0.14792,-0.12856313 0.31795,-0.22869722 0.49981,-0.30455563 0.0511,-0.0213172 0.10327,-0.0389945 0.15505,-0.0585897 0.31431,-0.11629619 0.64429,-0.1761291 0.97542,-0.21777662 0.21075,-0.0213065 0.42333,-0.0401257 0.63562,-0.0431131 0.0708,-9.958e-4 0.14155,-2.4065e-4 0.21224,0.002764 0.0539,0.002235 0.10731,0.008096 0.16111,0.0121601 0.081,0.007006 0.1611,0.0184495 0.24083,0.0326112 0.0279,-0.004721 0.0557,-0.009522 0.0836,-0.014371 0.23107,-0.0376702 0.46301,-0.0699233 0.69501,-0.10059732 -0.14288,-0.75071126 -0.33942,-1.55517402 -0.60703,-2.42981222 -4.64197,-15.1710055 -14.54539,-3.8055881 -23.26112,7.1175369 z m 0.11932,10.5096566 c 8.96078,10.722927 19.11926,21.860714 23.41617,6.588572 4.29722,-15.2720425 -10.17886,-11.065546 -23.41617,-6.588572 z m -5.58201,8.905627 c 1.74078,13.86528 4.26505,28.727109 16.1368,18.202588 11.87167,-10.524497 -2.58047,-14.81211 -16.1368,-18.202588 z m -19.93072,3.09696 c -11.88898,7.34353 -24.358821,15.812999 -9.85374,22.239747 14.50477,6.426714 12.40129,-8.499888 9.85374,-22.239747 z m -8.02057,-6.793083 c -5.210528,-0.0932 -10.572834,-0.09719 -14.797378,0.620166 -4.36e-4,0.07369 -0.0011,0.147382 -0.0016,0.221093 -0.0021,0.122858 -0.0043,0.245727 -0.01595,0.36812 -0.01651,0.165371 -0.03952,0.330373 -0.07368,0.493037 -0.04615,0.204662 -0.101918,0.409891 -0.213339,0.589766 -0.04129,0.06955 -0.09033,0.133709 -0.135262,0.200642 -0.0085,0.02293 -0.02444,0.0466 -0.04784,0.07075 -0.03982,0.05728 -0.07536,0.117455 -0.117117,0.173558 -0.106399,0.144632 -0.212765,0.28895 -0.321658,0.431684 -0.203711,0.246622 -0.424047,0.478572 -0.63342,0.72021 -0.209374,0.246177 -0.41368,0.497271 -0.603728,0.758902 -0.285451,0.399177 -0.567482,0.802704 -0.814867,1.227066 -0.377242,0.637365 -0.743256,1.281255 -1.120581,1.918535 -0.402444,0.659514 -0.83465,1.300079 -1.280585,1.930695 -0.08201,0.115409 -0.165888,0.229418 -0.248529,0.344352 -0.176096,0.760016 -0.42961,1.399335 -0.73514,1.924062 0.25514,0.448418 0.529551,0.907226 0.847308,1.38957 C 91.1338,47.274954 97.434387,33.580253 102.71954,20.644218 Z M 99.64482,10.593882 C 88.025821,2.8297294 75.140677,-4.9952776 75.320304,10.869143 c 0.179625,15.86425 12.88439,7.749903 24.324516,-0.275261 z M 102.49136,0.47556044 C 96.914532,-12.337442 90.305549,-25.885603 81.879934,-12.442905 73.454231,0.99996859 88.528631,1.0417317 102.49136,0.47556044 Z m 7.86441,-6.97216824 c 2.19503,-13.5424172 3.93224,-28.2125172 -9.58927,-22.3530572 0.0685,0.135389 0.12374,0.276743 0.16275,0.423946 0.0648,0.247334 0.11408,0.497871 0.14626,0.751717 0.0289,0.211663 0.0551,0.424199 0.072,0.6373 0.0374,0.06555 0.0746,0.131312 0.11217,0.196773 5.1e-4,7.64e-4 0.001,0.0014 0.002,0.0022 0.0202,0.03034 0.04,0.06062 0.0588,0.09175 0.0221,0.03656 0.0408,0.07493 0.0583,0.113863 0.0409,0.07143 0.0821,0.142844 0.12261,0.214461 0.28545,0.496386 0.57949,0.985438 0.80772,1.511723 0.25577,0.657959 0.37215,1.356428 0.49211,2.04898 0.10177,0.631329 0.17965,1.266057 0.23588,1.903058 0.0491,0.454813 0.0849,0.910718 0.10997,1.36746 0.0188,0.432425 0.0244,0.865192 0.05,1.297263 0.0279,0.423746 0.044,0.84792 0.0555,1.272391 0.008,0.421091 0.008,0.842387 0.0319,1.262994 0.0103,0.303765 0.0553,0.604256 0.0885,0.905928 0.0242,0.366511 0.0616,0.731465 0.10557,1.096069 0.0497,0.350242 0.10803,0.698864 0.1501,1.050192 0.0276,0.203137 0.0902,0.39883 0.13417,0.598609 0.057,0.255325 0.0979,0.513631 0.12921,0.773273 0.022,0.213286 0.0322,0.427522 0.0396,0.641722 0.003,0.08887 0.004,0.177635 0.005,0.266417 2.05272,1.334261 4.24369,2.6482297 6.41942,3.9249542 z M 98.710637,-27.852535 c -0.0011,5.71e-4 -0.0022,0.0011 -0.0033,0.0017 0.0046,0.0115 0.0094,0.02292 0.0143,0.03427 -5.95e-4,-0.002 -0.001,-0.0041 -0.0016,-0.0061 -0.0031,-0.0099 -0.0061,-0.01993 -0.0093,-0.02985 z m 3.605323,8.436909 c -5.3e-4,4.03e-4 -0.001,7.07e-4 -0.002,0.0011 4e-4,0.0028 7e-4,0.0055 0.001,0.0083 8.1e-4,0.0056 3.2e-4,0.0023 0.001,0.0077 -2.1e-4,-0.0057 -3.4e-4,-0.01142 -5.5e-4,-0.01713 z M 80.457489,26.117929 c -0.0083,1.06e-4 -0.01677,0.0027 -0.02474,0.005 0.0018,-1.47e-4 0.0087,-9.01e-4 0.01155,-0.0011 0.01097,3.37e-4 0.0077,1.03e-4 0.01869,-0.0033 -0.0018,-1.15e-4 -0.0047,-5.6e-4 -0.0055,-5.52e-4 z m 43.301261,18.732658 c -0.0115,0.0038 -0.0236,0.0043 -0.0352,0.0077 0.009,0.01012 0.0172,0.02028 0.0258,0.0304 0.0215,0.02518 0.0415,0.04927 0.0627,0.07407 -0.0179,-0.03738 -0.0352,-0.07502 -0.0533,-0.112205 z m -4.51202,4.833646 c 2.6e-4,0.0014 0.001,0.0026 0.001,0.0039 7e-5,-0.0013 -5e-5,-0.0026 0,-0.0039 z m 0.001,0.0039 c -6.3e-4,0.01271 -0.002,0.02543 -0.002,0.03814 -1e-4,8.75e-4 0.002,-8.62e-4 0.002,0 0.002,0.01027 0.003,0.04133 0.003,0.03095 -2.1e-4,-0.02065 -0.002,-0.04128 -0.003,-0.06191 0.001,0.0015 0.004,0.0062 0.003,0.0044 -7.5e-4,-0.0043 -0.002,-0.0078 -0.003,-0.01161 z m -3.79227,0.463743 c 0.43947,0.950108 1.1502,1.704284 2.19003,2.215905 -0.10189,-0.08775 -0.20382,-0.175499 -0.30516,-0.263654 -0.32864,-0.286655 -0.66167,-0.569227 -0.97158,-0.876634 -0.29829,-0.299757 -0.58528,-0.611538 -0.83081,-0.957332 -0.0276,-0.03941 -0.0548,-0.07897 -0.0825,-0.118285 z m 4.85072,1.218775 c -0.0158,0.02511 -0.0323,0.05307 -0.0484,0.08015 0.002,0.0013 0.007,0.0043 0.009,0.0055 0.009,-0.01429 0.017,-0.03437 0.0396,-0.08567 z" />
    <path
       id="path184"
       style="fill:#806600;stroke:#a1a1a1;stroke-width:0;stroke-linecap:round;stroke-linejoin:round;paint-order:markers fill stroke"
       d="M 38.307739,18.383374 A 21.718355,21.60483 0 0 0 16.589168,39.988257 21.718355,21.60483 0 0 0 36.500614,61.512008 c 0.03046,-0.04581 0.06166,-0.09137 0.09354,-0.136426 0.180538,-0.270003 0.415257,-0.494388 0.640271,-0.726054 0.391519,-0.400839 0.760195,-0.823129 1.136365,-1.238167 0.373815,-0.416205 0.742971,-0.835174 1.153934,-1.21543 0.229281,-0.200553 0.448634,-0.41162 0.683163,-0.606165 0.03852,-0.03043 0.07608,-0.0621 0.114205,-0.09302 0.04174,-0.557208 0.423899,-0.902491 0.895552,-0.890902 0.04666,0.0011 0.09447,0.0062 0.142627,0.01447 0.1093,-0.06643 0.228908,-0.112644 0.357084,-0.145211 0.06435,-0.01366 0.12826,-0.02043 0.192237,-0.0217 0.277219,-0.0055 0.549658,0.09442 0.801501,0.206189 0.362526,0.18295 0.69387,0.419842 1.015442,0.666109 0.295196,0.230562 0.572755,0.482385 0.870231,0.710034 0.335418,0.243099 0.690241,0.456954 1.025777,0.700216 0.407994,0.314477 0.821582,0.621739 1.224215,0.943095 0.04574,0.03828 0.09129,0.0769 0.137459,0.114721 A 21.718355,21.60483 0 0 0 60.025793,39.988257 21.718355,21.60483 0 0 0 38.307739,18.383374 Z" />
    <path
       style="fill:#1a1a1a;stroke:#a1a1a1;stroke-width:0;stroke-linecap:round;stroke-linejoin:round;paint-order:markers fill stroke"
       d=""
       id="path1119"
       transform="scale(0.26458333)" />
    <path
       id="path1340"
       style="fill:#666666;fill-opacity:1;stroke:#a1a1a1;stroke-width:0;stroke-linecap:round;stroke-linejoin:round;paint-order:markers fill stroke"
       transform="scale(0.26458333)"
       d="m 108.76172,8.1582032 c -3.80089,0.056057 -8.14598,0.8840736 -12.724609,2.4667968 -1.79408,0.620171 -4.076115,1.510135 -5.589844,2.148438 0.219562,0.447425 0.39664,0.913232 0.52539,1.396484 0.230204,0.873972 0.405197,1.759266 0.519532,2.65625 0.0877,0.639424 0.169175,1.280531 0.228515,1.923828 0.486639,0.869059 0.982102,1.773406 1.400391,2.5 3.021598,5.248707 3.564787,6.717821 4.494141,12.177735 0.773493,4.544232 1.212648,9.472243 1.5,16.822266 0.437627,11.193878 0.898904,16.176928 2.000004,21.580078 0.28003,1.374149 0.51734,3.099335 0.52734,3.833984 0.0243,1.844724 0.18415,2.129693 1.74219,3.09961 0.75065,0.467294 1.39027,0.852369 1.42187,0.855469 0.0316,0.0031 1.39727,-0.665541 3.03321,-1.486329 5.37736,-2.697944 11.7353,-5.055267 16.91015,-6.269531 1.375,-0.32264 2.53809,-0.612348 2.58399,-0.642578 0.29013,-0.191265 1.6421,-13.190463 2.06445,-19.845703 0.40785,-6.426632 0.16899,-16.865871 -0.48438,-21.13086 C 127.16651,18.836756 123.23447,12.247782 116.5,9.4375001 114.34529,8.5383415 111.71797,8.1146033 108.76172,8.1582032 Z" />
    <path
       style="fill:#666666;fill-opacity:1;stroke:#a1a1a1;stroke-width:0;stroke-linecap:round;stroke-linejoin:round;paint-order:markers fill stroke"
       d="m 168.92147,72.983965 c -3.32144,-1.082048 -7.23918,-1.964663 -11.85427,-2.67061 l -3.6828,-0.56334 -1.73298,-3.750008 C 143.40647,48.158755 139.29944,36.18023 137.97963,26.125 c -0.5226,-3.981462 -0.36415,-8.989127 0.37573,-11.875 1.51093,-5.893318 5.27408,-10.0429668 11.00394,-12.1341063 4.14365,-1.51224633 6.51192,-1.84379095 13.1407,-1.83962625 4.29023,0.002695 6.92612,0.12842125 9.25,0.44120252 C 189.34583,3.0857755 198.68673,8.1911792 201.5407,17 c 0.55538,1.714191 0.64826,2.446577 0.64994,5.125 0.001,1.993485 -0.1479,3.80391 -0.41192,5 -2.30594,10.446602 -10.57207,23.983212 -25.22069,41.301387 -4.17509,4.935958 -4.63825,5.45247 -4.86289,5.423108 -0.10733,-0.01403 -1.35548,-0.403515 -2.77367,-0.86553 z"
       id="path1342"
       transform="scale(0.26458333)" />
    <path
       style="fill:#666666;fill-opacity:1;stroke:#a1a1a1;stroke-width:0;stroke-linecap:round;stroke-linejoin:round;paint-order:markers fill stroke"
       d="m 204.7914,95.245742 c -1.21473,-1.308455 -3.44759,-3.474025 -4.96191,-4.812375 L 197.07618,88 l 0.16066,-1.625 c 0.55815,-5.645613 2.58074,-18.74643 3.80176,-24.625 3.46691,-16.691354 7.83636,-27.204053 13.716,-33 4.08957,-4.03137 8.20501,-5.547893 13.79008,-5.081585 5.83839,0.487458 13.05289,4.073182 21.09612,10.485117 3.68769,2.939765 10.77615,10.108611 12.70242,12.846468 3.06764,4.360122 4.70468,8.369645 4.95663,12.140032 0.34199,5.117678 -1.38233,9.32051 -5.67441,13.83073 -7.74422,8.137825 -22.42152,15.060868 -48.59797,22.922873 -3.17051,0.95225 -5.82372,1.731307 -5.89602,1.73124 -0.0723,-7e-5 -1.12532,-1.07068 -2.34005,-2.379133 z"
       id="path1344"
       transform="scale(0.26458333)" />
    <path
       id="path1346"
       style="fill:#666666;fill-opacity:1;stroke:#a1a1a1;stroke-width:0;stroke-linecap:round;stroke-linejoin:round;paint-order:markers fill stroke"
       transform="scale(0.26458333)"
       d="m 275.375,81.271485 c -2.90193,0.01844 -3.68151,0.114591 -5.5664,0.6875 -5.57066,1.69322 -11.66409,5.416436 -18.6836,11.416016 -6.62758,5.664678 -17.71699,17.513509 -27.02343,28.874999 l -1.63868,2 0.7168,2.25 c 0.39377,1.2375 1.04692,3.58866 1.45117,5.22461 0.40425,1.63596 0.7677,3.00793 0.8086,3.04883 0.0409,0.0409 3.05356,0.93023 6.69336,1.97656 14.75834,4.24266 27.36012,7.0026 35.86718,7.85352 1.5125,0.15128 3.0875,0.32075 3.5,0.37695 0.4125,0.0562 3.05634,0.0669 5.875,0.0234 5.47619,-0.0844 8.01,-0.41632 11.42188,-1.49414 2.6925,-0.85056 2.94302,-0.92005 1.67383,-3.50977 -0.0374,-0.0647 -0.0751,-0.12911 -0.11328,-0.19336 -0.0602,-0.10121 -0.12406,-0.20235 -0.18555,-0.30273 -0.21807,-0.34753 -0.18378,-0.29209 -0.4082,-0.65625 -0.0668,-0.10836 -0.13692,-0.2163 -0.20118,-0.32617 -0.0729,-0.1247 -0.14181,-0.25012 -0.21093,-0.37696 -0.0614,-0.11266 -0.12334,-0.22652 -0.17969,-0.34179 -0.0631,-0.12908 -0.11828,-0.25982 -0.17774,-0.39063 -0.22064,-0.5107 -0.39192,-1.04415 -0.50976,-1.58789 -0.004,-0.0196 -0.008,-0.0389 -0.0117,-0.0586 -1.26999,-2.94656 -2.16351,-5.74075 -2.65039,-8.20899 -0.0312,-0.11836 -0.0573,-0.23823 -0.0742,-0.35937 -0.006,-0.0474 -0.0102,-0.0952 -0.0156,-0.14258 -0.45431,-2.56186 -0.46979,-4.7582 0.0625,-6.32031 0.27544,-0.80843 0.78453,-1.58489 1.43359,-2.26953 0.0402,-0.0579 0.0832,-0.11464 0.12891,-0.16797 0.11592,-0.13312 0.23886,-0.25916 0.38671,-0.35743 0.0405,-0.0264 0.0814,-0.0517 0.12305,-0.0762 0.77719,-0.65494 1.68785,-1.18361 2.65625,-1.48828 2.20539,-0.69381 5.49546,-0.9075 7.69727,-0.54687 0.0391,-0.007 0.0781,-0.0128 0.11718,-0.0195 0.7838,-0.12712 1.57057,-0.23574 2.35743,-0.33985 -0.28663,-1.65009 -1.21773,-5.43013 -2.08008,-8.30273 -1.87482,-6.2454 -4.47139,-12.108758 -7.27149,-16.416019 -1.63145,-2.509725 -5.33916,-6.204083 -7.4707,-7.445312 -2.78804,-1.623538 -4.60264,-2.057954 -8.49805,-2.033204 z" />
    <path
       style="fill:#666666;fill-opacity:1;stroke:#a1a1a1;stroke-width:0;stroke-linecap:round;stroke-linejoin:round;paint-order:markers fill stroke"
       d="m 275.125,218.58847 c -5.39767,-0.36711 -12.26052,-3.57987 -19.57165,-9.16224 -8.11677,-6.19751 -18.61494,-16.6106 -29.87306,-29.63097 l -2.771,-3.20474 0.36755,-1.17026 c 0.35091,-1.11729 1.9129,-7.19622 2.20409,-8.57789 0.0762,-0.36169 0.33671,-0.71363 0.57883,-0.78207 0.24213,-0.0685 2.97149,-0.91994 6.06524,-1.89221 37.89041,-11.90774 57.62762,-12.5952 66.07206,-2.30133 4.59173,5.59737 5.21995,15.59919 1.80095,28.6728 -3.62335,13.85501 -8.97352,22.86706 -15.62301,26.31603 -3.06388,1.58917 -5.27431,2.00327 -9.25,1.73288 z"
       id="path1348"
       transform="scale(0.26458333)" />
    <path
       id="path1350"
       style="fill:#666666;fill-opacity:1;stroke:#a1a1a1;stroke-width:0;stroke-linecap:round;stroke-linejoin:round;paint-order:markers fill stroke"
       transform="scale(0.26458333)"
       d="m 207.84375,203.58985 -1.01562,1.20507 c -0.55917,0.663 -2.68589,2.84589 -4.72656,4.85157 l -3.71094,3.64648 0.85547,5.66797 c 4.57524,30.2849 10.4831,46.89362 19.3789,54.48438 1.73791,1.48291 4.89346,3.0882 7,3.56054 2.43223,0.54538 6.53977,0.32457 9.375,-0.5039 6.75177,-1.97286 14.35837,-7.12547 22.51758,-15.25196 4.56407,-4.54572 6.35538,-6.70759 8.39063,-10.125 7.79498,-13.0886 2.61677,-23.79709 -16.03321,-33.15429 -1.99372,-1.00032 -5.425,-2.5675 -7.625,-3.48243 -6.71134,-2.79109 -20.08189,-7.08994 -31.45312,-10.11328 z" />
    <path
       id="path1352"
       style="fill:#666666;fill-opacity:1;stroke:#a1a1a1;stroke-width:0;stroke-linecap:round;stroke-linejoin:round;paint-order:markers fill stroke"
       transform="scale(0.26458333)"
       d="m 106.8457,223.875 c -0.71922,0 -14.953874,10.22476 -19.470699,13.98633 -10.795516,8.9904 -17.121357,16.93115 -19.033203,23.88867 -0.717063,2.60952 -0.76001,6.30588 -0.09961,8.625 1.885615,6.62172 7.87215,12.37313 18.326172,17.60547 7.254769,3.63108 14.01191,6.02633 19.80664,7.02149 3.05195,0.52412 7.94098,0.46143 10.46875,-0.13477 8.89726,-2.09852 13.74415,-9.90579 15.04492,-24.23047 0.37255,-4.10274 0.17723,-15.42484 -0.36132,-20.88672 -0.60588,-6.14466 -1.84259,-15.79103 -2.2793,-17.78125 -0.0978,-0.44559 -0.50839,-0.62165 -2.55664,-1.09179 -5.78081,-1.32691 -12.00365,-3.46663 -17.38281,-5.97852 -1.20561,-0.56298 -2.31389,-1.02344 -2.4629,-1.02344 z" />
    <path
       id="path1354"
       style="fill:#666666;fill-opacity:1;stroke:#a1a1a1;stroke-width:0;stroke-linecap:round;stroke-linejoin:round;paint-order:markers fill stroke"
       transform="scale(0.26458333)"
       d="m 71.250001,187.59375 -3.5,0.1543 c -8.026939,0.35456 -19.740866,1.40487 -22.275391,1.99609 -0.455861,0.10634 -0.545749,0.36277 -0.679688,1.94727 -0.272216,3.2204 -0.892367,4.37323 -4.80664,8.93359 -2.992104,3.48604 -4.073447,5.04777 -7.621094,11 -2.764789,4.63881 -4.881612,7.89228 -7.660156,11.79883 -0.609497,2.50917 -1.459728,4.64121 -2.478516,6.4082 1.28972,2.29015 5.497555,8.57335 7.183594,10.69532 5.93496,7.46939 12.314711,12.16139 17.771484,13.07031 7.090236,1.18101 14.382335,-2.51877 21.267579,-10.78906 3.705918,-4.45144 6.180322,-8.10758 10.107422,-14.9336 1.866887,-3.24492 7.711762,-14.75864 8.630859,-17.00195 l 0.359375,-0.87891 -2.980469,-3.24609 C 79.588313,201.32309 74.917434,194.8007 72.226563,189.51367 Z" />
    <path
       style="fill:#666666;fill-opacity:1;stroke:#a1a1a1;stroke-width:0;stroke-linecap:round;stroke-linejoin:round;paint-order:markers fill stroke"
       d="M 15.430878,184.37084 C 6.9771785,182.15591 2.2929652,174.90103 0.58328612,161.375 0.07251732,157.33408 0.1471313,145.51181 0.70635665,141.875 2.857247,127.88711 8.7229,121.15528 19.166855,120.68845 c 9.684842,-0.4329 21.0514,3.60317 39.386795,13.98559 2.642007,1.49604 4.86834,2.82474 4.947405,2.95267 0.07906,0.12793 -0.03626,1.558 -0.256268,3.17794 -0.902847,6.64762 -0.74583,16.37433 0.3742,23.18029 0.342723,2.08259 0.384195,2.83718 0.168023,3.05724 -0.157855,0.1607 -2.14326,1.40797 -4.41201,2.77171 -14.265948,8.57522 -24.762558,13.19555 -33.345248,14.67769 -3.159191,0.54557 -8.278392,0.48725 -10.598874,-0.12074 z"
       id="path1356"
       transform="scale(0.26458333)" />
    <path
       id="path1358"
       style="fill:#666666;fill-opacity:1;stroke:#a1a1a1;stroke-width:0;stroke-linecap:round;stroke-linejoin:round;paint-order:markers fill stroke"
       transform="scale(0.26458333)"
       d="m 48.074219,51.166016 c -3.103837,-0.0067 -6.191826,0.91337 -9.279297,2.753907 C 32.267786,57.81095 25.216419,66.483803 19.623047,77.500001 16.244238,84.154599 14.875,88.866264 14.875,93.843751 c 0,3.20655 0.392275,4.917031 1.78125,7.753909 3.688414,7.53329 14.391332,12.28234 31.843751,14.13086 4.127935,0.43722 11.281814,0.88822 15.5,0.97656 1.649998,0.0346 3.698665,0.0857 4.552734,0.11523 l 1.552735,0.0547 1.498047,-2.9375 c 3.050756,-5.98377 7.609789,-12.56835 12.224609,-17.656249 l 2.238281,-2.466797 -0.662109,-1.408203 C 81.904993,84.976919 76.498749,75.43131 72.433595,69.500001 64.041,57.254693 56.006247,51.18323 48.074219,51.166016 Z" />
  </g>
</svg>
