<?xml version="1.0" encoding="UTF-8" standalone="no"?>
<!-- Created with Inkscape (http://www.inkscape.org/) -->

<svg
   width="210mm"
   height="297mm"
   viewBox="0 0 210 297"
   version="1.1"
   id="svg5"
   inkscape:version="1.2 (dc2aedaf03, 2022-05-15)"
   sodipodi:docname="rysunekBlackAnt.svg"
   inkscape:export-filename="BlackAnt.png"
   inkscape:export-xdpi="57.724106"
   inkscape:export-ydpi="57.724106"
   xmlns:inkscape="http://www.inkscape.org/namespaces/inkscape"
   xmlns:sodipodi="http://sodipodi.sourceforge.net/DTD/sodipodi-0.dtd"
   xmlns:xlink="http://www.w3.org/1999/xlink"
   xmlns="http://www.w3.org/2000/svg"
   xmlns:svg="http://www.w3.org/2000/svg">
  <sodipodi:namedview
     id="namedview7"
     pagecolor="#505050"
     bordercolor="#ffffff"
     borderopacity="1"
     inkscape:showpageshadow="0"
     inkscape:pageopacity="0"
     inkscape:pagecheckerboard="1"
     inkscape:deskcolor="#505050"
     inkscape:document-units="mm"
     showgrid="false"
     inkscape:zoom="4"
     inkscape:cx="105.125"
     inkscape:cy="80.75"
     inkscape:window-width="2560"
     inkscape:window-height="1346"
     inkscape:window-x="-11"
     inkscape:window-y="-11"
     inkscape:window-maximized="1"
     inkscape:current-layer="layer1" />
  <defs
     id="defs2">
    <linearGradient
       id="linearGradient22557"
       inkscape:swatch="solid">
      <stop
         style="stop-color:#a80000;stop-opacity:1;"
         offset="0"
         id="stop22555" />
    </linearGradient>
    <linearGradient
       id="linearGradient22549"
       inkscape:swatch="solid">
      <stop
         style="stop-color:#000000;stop-opacity:1;"
         offset="0"
         id="stop22547" />
    </linearGradient>
    <linearGradient
       id="linearGradient17355"
       inkscape:swatch="solid">
      <stop
         style="stop-color:#000000;stop-opacity:1;"
         offset="0"
         id="stop17353" />
    </linearGradient>
    <linearGradient
       id="linearGradient17308"
       inkscape:swatch="solid">
      <stop
         style="stop-color:#000000;stop-opacity:1;"
         offset="0"
         id="stop17306" />
    </linearGradient>
    <linearGradient
       id="linearGradient13572"
       inkscape:swatch="solid">
      <stop
         style="stop-color:#000000;stop-opacity:1;"
         offset="0"
         id="stop13570" />
    </linearGradient>
    <linearGradient
       id="linearGradient4924"
       inkscape:swatch="solid">
      <stop
         style="stop-color:#000000;stop-opacity:1;"
         offset="0"
         id="stop4922" />
    </linearGradient>
    <linearGradient
       id="linearGradient4246"
       inkscape:swatch="solid">
      <stop
         style="stop-color:#000000;stop-opacity:1;"
         offset="0"
         id="stop4244" />
    </linearGradient>
    <linearGradient
       id="linearGradient3141"
       inkscape:swatch="solid">
      <stop
         style="stop-color:#000000;stop-opacity:1;"
         offset="0"
         id="stop3139" />
    </linearGradient>
    <linearGradient
       id="linearGradient1130"
       inkscape:swatch="solid">
      <stop
         style="stop-color:#3d4391;stop-opacity:1;"
         offset="0"
         id="stop1128" />
    </linearGradient>
    <linearGradient
       inkscape:collect="always"
       xlink:href="#linearGradient17308"
       id="linearGradient17310"
       x1="2.6796248"
       y1="12.585118"
       x2="4.4916535"
       y2="12.585118"
       gradientUnits="userSpaceOnUse" />
    <linearGradient
       inkscape:collect="always"
       xlink:href="#linearGradient17308"
       id="linearGradient17342"
       gradientUnits="userSpaceOnUse"
       x1="2.6796248"
       y1="12.585118"
       x2="4.4916535"
       y2="12.585118"
       gradientTransform="translate(1.2473138,-0.09311906)" />
    <linearGradient
       inkscape:collect="always"
       xlink:href="#linearGradient17355"
       id="linearGradient17357"
       x1="4.352189"
       y1="12.535544"
       x2="4.4411696"
       y2="12.535544"
       gradientUnits="userSpaceOnUse"
       gradientTransform="matrix(0.22743278,0,0,0.2277987,3.0280403,10.010582)" />
    <clipPath
       clipPathUnits="userSpaceOnUse"
       id="clipPath20439">
      <path
         id="path20441"
         style="fill:#ff0000;fill-opacity:1;fill-rule:nonzero;stroke:none;stroke-width:0.264583"
         d="M -2.2329386,8.4475463 V 14.221354 H 9.2397461 V 8.4475463 Z m 6.3608519,4.3253177 c 0.0056,-0.0015 0.00875,0.0048 0.00259,0.01033 -0.00309,0.0028 -0.00626,0.0055 -0.0093,0.0083 0.00317,0.0016 0.00646,0.003 0.0093,0.0052 0.00479,0.0035 0.00956,0.0069 0.013435,0.01137 0.00303,0.004 0.0057,0.0078 0.0062,0.01292 3.175e-4,0.0052 -5.821e-4,0.0099 -0.0031,0.01447 -0.00283,0.0043 -0.00623,0.007 -0.010853,0.0093 -0.00103,4.49e-4 -0.00185,7.14e-4 -0.00259,10e-4 8.467e-4,4.24e-4 0.00175,9.53e-4 0.00259,0.0016 0.00119,6.87e-4 0.00282,9.52e-4 0.00414,0.0016 7.144e-4,2.17e-4 2.336e-4,2.91e-4 0.00103,5.29e-4 0.00461,0.0013 0.00613,0.0043 0.00568,0.0067 3.44e-4,-10e-6 6.35e-4,-5e-6 0.00103,0 0.00164,5e-6 0.00354,3.71e-4 0.00517,5.3e-4 0.00172,3.17e-4 0.00344,3.7e-4 0.00517,5.29e-4 0.00146,1.03e-4 0.00267,-3.9e-5 0.00414,0 0.010229,2.91e-4 0.010229,0.01061 0,0.01034 -0.00164,-4.5e-5 -0.00352,1.21e-4 -0.00517,0 -0.00185,-1.54e-4 -0.00335,-6.88e-4 -0.00517,-0.001 -0.00122,-3.17e-4 -0.00289,1.96e-4 -0.00414,0 -0.0014,-2.2e-5 -0.00274,1.14e-4 -0.00414,0 -0.00169,-1.42e-4 -0.00351,-1.73e-4 -0.00517,-5.29e-4 -0.00132,-2.65e-4 -0.00228,-9e-4 -0.00362,-0.001 -0.00114,-2.13e-4 -0.00241,-4.5e-4 -0.0031,-5.29e-4 -0.0014,-1.41e-4 -0.00277,-1.48e-4 -0.00414,-5.29e-4 -0.00119,-2.91e-4 -0.00238,-9.53e-4 -0.00362,-10e-4 -0.00135,-2.11e-4 -0.00282,-1.33e-4 -0.00414,-5.29e-4 -0.00193,-1.73e-4 -0.0038,-5.56e-4 -0.00568,-10e-4 -0.00167,-3.97e-4 -0.00346,-8.47e-4 -0.00517,-10e-4 -0.00159,-2.91e-4 -0.00306,2.45e-4 -0.00465,0 -0.00204,-1.53e-4 -0.0042,-6.61e-4 -0.0062,-0.001 -5.027e-4,-1.12e-4 -0.00103,-4.23e-4 -0.00156,-5.03e-4 -5.291e-4,-5e-6 -0.00103,4.1e-5 -0.00156,0 -3.704e-4,-5.6e-5 -6.615e-4,-4.76e-4 -0.00103,-5.29e-4 -6.879e-4,-8.4e-5 -0.00138,1.31e-4 -0.00206,0 -6.88e-4,-1.31e-4 -0.0014,1.66e-4 -0.00206,0 -0.00111,-3.44e-4 -0.00206,-0.0011 -0.0031,-0.0016 -8.731e-4,-3.17e-4 -0.00175,-3.7e-4 -0.00259,-5.29e-4 -8.467e-4,-1.56e-4 -0.00167,-4.23e-4 -0.00259,-5.29e-4 -0.00238,-5.03e-4 -0.00488,-0.0015 -0.00723,-0.0021 -0.00161,-4.5e-4 -0.00302,-7.14e-4 -0.00465,-10e-4 -0.00146,-3.44e-4 -0.00267,-0.0012 -0.00413,-0.0016 -0.00172,-3.7e-4 -0.00342,-8.2e-4 -0.00517,-0.001 -0.00185,-3.7e-4 -0.00379,-4.49e-4 -0.00568,-5.29e-4 -0.0023,-3.44e-4 -0.00491,-8.99e-4 -0.00723,-10e-4 -0.00314,-3.97e-4 -0.00578,-0.0011 -0.00878,-0.0021 -0.00356,-0.0011 -0.00734,-0.0023 -0.010853,-0.0036 v 5.29e-4 c -0.00235,-8.47e-4 -0.00375,-0.0022 -0.00465,-0.0036 -5.028e-4,-4.2e-5 -0.00103,3e-5 -0.00156,0 -0.00956,-8.47e-4 -0.0095,-0.0099 -0.00103,-0.01034 5.557e-4,-3.1e-5 0.00143,-5e-5 0.00206,0 0.00307,2.64e-4 0.00623,0.0011 0.0093,0.0016 -6.35e-4,-0.0012 -0.00114,-0.0033 -5.291e-4,-0.0047 9.525e-4,-0.0011 0.00343,-0.0028 0.00569,-0.0031 h 5.291e-4 c 6.086e-4,-8.99e-4 0.00172,-0.0017 0.0031,-0.0021 0.00127,-3.17e-4 0.00329,-4.23e-4 0.00517,0 0.00293,6.09e-4 0.00543,0.0014 0.00827,0.0021 3.175e-4,7.2e-5 7.144e-4,-7.1e-5 0.00103,0 -3.704e-4,-3.17e-4 -6.35e-4,-7.41e-4 -0.00103,-10e-4 -0.00299,-0.0025 -0.00601,-0.0053 -0.00878,-0.0077 -0.00366,-0.0036 -0.0071,-0.0074 -0.010335,-0.01137 -0.00326,-0.0042 -0.00647,-0.0086 -0.00878,-0.01344 -0.00279,-0.0058 -2.91e-4,-0.0099 0.0031,-0.0098 9.26e-4,2.4e-5 0.00214,5.82e-4 0.0031,10e-4 0.00143,-7.14e-4 0.00369,-9.79e-4 0.0062,-5.29e-4 5.821e-4,1.09e-4 9.79e-4,3.7e-4 0.00156,5.29e-4 0.00119,2.63e-4 0.00238,5.1e-5 0.00362,0 h 0.00517 0.00517 0.00568 c 0.00238,0 0.00484,-6e-6 0.00723,0 0.00275,5e-6 0.00552,-3.5e-5 0.00827,0 0.00297,3.8e-5 0.00583,3.18e-4 0.00878,5.29e-4 0.00222,1.52e-4 0.00445,9.79e-4 0.00672,0.001 -0.00243,-0.0038 -0.00119,-0.0074 0.00156,-0.0083 0.00196,-6.09e-4 0.00501,3.97e-4 0.00775,0.0031 0.00289,0.0028 0.00537,0.0056 0.00775,0.0088 8.731e-4,2.91e-4 0.00169,9.26e-4 0.00259,0.001 4.762e-4,-4.5e-4 0.00106,-0.0011 0.00156,-0.0016 0.00365,-0.0033 0.00768,-0.0065 0.011369,-0.0098 0.00143,-0.0013 0.00284,-0.0022 0.00413,-0.0026 z m -0.08785,0.01809 c 0.00119,0.0018 0.00228,0.0039 0.00362,0.0057 0.00296,0.0036 0.00596,0.007 0.0093,0.01034 0.00257,0.0026 0.00498,0.0044 0.00775,0.0067 0.00188,0.0015 0.00427,0.0032 0.0062,0.0047 0.00153,0.0012 0.00307,0.0025 0.00465,0.0036 0.00122,8.73e-4 0.00238,0.0018 0.00362,0.0026 3.704e-4,1.6e-5 6.614e-4,-1.8e-5 0.00103,0 -5.82e-4,-0.0027 -8.731e-4,-0.0056 -5.291e-4,-0.0083 5.821e-4,-0.0037 0.00283,-0.0069 0.00517,-0.0098 0.00286,-0.003 0.00631,-0.0061 0.00982,-0.0077 0.00265,-0.0017 0.00547,-0.0023 0.00827,-0.0036 l 0.00103,-5.29e-4 c 5.821e-4,-2.91e-4 0.00101,-3.18e-4 0.00156,-5.29e-4 -0.00206,-5.82e-4 -0.00408,-0.0011 -0.0062,-0.0016 -0.00378,-6.88e-4 -0.00754,-10e-4 -0.011369,-10e-4 -0.00279,-1.74e-4 -0.00548,-4.76e-4 -0.00827,-5.29e-4 -0.00271,-3.2e-5 -0.00556,6e-6 -0.00827,0 -0.00238,-5e-6 -0.00487,10e-7 -0.00723,0 h -0.00568 -0.00517 -0.00517 c -0.00148,6.8e-5 -0.00265,2.16e-4 -0.00414,0 z m 0.077515,0.0098 c 8.202e-4,0.0018 0.00135,0.0039 0.00206,0.0057 3.704e-4,9.52e-4 1.526e-4,0.0021 5.291e-4,0.0031 h 5.292e-4 c 0.00127,5.55e-4 0.00249,0.0012 0.00362,0.0021 0.00204,0.002 0.00384,0.0039 0.00465,0.0067 3.969e-4,0.0019 1.9e-4,0.0038 5.292e-4,0.0057 3.175e-4,0.0023 6.35e-4,0.0049 5.292e-4,0.0072 -1.051e-4,0.0019 -4.763e-4,0.0039 -0.00103,0.0057 h 5.292e-4 c 5.027e-4,-10e-5 0.0022,-0.0012 0.00259,-0.0016 0.00271,-0.0014 0.00457,-0.0032 0.0062,-0.0057 6.879e-4,-0.0016 0.00143,-0.0034 0.00156,-0.0052 1.42e-5,-2e-4 0,-0.0026 0,-0.0026 -4.498e-4,-0.003 -0.00233,-0.0054 -0.00414,-0.0078 -0.00333,-0.0037 -0.00737,-0.0064 -0.011369,-0.0093 -0.00206,-0.0015 -0.00444,-0.0029 -0.00672,-0.0041 z m -0.025321,0.0098 c -0.00122,8.73e-4 -0.00259,0.0016 -0.00362,0.0026 2.075e-4,4.76e-4 3.44e-4,7.94e-4 5.292e-4,0.0016 1.368e-4,3.97e-4 3.175e-4,6.88e-4 5.292e-4,10e-4 9.26e-4,-0.0017 0.00161,-0.0035 0.00259,-0.0052 z m 0.01292,0.0062 c 1.77e-4,0.0021 3.44e-4,0.0042 5.292e-4,0.0062 l 5.291e-4,-5.29e-4 c 0.0022,-0.0013 0.00409,-0.0016 0.00569,-0.0016 -8.17e-5,-8.74e-4 1.207e-4,-0.0018 0,-0.0026 -4.68e-5,-3.18e-4 5.4e-5,-8.73e-4 0,-10e-4 h -5.291e-4 c -0.00196,-3.18e-4 -0.00365,-1.72e-4 -0.00569,-5.29e-4 z m -0.010335,0.01034 c -1.905e-4,4.49e-4 -3.704e-4,7.93e-4 -5.292e-4,0.0016 h 5.292e-4 5.291e-4 5.292e-4 c -2.069e-4,-4.77e-4 -3.969e-4,-7.94e-4 -5.292e-4,-0.0016 z m 0.00259,0.01912 c -3.969e-4,6.88e-4 -4.233e-4,0.0016 -0.00103,0.0021 0.00156,-1.2e-5 0.00315,1.12e-4 0.00465,-5.29e-4 -3.969e-4,-1.06e-4 -6.35e-4,-3.44e-4 -0.00103,-5.29e-4 -7.144e-4,-2.4e-4 -0.0014,-7.94e-4 -0.00206,-10e-4 z m 0.019637,0.0041 -5.292e-4,5.29e-4 c 2.148e-4,5.4e-5 3.175e-4,4.76e-4 5.292e-4,5.29e-4 0.0014,3.44e-4 0.00271,3.97e-4 0.00414,5.29e-4 -0.00114,-3.17e-4 -0.00235,-5.55e-4 -0.0031,-10e-4 -3.175e-4,-8.7e-5 -7.408e-4,-4.23e-4 -0.00103,-5.29e-4 z" />
    </clipPath>
    <clipPath
       clipPathUnits="userSpaceOnUse"
       id="clipPath20449">
      <path
         id="path20451"
         style="fill:#ff0000;fill-opacity:1;fill-rule:nonzero;stroke:none;stroke-width:0.264583"
         d="M -1.3534058,7.5080688 V 15.912724 H 10.672734 V 7.5080688 Z m 5.4813191,5.2647952 c 0.0056,-0.0015 0.00875,0.0048 0.00259,0.01033 -0.00309,0.0028 -0.00626,0.0055 -0.0093,0.0083 0.00317,0.0016 0.00646,0.003 0.0093,0.0052 0.00479,0.0035 0.00956,0.0069 0.013435,0.01137 0.00303,0.004 0.0057,0.0078 0.0062,0.01292 3.175e-4,0.0052 -5.821e-4,0.0099 -0.0031,0.01447 -0.00283,0.0043 -0.00623,0.007 -0.010853,0.0093 -0.00103,4.49e-4 -0.00185,7.14e-4 -0.00259,10e-4 8.467e-4,4.24e-4 0.00175,9.53e-4 0.00259,0.0016 0.00119,6.87e-4 0.00282,9.52e-4 0.00414,0.0016 7.144e-4,2.17e-4 2.336e-4,2.91e-4 0.00103,5.29e-4 0.00461,0.0013 0.00613,0.0043 0.00568,0.0067 3.44e-4,-10e-6 6.35e-4,-5e-6 0.00103,0 0.00164,5e-6 0.00354,3.71e-4 0.00517,5.3e-4 0.00172,3.17e-4 0.00344,3.7e-4 0.00517,5.29e-4 0.00146,1.03e-4 0.00267,-3.9e-5 0.00414,0 0.010229,2.91e-4 0.010229,0.01061 0,0.01034 -0.00164,-4.5e-5 -0.00352,1.21e-4 -0.00517,0 -0.00185,-1.54e-4 -0.00335,-6.88e-4 -0.00517,-0.001 -0.00122,-3.17e-4 -0.00289,1.96e-4 -0.00414,0 -0.0014,-2.2e-5 -0.00274,1.14e-4 -0.00414,0 -0.00169,-1.42e-4 -0.00351,-1.73e-4 -0.00517,-5.29e-4 -0.00132,-2.65e-4 -0.00228,-9e-4 -0.00362,-0.001 -0.00114,-2.13e-4 -0.00241,-4.5e-4 -0.0031,-5.29e-4 -0.0014,-1.41e-4 -0.00277,-1.48e-4 -0.00414,-5.29e-4 -0.00119,-2.91e-4 -0.00238,-9.53e-4 -0.00362,-10e-4 -0.00135,-2.11e-4 -0.00282,-1.33e-4 -0.00414,-5.29e-4 -0.00193,-1.73e-4 -0.0038,-5.56e-4 -0.00568,-10e-4 -0.00167,-3.97e-4 -0.00346,-8.47e-4 -0.00517,-10e-4 -0.00159,-2.91e-4 -0.00306,2.45e-4 -0.00465,0 -0.00204,-1.53e-4 -0.0042,-6.61e-4 -0.0062,-0.001 -5.027e-4,-1.12e-4 -0.00103,-4.23e-4 -0.00156,-5.03e-4 -5.291e-4,-5e-6 -0.00103,4.1e-5 -0.00156,0 -3.704e-4,-5.6e-5 -6.615e-4,-4.76e-4 -0.00103,-5.29e-4 -6.879e-4,-8.4e-5 -0.00138,1.31e-4 -0.00206,0 -6.88e-4,-1.31e-4 -0.0014,1.66e-4 -0.00206,0 -0.00111,-3.44e-4 -0.00206,-0.0011 -0.0031,-0.0016 -8.731e-4,-3.17e-4 -0.00175,-3.7e-4 -0.00259,-5.29e-4 -8.467e-4,-1.56e-4 -0.00167,-4.23e-4 -0.00259,-5.29e-4 -0.00238,-5.03e-4 -0.00488,-0.0015 -0.00723,-0.0021 -0.00161,-4.5e-4 -0.00302,-7.14e-4 -0.00465,-10e-4 -0.00146,-3.44e-4 -0.00267,-0.0012 -0.00413,-0.0016 -0.00172,-3.7e-4 -0.00342,-8.2e-4 -0.00517,-0.001 -0.00185,-3.7e-4 -0.00379,-4.49e-4 -0.00568,-5.29e-4 -0.0023,-3.44e-4 -0.00491,-8.99e-4 -0.00723,-10e-4 -0.00314,-3.97e-4 -0.00578,-0.0011 -0.00878,-0.0021 -0.00356,-0.0011 -0.00734,-0.0023 -0.010853,-0.0036 v 5.29e-4 c -0.00235,-8.47e-4 -0.00375,-0.0022 -0.00465,-0.0036 -5.028e-4,-4.2e-5 -0.00103,3e-5 -0.00156,0 -0.00956,-8.47e-4 -0.0095,-0.0099 -0.00103,-0.01034 5.557e-4,-3.1e-5 0.00143,-5e-5 0.00206,0 0.00307,2.64e-4 0.00623,0.0011 0.0093,0.0016 -6.35e-4,-0.0012 -0.00114,-0.0033 -5.291e-4,-0.0047 9.525e-4,-0.0011 0.00343,-0.0028 0.00569,-0.0031 h 5.291e-4 c 6.086e-4,-8.99e-4 0.00172,-0.0017 0.0031,-0.0021 0.00127,-3.17e-4 0.00329,-4.23e-4 0.00517,0 0.00293,6.09e-4 0.00543,0.0014 0.00827,0.0021 3.175e-4,7.2e-5 7.144e-4,-7.1e-5 0.00103,0 -3.704e-4,-3.17e-4 -6.35e-4,-7.41e-4 -0.00103,-10e-4 -0.00299,-0.0025 -0.00601,-0.0053 -0.00878,-0.0077 -0.00366,-0.0036 -0.0071,-0.0074 -0.010335,-0.01137 -0.00326,-0.0042 -0.00647,-0.0086 -0.00878,-0.01344 -0.00279,-0.0058 -2.91e-4,-0.0099 0.0031,-0.0098 9.26e-4,2.4e-5 0.00214,5.82e-4 0.0031,10e-4 0.00143,-7.14e-4 0.00369,-9.79e-4 0.0062,-5.29e-4 5.821e-4,1.09e-4 9.79e-4,3.7e-4 0.00156,5.29e-4 0.00119,2.63e-4 0.00238,5.1e-5 0.00362,0 h 0.00517 0.00517 0.00568 c 0.00238,0 0.00484,-6e-6 0.00723,0 0.00275,5e-6 0.00552,-3.5e-5 0.00827,0 0.00297,3.8e-5 0.00583,3.18e-4 0.00878,5.29e-4 0.00222,1.52e-4 0.00445,9.79e-4 0.00672,0.001 -0.00243,-0.0038 -0.00119,-0.0074 0.00156,-0.0083 0.00196,-6.09e-4 0.00501,3.97e-4 0.00775,0.0031 0.00289,0.0028 0.00537,0.0056 0.00775,0.0088 8.731e-4,2.91e-4 0.00169,9.26e-4 0.00259,0.001 4.762e-4,-4.5e-4 0.00106,-0.0011 0.00156,-0.0016 0.00365,-0.0033 0.00768,-0.0065 0.011369,-0.0098 0.00143,-0.0013 0.00284,-0.0022 0.00413,-0.0026 z m -0.08785,0.01809 c 0.00119,0.0018 0.00228,0.0039 0.00362,0.0057 0.00296,0.0036 0.00596,0.007 0.0093,0.01034 0.00257,0.0026 0.00498,0.0044 0.00775,0.0067 0.00188,0.0015 0.00427,0.0032 0.0062,0.0047 0.00153,0.0012 0.00307,0.0025 0.00465,0.0036 0.00122,8.73e-4 0.00238,0.0018 0.00362,0.0026 3.704e-4,1.6e-5 6.614e-4,-1.8e-5 0.00103,0 -5.82e-4,-0.0027 -8.731e-4,-0.0056 -5.291e-4,-0.0083 5.821e-4,-0.0037 0.00283,-0.0069 0.00517,-0.0098 0.00286,-0.003 0.00631,-0.0061 0.00982,-0.0077 0.00265,-0.0017 0.00547,-0.0023 0.00827,-0.0036 l 0.00103,-5.29e-4 c 5.821e-4,-2.91e-4 0.00101,-3.18e-4 0.00156,-5.29e-4 -0.00206,-5.82e-4 -0.00408,-0.0011 -0.0062,-0.0016 -0.00378,-6.88e-4 -0.00754,-10e-4 -0.011369,-10e-4 -0.00279,-1.74e-4 -0.00548,-4.76e-4 -0.00827,-5.29e-4 -0.00271,-3.2e-5 -0.00556,6e-6 -0.00827,0 -0.00238,-5e-6 -0.00487,10e-7 -0.00723,0 h -0.00568 -0.00517 -0.00517 c -0.00148,6.8e-5 -0.00265,2.16e-4 -0.00414,0 z m 0.077515,0.0098 c 8.202e-4,0.0018 0.00135,0.0039 0.00206,0.0057 3.704e-4,9.52e-4 1.526e-4,0.0021 5.291e-4,0.0031 h 5.292e-4 c 0.00127,5.55e-4 0.00249,0.0012 0.00362,0.0021 0.00204,0.002 0.00384,0.0039 0.00465,0.0067 3.969e-4,0.0019 1.9e-4,0.0038 5.292e-4,0.0057 3.175e-4,0.0023 6.35e-4,0.0049 5.292e-4,0.0072 -1.051e-4,0.0019 -4.763e-4,0.0039 -0.00103,0.0057 h 5.292e-4 c 5.027e-4,-10e-5 0.0022,-0.0012 0.00259,-0.0016 0.00271,-0.0014 0.00457,-0.0032 0.0062,-0.0057 6.879e-4,-0.0016 0.00143,-0.0034 0.00156,-0.0052 1.42e-5,-2e-4 0,-0.0026 0,-0.0026 -4.498e-4,-0.003 -0.00233,-0.0054 -0.00414,-0.0078 -0.00333,-0.0037 -0.00737,-0.0064 -0.011369,-0.0093 -0.00206,-0.0015 -0.00444,-0.0029 -0.00672,-0.0041 z m -0.025321,0.0098 c -0.00122,8.73e-4 -0.00259,0.0016 -0.00362,0.0026 2.075e-4,4.76e-4 3.44e-4,7.94e-4 5.292e-4,0.0016 1.368e-4,3.97e-4 3.175e-4,6.88e-4 5.292e-4,10e-4 9.26e-4,-0.0017 0.00161,-0.0035 0.00259,-0.0052 z m 0.01292,0.0062 c 1.77e-4,0.0021 3.44e-4,0.0042 5.292e-4,0.0062 l 5.291e-4,-5.29e-4 c 0.0022,-0.0013 0.00409,-0.0016 0.00569,-0.0016 -8.17e-5,-8.74e-4 1.207e-4,-0.0018 0,-0.0026 -4.68e-5,-3.18e-4 5.4e-5,-8.73e-4 0,-10e-4 h -5.291e-4 c -0.00196,-3.18e-4 -0.00365,-1.72e-4 -0.00569,-5.29e-4 z m -0.010335,0.01034 c -1.905e-4,4.49e-4 -3.704e-4,7.93e-4 -5.292e-4,0.0016 h 5.292e-4 5.291e-4 5.292e-4 c -2.069e-4,-4.77e-4 -3.969e-4,-7.94e-4 -5.292e-4,-0.0016 z m 0.00259,0.01912 c -3.969e-4,6.88e-4 -4.233e-4,0.0016 -0.00103,0.0021 0.00156,-1.2e-5 0.00315,1.12e-4 0.00465,-5.29e-4 -3.969e-4,-1.06e-4 -6.35e-4,-3.44e-4 -0.00103,-5.29e-4 -7.144e-4,-2.4e-4 -0.0014,-7.94e-4 -0.00206,-10e-4 z m 0.019637,0.0041 -5.292e-4,5.29e-4 c 2.148e-4,5.4e-5 3.175e-4,4.76e-4 5.292e-4,5.29e-4 0.0014,3.44e-4 0.00271,3.97e-4 0.00414,5.29e-4 -0.00114,-3.17e-4 -0.00235,-5.55e-4 -0.0031,-10e-4 -3.175e-4,-8.7e-5 -7.408e-4,-4.23e-4 -0.00103,-5.29e-4 z" />
    </clipPath>
    <clipPath
       clipPathUnits="userSpaceOnUse"
       id="clipPath20459">
      <path
         id="path20461"
         style="fill:#ff0000;fill-opacity:1;fill-rule:nonzero;stroke:none;stroke-width:0.264583"
         d="m 0.37413737,10.738879 v 2.743502 H 6.8321412 v -2.743502 z m 3.75377593,2.033985 c 0.0056,-0.0015 0.00875,0.0048 0.00259,0.01033 -0.0029,0.0026 -0.00597,0.0052 -0.00878,0.0078 0.00309,0.0016 0.00601,0.0036 0.00878,0.0057 0.00479,0.0035 0.00956,0.0069 0.013435,0.01137 0.00303,0.004 0.0057,0.0078 0.0062,0.01292 3.175e-4,0.0052 -5.821e-4,0.0099 -0.0031,0.01447 -0.00283,0.0043 -0.00623,0.007 -0.010853,0.0093 -0.00103,4.49e-4 -0.00185,7.14e-4 -0.00259,10e-4 8.467e-4,4.24e-4 0.00175,9.53e-4 0.00259,0.0016 0.00119,6.87e-4 0.00282,9.52e-4 0.00414,0.0016 7.144e-4,2.17e-4 2.336e-4,2.91e-4 0.00103,5.29e-4 0.0046,0.0013 0.00612,0.0043 0.00568,0.0067 3.44e-4,-10e-6 6.35e-4,-5e-6 0.00103,0 0.00164,5e-6 0.00354,3.71e-4 0.00517,5.3e-4 0.00172,3.17e-4 0.00344,3.7e-4 0.00517,5.29e-4 0.00146,1.03e-4 0.00267,-3.9e-5 0.00414,0 0.010229,2.91e-4 0.010229,0.01061 0,0.01034 -0.00164,-4.5e-5 -0.00352,1.21e-4 -0.00517,0 -0.00185,-1.54e-4 -0.00335,-6.88e-4 -0.00517,-0.001 -0.00122,-3.17e-4 -0.00289,1.96e-4 -0.00414,0 -0.0014,-2.2e-5 -0.00274,1.14e-4 -0.00414,0 -0.00169,-1.42e-4 -0.00351,-1.73e-4 -0.00517,-5.29e-4 -0.00132,-2.65e-4 -0.00228,-9e-4 -0.00362,-0.001 -0.00114,-2.13e-4 -0.00241,-4.5e-4 -0.0031,-5.29e-4 -0.0014,-1.41e-4 -0.00277,-1.48e-4 -0.00414,-5.29e-4 -0.00119,-2.91e-4 -0.00238,-9.53e-4 -0.00362,-10e-4 -0.00135,-2.11e-4 -0.00282,-1.33e-4 -0.00414,-5.29e-4 -0.00193,-1.73e-4 -0.0038,-5.56e-4 -0.00568,-10e-4 -0.00167,-3.97e-4 -0.00346,-8.47e-4 -0.00517,-10e-4 -0.00159,-2.91e-4 -0.00306,2.45e-4 -0.00465,0 -0.00204,-1.53e-4 -0.0042,-6.61e-4 -0.0062,-0.001 -1.501e-4,-3.3e-5 -3.705e-4,3.2e-5 -5.292e-4,0 -0.00265,1.28e-4 -0.00523,-3.97e-4 -0.00775,-10e-4 -0.00111,-3.44e-4 -0.00206,-0.0011 -0.0031,-0.0016 -8.731e-4,-3.17e-4 -0.00175,-3.7e-4 -0.00259,-5.29e-4 -8.467e-4,-1.56e-4 -0.00167,-4.23e-4 -0.00259,-5.29e-4 -0.00238,-5.03e-4 -0.00488,-0.0015 -0.00723,-0.0021 -0.00161,-4.5e-4 -0.00302,-7.14e-4 -0.00465,-10e-4 -0.00146,-3.44e-4 -0.00267,-0.0012 -0.00413,-0.0016 -0.00172,-3.7e-4 -0.00342,-8.2e-4 -0.00517,-10e-4 -0.00185,-3.7e-4 -0.00379,-4.49e-4 -0.00568,-5.29e-4 -0.0023,-3.44e-4 -0.00491,-8.99e-4 -0.00723,-10e-4 -0.00314,-3.97e-4 -0.00578,-0.0011 -0.00878,-0.0021 -0.00356,-0.0011 -0.00734,-0.0023 -0.010853,-0.0036 v 5.29e-4 c -0.00235,-8.47e-4 -0.00375,-0.0022 -0.00465,-0.0036 -5.028e-4,-4.2e-5 -0.00103,3e-5 -0.00156,0 -0.00956,-8.47e-4 -0.0095,-0.0099 -0.00103,-0.01034 5.557e-4,-3.1e-5 0.00143,-5e-5 0.00206,0 0.00307,2.64e-4 0.00623,0.0011 0.0093,0.0016 -6.35e-4,-0.0012 -0.00114,-0.0033 -5.291e-4,-0.0047 9.525e-4,-0.0011 0.00343,-0.0028 0.00569,-0.0031 h 5.291e-4 c 6.086e-4,-8.99e-4 0.00172,-0.0017 0.0031,-0.0021 0.00127,-3.17e-4 0.00329,-4.23e-4 0.00517,0 0.00293,6.09e-4 0.00543,0.0014 0.00827,0.0021 3.175e-4,7.2e-5 7.144e-4,-7.1e-5 0.00103,0 -3.704e-4,-3.17e-4 -6.35e-4,-7.41e-4 -0.00103,-0.001 -0.00299,-0.0025 -0.00601,-0.0053 -0.00878,-0.0077 -0.00366,-0.0036 -0.0071,-0.0074 -0.010335,-0.01137 -0.00326,-0.0042 -0.00647,-0.0086 -0.00878,-0.01344 -0.00279,-0.0058 -2.91e-4,-0.0099 0.0031,-0.0098 9.26e-4,2.4e-5 0.00214,5.82e-4 0.0031,10e-4 0.00143,-7.14e-4 0.00369,-9.79e-4 0.0062,-5.29e-4 5.821e-4,1.11e-4 9.79e-4,3.7e-4 0.00156,5.29e-4 0.00119,2.63e-4 0.00238,5e-5 0.00362,0 h 0.00517 0.00517 0.00568 c 0.00238,0 0.00484,-9e-6 0.00723,0 0.00275,5e-6 0.00552,-3.6e-5 0.00827,0 0.00297,3.6e-5 0.00583,3.18e-4 0.00878,5.29e-4 0.00222,1.52e-4 0.00445,9.79e-4 0.00672,10e-4 -0.00243,-0.0038 -0.00119,-0.0074 0.00156,-0.0083 0.00196,-6.09e-4 0.00501,3.97e-4 0.00775,0.0031 0.00273,0.0027 0.00496,0.0053 0.00723,0.0083 0.00122,3.71e-4 0.00246,7.14e-4 0.00362,0.001 3.175e-4,-2.91e-4 7.144e-4,-8.73e-4 0.00103,-0.001 0.00365,-0.0033 0.00768,-0.0065 0.011369,-0.0098 0.00143,-0.0013 0.00284,-0.0022 0.00413,-0.0026 z m -0.08785,0.01809 c 0.00119,0.0018 0.00228,0.0039 0.00362,0.0057 0.00296,0.0036 0.00596,0.007 0.0093,0.01034 0.00257,0.0026 0.00498,0.0044 0.00775,0.0067 0.00188,0.0015 0.00427,0.0032 0.0062,0.0047 0.00153,0.0012 0.00307,0.0025 0.00465,0.0036 0.00122,8.73e-4 0.00238,0.0018 0.00362,0.0026 3.704e-4,1.6e-5 6.614e-4,-1.8e-5 0.00103,0 -5.82e-4,-0.0027 -8.731e-4,-0.0056 -5.291e-4,-0.0083 5.821e-4,-0.0037 0.00283,-0.0069 0.00517,-0.0098 0.00286,-0.003 0.00631,-0.0061 0.00982,-0.0077 0.00265,-0.0017 0.00547,-0.0023 0.00827,-0.0036 l 0.00103,-5.29e-4 c 5.821e-4,-2.91e-4 0.00101,-3.18e-4 0.00156,-5.29e-4 -0.00206,-5.82e-4 -0.00408,-0.0011 -0.0062,-0.0016 -0.00378,-6.88e-4 -0.00754,-10e-4 -0.011369,-10e-4 -0.00279,-1.74e-4 -0.00548,-4.76e-4 -0.00827,-5.29e-4 -0.00271,-3.2e-5 -0.00556,6e-6 -0.00827,0 -0.00238,-5e-6 -0.00487,10e-7 -0.00723,0 h -0.00568 -0.00517 -0.00517 c -0.00148,6.8e-5 -0.00265,2.16e-4 -0.00414,0 z m 0.076998,0.0093 c 9.26e-4,0.002 0.0018,0.0042 0.00259,0.0062 3.704e-4,9.52e-4 1.527e-4,0.0021 5.292e-4,0.0031 h 5.291e-4 c 0.00127,5.55e-4 0.00249,0.0012 0.00362,0.0021 0.00204,0.002 0.00384,0.0039 0.00465,0.0067 3.968e-4,0.0019 1.899e-4,0.0038 5.291e-4,0.0057 3.175e-4,0.0023 6.35e-4,0.0049 5.292e-4,0.0072 -1.05e-4,0.0019 -4.762e-4,0.0039 -0.00103,0.0057 h 5.292e-4 c 5.027e-4,-10e-5 0.0022,-0.0012 0.00259,-0.0016 0.00271,-0.0014 0.00457,-0.0032 0.0062,-0.0057 6.88e-4,-0.0016 0.00143,-0.0034 0.00156,-0.0052 1.43e-5,-2e-4 0,-0.0026 0,-0.0026 -4.498e-4,-0.003 -0.00233,-0.0054 -0.00414,-0.0078 -0.00333,-0.0037 -0.00737,-0.0064 -0.011369,-0.0093 -0.00228,-0.0017 -0.00471,-0.0033 -0.00723,-0.0047 z m -0.024805,0.01034 c -0.00122,8.73e-4 -0.00259,0.0016 -0.00362,0.0026 2.074e-4,4.77e-4 3.439e-4,7.94e-4 5.291e-4,0.0016 1.368e-4,3.97e-4 3.175e-4,6.88e-4 5.292e-4,0.001 9.26e-4,-0.0017 0.00161,-0.0035 0.00259,-0.0052 z m 0.01292,0.0062 c 1.77e-4,0.0021 3.44e-4,0.0042 5.292e-4,0.0062 l 5.291e-4,-5.29e-4 c 0.0022,-0.0013 0.00409,-0.0016 0.00569,-0.0016 -8.17e-5,-8.73e-4 1.21e-4,-0.0018 0,-0.0026 -4.68e-5,-3.17e-4 5.4e-5,-8.73e-4 0,-10e-4 h -5.291e-4 c -0.00196,-3.17e-4 -0.00365,-1.71e-4 -0.00569,-5.29e-4 z m -0.010335,0.01033 c -1.905e-4,4.5e-4 -3.704e-4,7.94e-4 -5.292e-4,0.0016 h 5.292e-4 5.292e-4 5.291e-4 c -2.069e-4,-4.76e-4 -3.969e-4,-7.94e-4 -5.291e-4,-0.0016 z m 0.0031,0.01912 c -3.175e-4,7.94e-4 -8.731e-4,0.0015 -0.00156,0.0021 1.902e-4,3.1e-5 3.175e-4,4.76e-4 5.291e-4,5.29e-4 0.00143,-10e-5 0.00275,-5.56e-4 0.00414,-10e-4 -3.969e-4,-1.06e-4 -6.35e-4,-3.44e-4 -0.00103,-5.29e-4 -7.144e-4,-2.4e-4 -0.0014,-7.94e-4 -0.00206,-10e-4 z m 0.019121,0.0041 -5.291e-4,5.29e-4 c 2.148e-4,5.4e-5 3.175e-4,4.77e-4 5.291e-4,5.3e-4 0.0014,3.43e-4 0.00271,3.96e-4 0.00414,5.29e-4 -0.00114,-3.18e-4 -0.00235,-5.56e-4 -0.0031,-10e-4 -3.175e-4,-8.7e-5 -7.409e-4,-4.24e-4 -0.00103,-5.29e-4 z" />
    </clipPath>
    <clipPath
       clipPathUnits="userSpaceOnUse"
       id="clipPath20469-0">
      <path
         id="path20471-7"
         style="fill:#ff0000;fill-opacity:1;fill-rule:nonzero;stroke:none;stroke-width:0.264583"
         d="m 2.1755778,11.461316 v 1.725993 h 1.9859254 v -0.319877 c -0.00138,1.5e-5 -0.00282,9.6e-5 -0.00414,0 -0.00185,-1.54e-4 -0.00335,-6.88e-4 -0.00517,-0.001 -0.00122,-3.17e-4 -0.00289,1.96e-4 -0.00414,0 -0.0014,-2.2e-5 -0.00274,1.14e-4 -0.00414,0 -0.00169,-1.42e-4 -0.00351,-1.73e-4 -0.00517,-5.29e-4 -0.00132,-2.65e-4 -0.00228,-9e-4 -0.00362,-10e-4 -0.00114,-2.13e-4 -0.00241,-4.5e-4 -0.0031,-5.29e-4 -0.0014,-1.41e-4 -0.00277,-1.48e-4 -0.00414,-5.29e-4 -0.00119,-2.91e-4 -0.00238,-9.53e-4 -0.00362,-10e-4 -0.00135,-2.11e-4 -0.00282,-1.33e-4 -0.00414,-5.29e-4 -0.00193,-1.73e-4 -0.0038,-5.56e-4 -0.00568,-10e-4 -0.00167,-3.97e-4 -0.00346,-8.47e-4 -0.00517,-0.001 -0.00159,-2.91e-4 -0.00306,2.45e-4 -0.00465,0 -0.00204,-1.53e-4 -0.0042,-6.61e-4 -0.0062,-10e-4 -0.00274,1.72e-4 -0.00566,-3.7e-4 -0.00827,-10e-4 -0.00167,-5.02e-4 -0.00318,-0.0013 -0.00465,-0.0021 -2.564e-4,-1.23e-4 -7.938e-4,1.36e-4 -0.00103,0 -8.467e-4,-1.55e-4 -0.00167,-4.23e-4 -0.00259,-5.29e-4 -0.00238,-5.02e-4 -0.00488,-0.0015 -0.00723,-0.0021 -0.00161,-4.5e-4 -0.00302,-7.15e-4 -0.00465,-10e-4 -0.00146,-3.44e-4 -0.00267,-0.0012 -0.00413,-0.0016 -0.00172,-3.71e-4 -0.00342,-8.21e-4 -0.00517,-10e-4 -0.00185,-3.71e-4 -0.00379,-4.5e-4 -0.00568,-5.29e-4 -0.0023,-3.44e-4 -0.00491,-9e-4 -0.00723,-10e-4 -0.00314,-3.97e-4 -0.00578,-0.0011 -0.00878,-0.0021 -0.00356,-0.0011 -0.00734,-0.0023 -0.010853,-0.0036 v 5.29e-4 c -0.00235,-8.46e-4 -0.00375,-0.0022 -0.00465,-0.0036 -5.027e-4,-4.1e-5 -0.00103,3.1e-5 -0.00156,0 -0.00956,-8.46e-4 -0.0095,-0.0099 -0.00103,-0.01033 5.556e-4,-3.1e-5 0.00143,-5e-5 0.00206,0 0.00308,2.64e-4 0.00622,0.0011 0.0093,0.0016 -6.35e-4,-0.0012 -0.00114,-0.0033 -5.292e-4,-0.0047 9.525e-4,-0.0011 0.00343,-0.0028 0.00569,-0.0031 h 5.292e-4 c 6.085e-4,-9e-4 0.00172,-0.0017 0.0031,-0.0021 0.00127,-3.18e-4 0.00329,-4.24e-4 0.00517,0 0.00293,6.08e-4 0.00543,0.0014 0.00827,0.0021 3.175e-4,7.2e-5 7.144e-4,-7.1e-5 0.00103,0 -3.704e-4,-3.18e-4 -6.35e-4,-7.41e-4 -0.00103,-10e-4 -0.00299,-0.0025 -0.00601,-0.0053 -0.00878,-0.0077 -0.00366,-0.0036 -0.0071,-0.0074 -0.010335,-0.01137 -0.00326,-0.0042 -0.00647,-0.0086 -0.00878,-0.01344 -0.00279,-0.0058 -2.911e-4,-0.0099 0.0031,-0.0098 9.26e-4,2.4e-5 0.00214,5.82e-4 0.0031,10e-4 0.00143,-7.15e-4 0.00369,-9.79e-4 0.0062,-5.3e-4 5.821e-4,1.11e-4 9.79e-4,3.71e-4 0.00156,5.3e-4 0.00119,2.63e-4 0.00238,5e-5 0.00362,0 h 0.00517 0.00517 0.00568 c 0.00238,0 0.00484,-9e-6 0.00723,0 0.00275,5e-6 0.00552,-3.6e-5 0.00827,0 0.00297,3.6e-5 0.00583,3.17e-4 0.00878,5.29e-4 0.00214,1.45e-4 0.00455,1.6e-4 0.00672,5.29e-4 -0.00217,-0.0036 -0.00111,-0.0069 0.00156,-0.0078 0.00196,-6.09e-4 0.00501,3.96e-4 0.00775,0.0031 0.00273,0.0027 0.00496,0.0053 0.00723,0.0083 0.00122,3.7e-4 0.00246,7.14e-4 0.00362,10e-4 3.175e-4,-2.91e-4 7.144e-4,-8.74e-4 0.00103,-10e-4 0.00365,-0.0033 0.00768,-0.0065 0.011369,-0.0098 0.00143,-0.0013 0.00284,-0.0022 0.00413,-0.0026 0.0056,-0.0015 0.00876,0.0048 0.00259,0.01034 -0.0029,0.0026 -0.00597,0.0052 -0.00878,0.0078 0.00309,0.0016 0.00601,0.0036 0.00878,0.0057 0.00479,0.0035 0.00956,0.0069 0.013435,0.01137 0.00303,0.004 0.0057,0.0078 0.0062,0.01292 3.175e-4,0.0052 -5.821e-4,0.0099 -0.0031,0.01447 -0.00283,0.0043 -0.00623,0.007 -0.010853,0.0093 -0.00103,4.5e-4 -0.00185,7.14e-4 -0.00259,10e-4 8.467e-4,4.23e-4 0.00175,9.52e-4 0.00259,0.0016 0.00119,6.88e-4 0.00282,9.52e-4 0.00414,0.0016 7.144e-4,2.18e-4 2.336e-4,2.91e-4 0.00103,5.29e-4 0.0046,0.0013 0.00612,0.0043 0.00568,0.0067 3.44e-4,-1.1e-5 6.35e-4,-6e-6 0.00103,0 0.00164,4e-6 0.00354,3.7e-4 0.00517,5.29e-4 0.00172,3.17e-4 0.00344,3.7e-4 0.00517,5.29e-4 0.00108,7.8e-5 0.00206,1.9e-5 0.0031,0 v -1.395821 z m 1.8644856,1.329635 c 0.00119,0.0018 0.00228,0.0039 0.00362,0.0057 0.00296,0.0036 0.00596,0.007 0.0093,0.01034 0.00257,0.0026 0.00498,0.0044 0.00775,0.0067 0.00188,0.0015 0.00427,0.0032 0.0062,0.0047 0.00153,0.0012 0.00307,0.0025 0.00465,0.0036 0.00122,8.73e-4 0.00238,0.0018 0.00362,0.0026 3.704e-4,1.6e-5 6.614e-4,-1.8e-5 0.00103,0 -5.82e-4,-0.0027 -8.731e-4,-0.0056 -5.291e-4,-0.0083 5.821e-4,-0.0037 0.00283,-0.0069 0.00517,-0.0098 0.00286,-0.003 0.00631,-0.0061 0.00982,-0.0077 0.00265,-0.0017 0.00547,-0.0023 0.00827,-0.0036 l 0.00103,-5.29e-4 c 5.821e-4,-2.91e-4 0.00101,-3.17e-4 0.00156,-5.29e-4 -0.00201,-5.56e-4 -0.00413,-0.0011 -0.0062,-0.0016 -0.00378,-6.88e-4 -0.00754,-0.001 -0.011369,-0.001 -0.00279,-1.74e-4 -0.00548,-4.76e-4 -0.00827,-5.29e-4 -0.00271,-3.2e-5 -0.00556,6e-6 -0.00827,0 -0.00238,-5e-6 -0.00487,1e-6 -0.00723,0 h -0.00568 -0.00517 -0.00517 c -0.00148,6.8e-5 -0.00265,2.16e-4 -0.00414,0 z m 0.076998,0.0093 c 9.26e-4,0.002 0.0018,0.0042 0.00259,0.0062 3.969e-4,0.001 7.408e-4,0.002 0.00103,0.0031 0.00127,5.56e-4 0.00249,0.0012 0.00362,0.0021 0.00204,0.002 0.00384,0.0039 0.00465,0.0067 3.969e-4,0.0019 1.9e-4,0.0038 5.292e-4,0.0057 3.175e-4,0.0023 6.35e-4,0.0049 5.291e-4,0.0072 -1.05e-4,0.0019 -4.762e-4,0.0039 -0.00103,0.0057 H 4.12951 c 5.027e-4,-10e-5 0.0022,-0.0012 0.00259,-0.0016 0.00271,-0.0014 0.00457,-0.0032 0.0062,-0.0057 6.879e-4,-0.0016 0.00143,-0.0034 0.00156,-0.0052 1.43e-5,-2e-4 0,-0.0026 0,-0.0026 -4.498e-4,-0.003 -0.00233,-0.0053 -0.00414,-0.0077 -0.00333,-0.0037 -0.00737,-0.0064 -0.011369,-0.0093 -0.00228,-0.0017 -0.00471,-0.0033 -0.00723,-0.0047 z m -0.024805,0.0098 c -0.00132,9.26e-4 -0.00251,0.002 -0.00362,0.0031 2.074e-4,4.76e-4 3.439e-4,7.94e-4 5.291e-4,0.0016 1.368e-4,3.97e-4 3.175e-4,6.88e-4 5.292e-4,0.001 9.26e-4,-0.0019 0.00153,-0.0039 0.00259,-0.0057 z m 0.01292,0.0062 c 2.191e-4,0.0022 3.44e-4,0.0046 5.292e-4,0.0067 l 5.291e-4,-5.29e-4 c 0.0022,-0.0013 0.00409,-0.0016 0.00569,-0.0016 -8.17e-5,-8.73e-4 1.21e-4,-0.0018 0,-0.0026 -4.68e-5,-3.17e-4 5.4e-5,-8.73e-4 0,-0.001 h -5.291e-4 c -0.00196,-3.17e-4 -0.00365,-8.73e-4 -0.00569,-10e-4 z m -0.010335,0.01085 c -1.455e-4,3.44e-4 -3.969e-4,7.67e-4 -5.292e-4,10e-4 l 5.292e-4,5.29e-4 H 4.0953709 4.0959 c -2.204e-4,-5.03e-4 -3.969e-4,-7.94e-4 -5.291e-4,-0.0016 z m 0.0031,0.01912 c -3.175e-4,7.41e-4 -9.26e-4,0.0015 -0.00156,0.0021 4.762e-4,8.1e-5 0.00106,4.24e-4 0.00156,5.3e-4 1.72e-4,-3.1e-5 3.44e-4,3.7e-5 5.292e-4,0 8.466e-4,-1.89e-4 0.00172,-7.41e-4 0.00259,-10e-4 -3.969e-4,-1.05e-4 -6.35e-4,-3.44e-4 -0.00103,-5.29e-4 -7.144e-4,-2.4e-4 -0.0014,-7.94e-4 -0.00206,-10e-4 z m 0.019121,0.0041 -5.291e-4,5.29e-4 c 2.148e-4,5.4e-5 3.175e-4,4.77e-4 5.291e-4,5.29e-4 0.00122,3.18e-4 0.00238,4.24e-4 0.00362,5.3e-4 -8.996e-4,-2.24e-4 -0.00201,-6.62e-4 -0.00259,-10e-4 -3.175e-4,-8.7e-5 -7.409e-4,-4.24e-4 -0.00103,-5.29e-4 z" />
    </clipPath>
    <clipPath
       clipPathUnits="userSpaceOnUse"
       id="clipPath20479-6">
      <path
         id="path20481-2"
         style="fill:#ff0000;fill-opacity:1;fill-rule:nonzero;stroke:none;stroke-width:0.264583"
         d="m 2.7228313,11.409639 v 1.533757 h 1.3161986 v -0.09715 c -0.00356,-0.0011 -0.00734,-0.0023 -0.010853,-0.0036 v 5.29e-4 c -0.00235,-8.46e-4 -0.00375,-0.0022 -0.00465,-0.0036 -5.027e-4,-4.1e-5 -0.00103,3.1e-5 -0.00156,0 -0.00956,-8.46e-4 -0.0095,-0.0099 -0.00103,-0.01033 5.557e-4,-3.1e-5 0.00143,-5e-5 0.00206,0 0.00306,2.64e-4 0.00624,0.0011 0.0093,0.0016 -6.35e-4,-0.0012 -0.00114,-0.0033 -5.291e-4,-0.0047 9.525e-4,-0.0011 0.00343,-0.0028 0.00569,-0.0031 h 5.291e-4 c 1.853e-4,-2.65e-4 7.673e-4,-2.92e-4 0.00103,-5.3e-4 v -0.01499 c -0.00127,-0.0015 -0.00241,-0.0032 -0.00362,-0.0047 -0.00326,-0.0042 -0.00647,-0.0086 -0.00878,-0.01344 -0.00279,-0.0057 -2.91e-4,-0.0099 0.0031,-0.0098 9.261e-4,2.4e-5 0.00214,4.5e-4 0.0031,10e-4 0.00143,-7.15e-4 0.00369,-9.79e-4 0.0062,-5.3e-4 v -1.370459 z" />
    </clipPath>
    <clipPath
       clipPathUnits="userSpaceOnUse"
       id="clipPath20489-6">
      <path
         id="path20491-0"
         style="fill:#ff0000;fill-opacity:1;fill-rule:nonzero;stroke:none;stroke-width:0.264583"
         d="m 4.0178426,12.826607 v 0.0036 c 9.261e-4,-4.5e-4 0.00172,-10e-4 0.0031,-10e-4 5.556e-4,-3.1e-5 0.00143,-5e-5 0.00206,0 0.00304,2.65e-4 0.00626,0.0011 0.0093,0.0016 -5.821e-4,-0.0011 -8.996e-4,-0.0029 -5.292e-4,-0.0041 z m 0,0.01189 v 0.05323 h 0.058911 v -0.03772 c -7.408e-4,-2.31e-4 -0.00135,-3.44e-4 -0.00206,-5.29e-4 -0.00161,-4.5e-4 -0.00302,-7.14e-4 -0.00465,-0.001 -0.00146,-3.44e-4 -0.00267,-0.0012 -0.00413,-0.0016 -0.00172,-3.7e-4 -0.00342,-8.2e-4 -0.00517,-10e-4 -0.00185,-3.7e-4 -0.00379,-4.5e-4 -0.00568,-5.29e-4 -0.0023,-3.44e-4 -0.00491,-9e-4 -0.00723,-10e-4 -0.00314,-3.97e-4 -0.00578,-0.0011 -0.00878,-0.0021 -0.00356,-0.0011 -0.00734,-0.0023 -0.010853,-0.0036 v 5.29e-4 c -0.00193,-7.15e-4 -0.00319,-0.002 -0.00414,-0.0031 -1.828e-4,-1.7e-5 -3.439e-4,1.6e-5 -5.292e-4,0 -5.82e-4,-5.2e-5 -9.525e-4,-4.76e-4 -0.00156,-5.29e-4 -0.0018,-1.58e-4 -0.003,-4.77e-4 -0.00414,-10e-4 z" />
    </clipPath>
    <clipPath
       clipPathUnits="userSpaceOnUse"
       id="clipPath20741">
      <path
         id="path20743"
         style="fill:#ff0000;fill-opacity:1;fill-rule:nonzero;stroke:none;stroke-width:0.264583"
         d="m 2.7228002,11.409588 v 1.533807 h 1.316246 v -0.09718 c -0.00356,-0.0011 -0.00737,-0.0023 -0.010878,-0.0036 v 5.25e-4 c -4.676e-4,-1.57e-4 -8.549e-4,-4.2e-4 -0.00123,-6.14e-4 h -0.00195 c -7.188e-4,0 -0.00113,-2.63e-4 -0.00133,-6.15e-4 h -6.158e-4 -0.00195 c -4.782e-4,0 -9.921e-4,-2.1e-4 -0.00123,-4.2e-4 -2.154e-4,-2.63e-4 -2.784e-4,-6.36e-4 -1.05e-4,-9.25e-4 -6.31e-5,-3.68e-4 2.49e-5,-8.57e-4 4.098e-4,-0.0011 -0.00773,-0.0017 -0.00708,-0.0097 8.212e-4,-0.01006 5.56e-4,-3.1e-5 0.00142,-5e-5 0.00205,0 0.00306,2.63e-4 0.00618,10e-4 0.00924,0.0015 -6.348e-4,-0.0012 -0.00112,-0.0033 -5.15e-4,-0.0047 9.526e-4,-0.0011 0.00349,-0.0028 0.00575,-0.0031 h 5.15e-4 c 1.839e-4,-2.63e-4 7.524e-4,-3.68e-4 0.00103,-6.15e-4 v -0.01498 c -0.00127,-0.0015 -0.00248,-0.0031 -0.00369,-0.0046 -0.00326,-0.0042 -0.00641,-0.0086 -0.00872,-0.01344 -0.00279,-0.0057 -3.1e-4,-0.0096 0.00308,-0.0095 9.264e-4,2.5e-5 0.00212,4.21e-4 0.00308,9.25e-4 0.00143,-7.14e-4 0.00375,-0.0011 0.00626,-6.15e-4 v -1.370328 z" />
    </clipPath>
    <clipPath
       clipPathUnits="userSpaceOnUse"
       id="clipPath20775">
      <path
         id="path20777"
         style="fill:#ff0000;fill-opacity:1;fill-rule:nonzero;stroke:none;stroke-width:0.264583"
         d="m 4.1614757,11.461208 -1.9858628,1.05e-4 v 1.726021 h 1.9858628 v -0.319877 c -0.00138,1.5e-5 -0.00278,1.05e-4 -0.0041,0 -0.00185,-1.57e-4 -0.00331,-9.24e-4 -0.00513,-10e-4 -0.00122,-3.16e-4 -0.00296,2.1e-4 -0.00421,0 -3.52e-4,-6e-6 -6.815e-4,1.05e-4 -0.00103,1.05e-4 l 1.05e-4,1.05e-4 c 2.207e-4,1.57e-4 4.939e-4,4.2e-4 7.183e-4,6.15e-4 l 1.051e-4,1.05e-4 c 2.627e-4,1.57e-4 4.046e-4,4.2e-4 5.149e-4,6.14e-4 h 1.051e-4 v 1.06e-4 1.05e-4 c 8.41e-5,1.05e-4 2.207e-4,1.57e-4 3.1e-4,2.1e-4 2.995e-4,2.1e-4 6.058e-4,4.73e-4 9.237e-4,6.15e-4 2.575e-4,1.05e-4 4.782e-4,3.67e-4 7.183e-4,5.25e-4 0.00178,9.93e-4 8.638e-4,0.0025 -9.237e-4,0.0015 -2.365e-4,-1.57e-4 -4.782e-4,-2.1e-4 -7.183e-4,-3.15e-4 -3.783e-4,-2.1e-4 -7.692e-4,-4.73e-4 -0.00113,-7.2e-4 -2.995e-4,-2.1e-4 -5.628e-4,-4.72e-4 -8.213e-4,-7.19e-4 -4.97e-5,-5.2e-5 -5.78e-5,-1.58e-4 -1.051e-4,-2.11e-4 l -1.05e-4,-1.05e-4 h -1.051e-4 c -5.859e-4,-1.57e-4 -0.00115,-4.2e-4 -0.00174,-6.14e-4 -5.559e-4,-2.11e-4 -0.00109,-2.63e-4 -0.00164,-4.21e-4 -6.158e-4,-1.57e-4 -0.00129,-5.25e-4 -0.00185,-8.19e-4 -6.158e-4,-3.16e-4 -0.00115,-7.15e-4 -0.00174,-0.001 l -1.051e-4,-1.05e-4 h -1.051e-4 c -2.469e-4,-3.9e-5 -4.781e-4,-4.6e-5 -7.182e-4,-1.05e-4 -0.00132,-2.63e-4 -0.00225,-10e-4 -0.00359,-10e-4 -0.00114,-2.1e-4 -0.00239,-4.2e-4 -0.00308,-5.25e-4 -0.0014,-1.58e-4 -0.00268,-1.58e-4 -0.00411,-5.26e-4 -0.00119,-3.15e-4 -0.00245,-0.001 -0.00369,-0.001 -0.00135,-2.1e-4 -0.0027,-1.05e-4 -0.00411,-5.26e-4 -0.00193,-1.57e-4 -0.00376,-5.25e-4 -0.00564,-9.24e-4 -0.00167,-4.21e-4 -0.00352,-8.2e-4 -0.00523,-9.25e-4 -0.00159,-3.15e-4 -0.00303,2.62e-4 -0.00462,0 -0.00204,-1.58e-4 -0.00416,-5.83e-4 -0.00616,-9.25e-4 -0.00274,1.58e-4 -0.0057,-5.25e-4 -0.00831,-9.25e-4 -6.862e-4,-2.1e-4 -0.00132,-5.62e-4 -0.00195,-9.25e-4 -4.729e-4,-4e-6 -9.5e-4,-5.2e-5 -0.00144,-1.05e-4 -3.783e-4,-2e-5 -7.514e-4,-1.05e-4 -0.00113,-2.1e-4 -3.152e-4,-1.05e-4 -6.058e-4,-2.62e-4 -9.237e-4,-4.2e-4 -2.784e-4,-1.05e-4 -5.427e-4,-1.58e-4 -8.212e-4,-3.15e-4 -1.997e-4,-1.05e-4 -4.151e-4,-1.58e-4 -6.158e-4,-2.11e-4 -3.153e-4,-1.57e-4 -6.258e-4,-2.62e-4 -9.237e-4,-4.2e-4 -1.366e-4,-5.2e-5 -2.575e-4,-5.2e-5 -4.099e-4,-1.05e-4 -2.364e-4,-1.7e-5 -4.781e-4,-1.58e-4 -7.182e-4,-2.1e-4 -2.575e-4,-4.2e-5 -5.827e-4,-4.8e-5 -8.213e-4,-1.05e-4 -3.993e-4,-1.05e-4 -7.513e-4,-2.63e-4 -0.00113,-4.21e-4 -4.151e-4,-5.2e-5 -7.319e-4,-1.57e-4 -0.00113,-3.15e-4 -3.153e-4,-1.05e-4 -6.884e-4,-2.1e-4 -0.00103,-3.15e-4 -3.573e-4,-5.3e-5 -7.713e-4,-1.05e-4 -0.00113,-2.1e-4 -3.153e-4,-5.3e-5 -6.059e-4,-1.05e-4 -9.238e-4,-2.1e-4 -2.784e-4,-5.3e-5 -5.427e-4,-1.06e-4 -8.212e-4,-2.11e-4 -3.573e-4,-5.2e-5 -7.713e-4,-2.1e-4 -0.00113,-3.15e-4 -3.573e-4,-1.05e-4 -6.689e-4,-2.1e-4 -0.00103,-3.15e-4 -2.995e-4,-5.3e-5 -6.258e-4,-1.05e-4 -9.237e-4,-2.1e-4 -2.995e-4,-5.3e-5 -5.254e-4,-2.1e-4 -8.212e-4,-3.16e-4 -2.365e-4,-5.2e-5 -4.782e-4,-1.57e-4 -7.183e-4,-2.1e-4 -2.365e-4,-1.05e-4 -4.624e-4,-1.57e-4 -7.183e-4,-2.1e-4 -3.363e-4,-1.05e-4 -7.083e-4,-2.1e-4 -0.00103,-3.15e-4 -1.997e-4,-1.05e-4 -3.153e-4,-5.3e-5 -5.15e-4,-1.05e-4 -2.995e-4,-2.1e-5 -6.457e-4,-4.5e-5 -9.237e-4,-1.05e-4 -3.363e-4,-5.3e-5 -6.058e-4,-2.11e-4 -9.237e-4,-3.16e-4 -2.995e-4,-4e-5 -5.428e-4,-1.05e-4 -8.212e-4,-2.1e-4 -1.209e-4,-3.5e-5 -2.785e-4,-1.05e-4 -4.099e-4,-1.05e-4 -2.784e-4,6e-6 -5.427e-4,-1.1e-5 -8.212e-4,-1.05e-4 -1.997e-4,-4e-5 -4.256e-4,-2.1e-4 -6.158e-4,-3.15e-4 3.97e-5,4.7e-5 -3.416e-4,-5.3e-5 -4.099e-4,-1.05e-4 -1.366e-4,-5.3e-5 -3.573e-4,1.5e-5 -5.149e-4,0 -2.995e-4,2e-6 -6.258e-4,-1.58e-4 -9.237e-4,-2.1e-4 -2.575e-4,-5.3e-5 -4.414e-4,-1.58e-4 -7.183e-4,-2.11e-4 -2.784e-4,-5.2e-5 -6.457e-4,-1.57e-4 -9.237e-4,-2.1e-4 -2.995e-4,-5.2e-5 -5.254e-4,-2.1e-4 -8.212e-4,-3.15e-4 -8.41e-5,-3.4e-5 -2.154e-4,-5.3e-5 -3.1e-4,-1.05e-4 -3.6e-5,-4e-6 -6.83e-5,4e-6 -1.051e-4,0 -7.36e-5,-1.9e-5 -1.314e-4,1.9e-5 -2.049e-4,0 -9.426e-4,-1.05e-4 -0.00193,-1.58e-4 -0.00287,-2.1e-4 -0.0023,-3.68e-4 -0.00497,-8.94e-4 -0.00729,-9.25e-4 -0.00314,-4.2e-4 -0.00572,-0.0015 -0.00872,-0.0025 -0.00356,-0.0011 -0.00737,-0.0023 -0.010878,-0.0036 v 6.14e-4 c -6.61e-4,-2.1e-4 -0.00123,-6.04e-4 -0.00174,-9.24e-4 h -0.00144 c -7.188e-4,0 -0.00113,-2.63e-4 -0.00133,-6.15e-4 h -6.158e-4 -0.00195 c -0.00128,0 -0.00168,-8.3e-4 -0.00133,-0.0013 -6.3e-5,-3.15e-4 2.1e-6,-8.46e-4 3.1e-4,-10e-4 -0.00764,-0.0018 -0.00705,-0.0096 8.213e-4,-0.01006 5.553e-4,-3.1e-5 0.00142,-4.7e-5 0.00205,0 0.00308,2.63e-4 0.00626,9.36e-4 0.00934,0.0014 -6.347e-4,-0.0012 -0.00112,-0.0031 -5.149e-4,-0.0045 9.526e-4,-0.0011 0.00338,-0.003 0.00564,-0.0033 h 6.158e-4 c 6.084e-4,-8.99e-4 0.0017,-0.0021 0.00308,-0.0025 0.00127,-3.15e-4 0.00325,-4.2e-4 0.00513,0 0.00293,6.1e-4 0.00547,0.0018 0.00831,0.0025 3.152e-4,5.2e-5 6.809e-4,-5.3e-5 0.00103,0 -3.678e-4,-3.16e-4 -6.016e-4,-6.63e-4 -0.00103,-9.25e-4 -0.00299,-0.0025 -0.00606,-0.0053 -0.00883,-0.0077 -0.00366,-0.0036 -0.00713,-0.0074 -0.010365,-0.01139 -0.00326,-0.0042 -0.00641,-0.0086 -0.00872,-0.01344 -0.00279,-0.0058 -3.1e-4,-0.01012 0.00308,-0.01006 9.258e-4,2.5e-5 0.00212,5.31e-4 0.00308,9.25e-4 0.00143,-7.14e-4 0.00375,-9.98e-4 0.00626,-6.15e-4 5.822e-4,1.05e-4 9.537e-4,4.73e-4 0.00154,6.15e-4 0.00119,2.63e-4 0.00235,4.9e-5 0.00359,0 h 0.00523 0.00513 0.00554 c 0.00238,0 0.005,-9e-6 0.00739,0 0.00275,5e-6 0.00546,-3.6e-5 0.00821,0 0.00297,3.6e-5 0.00588,4.21e-4 0.00883,6.15e-4 0.00214,1.58e-4 0.0045,2.63e-4 0.00667,6.15e-4 -0.00217,-0.0036 -0.00103,-0.0069 0.00164,-0.0078 0.00196,-6.1e-4 0.00496,5.88e-4 0.0077,0.0034 0.00273,0.0027 0.00502,0.0051 0.00729,0.0081 0.00122,3.67e-4 0.00243,6.67e-4 0.00359,9.24e-4 3.153e-4,-3.15e-4 6.81e-4,-8.25e-4 0.00103,-9.24e-4 0.00365,-0.0033 0.0077,-0.0061 0.011391,-0.0094 0.00143,-0.0013 0.00281,-0.0024 0.0041,-0.0028 0.0056,-0.0015 0.00874,0.0047 0.00257,0.01026 -0.0029,0.0026 -0.00591,0.0052 -0.00872,0.0078 0.00309,0.0016 0.00595,0.0031 0.00872,0.0052 0.00479,0.0035 0.00957,0.0069 0.013444,0.01139 0.00303,0.004 0.00566,0.0078 0.00616,0.01293 3.153e-4,0.0052 -5.501e-4,0.0099 -0.00308,0.01447 -0.00283,0.0043 -0.00626,0.0068 -0.010878,0.0091 -0.00103,4.73e-4 -0.00183,7.99e-4 -0.00257,9.25e-4 8.464e-4,4.2e-4 0.00173,7.57e-4 0.00257,0.0011 0.00119,6.88e-4 0.00289,9.35e-4 0.00421,0.0013 3.573e-4,1.05e-4 5.47e-4,3.15e-4 6.158e-4,4.21e-4 7.88e-5,4.4e-5 2.102e-4,2.3e-5 4.098e-4,1.05e-4 0.0046,0.0013 0.00608,0.0046 0.00564,0.007 3.415e-4,-1.1e-5 6.016e-4,-5e-6 0.00103,0 0.00164,5e-6 0.0036,4.73e-4 0.00523,6.15e-4 0.00172,3.15e-4 0.0034,4.73e-4 0.00513,6.14e-4 0.00108,5.2e-5 0.00204,1.7e-5 0.00308,0 z m -0.1205823,1.330613 c 9.463e-4,0.0018 0.00166,0.0037 0.00277,0.0048 0.00296,0.0036 0.006,0.007 0.00934,0.01037 0.00257,0.0026 0.00493,0.0044 0.0077,0.0067 0.00188,0.0015 0.00433,0.0032 0.00626,0.0047 0.00153,0.0012 0.00304,0.0025 0.00462,0.0036 0.00122,8.72e-4 0.00235,0.0018 0.00359,0.0026 3.731e-4,1.7e-5 6.284e-4,-1.8e-5 0.00103,0 -5.822e-4,-0.0027 -8.417e-4,-0.0056 -5.149e-4,-0.0083 5.822e-4,-0.0037 0.00289,-0.006 0.00523,-0.0089 0.00286,-0.003 0.00624,-0.0061 0.00975,-0.0077 0.00265,-0.0017 0.00551,-0.0023 0.00831,-0.0036 l 0.00103,-6.15e-4 c 5.821e-4,-3.15e-4 9.851e-4,-4.2e-4 0.00154,-6.15e-4 -0.00201,-5.57e-4 -0.00409,-10e-4 -0.00616,-0.0014 -0.00378,-6.89e-4 -0.00756,-0.001 -0.011391,-0.001 -0.00279,-1.57e-4 -0.00552,-4.73e-4 -0.00831,-5.25e-4 -0.00271,-3.2e-5 -0.0055,5e-6 -0.00821,0 -0.00238,-6e-6 -0.00493,1e-6 -0.00729,0 h -0.00564 -0.00513 -0.00523 c -0.00118,4.2e-5 -0.00218,1.57e-4 -0.00328,0 z m 0.07666,0.009 c 7.876e-4,0.0019 0.00135,0.0036 0.00205,0.0053 3.993e-4,9.98e-4 7.077e-4,0.002 0.00103,0.0031 0.00127,5.57e-4 0.00256,0.0017 0.00369,0.0023 0.00204,0.002 0.00381,0.004 0.00462,0.0068 3.994e-4,0.0019 1.734e-4,0.0037 5.15e-4,0.0056 3.152e-4,0.0023 6.047e-4,0.0049 5.149e-4,0.0072 -1.051e-4,0.0019 -4.309e-4,0.0034 -0.00103,0.0052 h 6.158e-4 c 5.044e-4,-1.05e-4 0.00218,-8.88e-4 0.00257,-0.0011 0.00271,-0.0014 0.00453,-0.0031 0.00616,-0.0056 6.878e-4,-0.0016 0.00141,-0.0029 0.00154,-0.0047 1.42e-5,-2.1e-4 0,-0.0031 0,-0.0031 -4.518e-4,-0.003 -0.0023,-0.0053 -0.00411,-0.0077 -0.00333,-0.0037 -0.00739,-0.0059 -0.011391,-0.0088 -0.0022,-0.0017 -0.00437,-0.003 -0.00677,-0.0044 z m -0.025245,0.0086 c -0.00132,9.25e-4 -0.00258,0.0024 -0.00369,0.0035 2.049e-4,4.72e-4 3.257e-4,6.25e-4 5.149e-4,0.0011 1.366e-4,4.21e-4 4.046e-4,9.25e-4 6.158e-4,10e-4 9.258e-4,-0.0019 0.00151,-0.0038 0.00257,-0.0056 z m 0.012828,0.007 c 2.207e-4,0.0022 4.309e-4,0.0046 6.158e-4,0.0067 l 5.149e-4,-5.26e-4 c 0.0022,-0.0013 0.00404,-0.0015 0.00564,-0.0015 -8.4e-5,-8.72e-4 1.209e-4,-0.0019 0,-0.0027 -4.66e-5,-3.16e-4 5.26e-5,-7.99e-4 0,-9.25e-4 h -5.149e-4 c -0.00196,-3.15e-4 -0.0036,-10e-4 -0.00564,-10e-4 z m -0.0079,0.0311 -1.051e-4,1.05e-4 1.051e-4,1.05e-4 h 1.051e-4 c 1.32e-5,-5e-5 -8.93e-5,-1.05e-4 -1.051e-4,-2.1e-4 z" />
    </clipPath>
    <clipPath
       clipPathUnits="userSpaceOnUse"
       id="clipPath20785">
      <path
         id="path20787"
         style="fill:#ff0000;fill-opacity:1;fill-rule:nonzero;stroke:none;stroke-width:0.264583"
         d="m 4.0178032,12.82661 v 0.0036 c 9.263e-4,-4.73e-4 0.0018,-10e-4 0.00318,-10e-4 5.553e-4,-3.1e-5 0.00142,-5e-5 0.00205,0 0.00304,2.62e-4 0.0062,0.0011 0.00924,0.0016 -5.822e-4,-0.0011 -8.77e-4,-0.0029 -5.149e-4,-0.0041 z m 0,0.01211 v 0.05306 h 0.058906 v -0.03725 c -2.312e-4,-4e-5 -5.044e-4,-5.3e-5 -7.183e-4,-1.05e-4 -3.152e-4,-5.3e-5 -6.058e-4,-1.05e-4 -9.237e-4,-2.1e-4 -2.785e-4,-5.3e-5 -5.427e-4,-1.06e-4 -8.212e-4,-2.11e-4 -3.573e-4,-5.2e-5 -7.714e-4,-2.1e-4 -0.00113,-3.15e-4 -3.572e-4,-1.05e-4 -6.688e-4,-2.1e-4 -0.00103,-3.15e-4 -2.995e-4,-5.3e-5 -6.258e-4,-1.05e-4 -9.237e-4,-2.1e-4 -2.995e-4,-5.3e-5 -5.255e-4,-2.11e-4 -8.213e-4,-3.16e-4 -2.364e-4,-5.2e-5 -4.781e-4,-1.57e-4 -7.182e-4,-2.1e-4 -2.365e-4,-1.05e-4 -4.624e-4,-1.57e-4 -7.183e-4,-2.1e-4 -3.363e-4,-1.05e-4 -7.083e-4,-2.1e-4 -0.00103,-3.15e-4 -1.996e-4,-1.05e-4 -3.152e-4,-5.3e-5 -5.149e-4,-1.05e-4 -2.995e-4,-2.1e-5 -6.457e-4,-4.5e-5 -9.237e-4,-1.05e-4 -3.363e-4,-5.3e-5 -6.058e-4,-2.11e-4 -9.237e-4,-3.16e-4 -2.995e-4,-4e-5 -5.428e-4,-1.05e-4 -8.213e-4,-2.1e-4 -1.208e-4,-3.6e-5 -2.784e-4,-1.05e-4 -4.098e-4,-1.05e-4 -2.785e-4,6e-6 -5.428e-4,-1.1e-5 -8.212e-4,-1.05e-4 -1.997e-4,-4e-5 -4.256e-4,-2.1e-4 -6.158e-4,-3.15e-4 3.97e-5,4.7e-5 -3.416e-4,-5.3e-5 -4.099e-4,-1.05e-4 -1.366e-4,-5.3e-5 -3.573e-4,1.5e-5 -5.149e-4,0 -2.995e-4,2e-6 -6.258e-4,-1.58e-4 -9.237e-4,-2.1e-4 -2.575e-4,-5.3e-5 -4.414e-4,-1.58e-4 -7.183e-4,-2.11e-4 -2.785e-4,-5.2e-5 -6.457e-4,-1.57e-4 -9.237e-4,-2.1e-4 -2.995e-4,-5.2e-5 -5.254e-4,-2.1e-4 -8.212e-4,-3.15e-4 -2.207e-4,-1.05e-4 -4.992e-4,-1.05e-4 -7.183e-4,-2.1e-4 -1.103e-4,-4.9e-5 -2.049e-4,-1.05e-4 -3.1e-4,-1.05e-4 -7.88e-5,-6e-6 -1.261e-4,5e-6 -2.049e-4,0 -3.97e-5,-5e-6 -6.31e-5,5e-6 -1.051e-4,0 -6.83e-5,-4e-6 -1.366e-4,4e-6 -2.049e-4,0 -8.94e-5,-1.4e-5 -2.155e-4,-1.05e-4 -3.1e-4,-1.05e-4 -3.31e-5,-3e-6 -6.83e-5,2e-6 -1.051e-4,0 -3.43e-5,-7e-6 -6.83e-5,7e-6 -1.051e-4,0 -4.729e-4,-2.5e-5 -9.642e-4,-5.3e-5 -0.00144,-1.06e-4 -0.0023,-3.67e-4 -0.00486,-8.45e-4 -0.00718,-9.24e-4 -0.00314,-4.21e-4 -0.00583,-0.0013 -0.00883,-0.0023 -0.00356,-0.0011 -0.00737,-0.0023 -0.010878,-0.0036 v 5.26e-4 c -4.834e-4,-1.58e-4 -8.481e-4,-3.68e-4 -0.00123,-6.15e-4 h -0.00195 c -7.188e-4,0 -0.00113,-2.63e-4 -0.00133,-6.15e-4 h -6.158e-4 -0.00195 c -0.00128,0 -0.00168,-7.88e-4 -0.00133,-0.0013 -6.31e-5,-3.68e-4 2.56e-5,-7.83e-4 4.098e-4,-10e-4 -8.911e-4,-1.57e-4 -0.00165,-4.73e-4 -0.00236,-8.2e-4 z" />
    </clipPath>
    <linearGradient
       inkscape:collect="always"
       xlink:href="#linearGradient17355"
       id="linearGradient17310-5"
       x1="2.6796248"
       y1="12.585118"
       x2="4.4916534"
       y2="12.585118"
       gradientUnits="userSpaceOnUse" />
    <clipPath
       clipPathUnits="userSpaceOnUse"
       id="clipPath20775-8">
      <path
         id="path20777-7"
         style="fill:#ff0000;fill-opacity:1;fill-rule:nonzero;stroke:none;stroke-width:0.264583"
         d="m 4.1614757,11.461208 -1.9858628,1.05e-4 v 1.726021 h 1.9858628 v -0.319877 c -0.00138,1.5e-5 -0.00278,1.05e-4 -0.0041,0 -0.00185,-1.57e-4 -0.00331,-9.24e-4 -0.00513,-10e-4 -0.00122,-3.16e-4 -0.00296,2.1e-4 -0.00421,0 -3.52e-4,-6e-6 -6.815e-4,1.05e-4 -0.00103,1.05e-4 l 1.05e-4,1.05e-4 c 2.207e-4,1.57e-4 4.939e-4,4.2e-4 7.183e-4,6.15e-4 l 1.051e-4,1.05e-4 c 2.627e-4,1.57e-4 4.046e-4,4.2e-4 5.149e-4,6.14e-4 h 1.051e-4 v 1.06e-4 1.05e-4 c 8.41e-5,1.05e-4 2.207e-4,1.57e-4 3.1e-4,2.1e-4 2.995e-4,2.1e-4 6.058e-4,4.73e-4 9.237e-4,6.15e-4 2.575e-4,1.05e-4 4.782e-4,3.67e-4 7.183e-4,5.25e-4 0.00178,9.93e-4 8.638e-4,0.0025 -9.237e-4,0.0015 -2.365e-4,-1.57e-4 -4.782e-4,-2.1e-4 -7.183e-4,-3.15e-4 -3.783e-4,-2.1e-4 -7.692e-4,-4.73e-4 -0.00113,-7.2e-4 -2.995e-4,-2.1e-4 -5.628e-4,-4.72e-4 -8.213e-4,-7.19e-4 -4.97e-5,-5.2e-5 -5.78e-5,-1.58e-4 -1.051e-4,-2.11e-4 l -1.05e-4,-1.05e-4 h -1.051e-4 c -5.859e-4,-1.57e-4 -0.00115,-4.2e-4 -0.00174,-6.14e-4 -5.559e-4,-2.11e-4 -0.00109,-2.63e-4 -0.00164,-4.21e-4 -6.158e-4,-1.57e-4 -0.00129,-5.25e-4 -0.00185,-8.19e-4 -6.158e-4,-3.16e-4 -0.00115,-7.15e-4 -0.00174,-0.001 l -1.051e-4,-1.05e-4 h -1.051e-4 c -2.469e-4,-3.9e-5 -4.781e-4,-4.6e-5 -7.182e-4,-1.05e-4 -0.00132,-2.63e-4 -0.00225,-10e-4 -0.00359,-10e-4 -0.00114,-2.1e-4 -0.00239,-4.2e-4 -0.00308,-5.25e-4 -0.0014,-1.58e-4 -0.00268,-1.58e-4 -0.00411,-5.26e-4 -0.00119,-3.15e-4 -0.00245,-0.001 -0.00369,-0.001 -0.00135,-2.1e-4 -0.0027,-1.05e-4 -0.00411,-5.26e-4 -0.00193,-1.57e-4 -0.00376,-5.25e-4 -0.00564,-9.24e-4 -0.00167,-4.21e-4 -0.00352,-8.2e-4 -0.00523,-9.25e-4 -0.00159,-3.15e-4 -0.00303,2.62e-4 -0.00462,0 -0.00204,-1.58e-4 -0.00416,-5.83e-4 -0.00616,-9.25e-4 -0.00274,1.58e-4 -0.0057,-5.25e-4 -0.00831,-9.25e-4 -6.862e-4,-2.1e-4 -0.00132,-5.62e-4 -0.00195,-9.25e-4 -4.729e-4,-4e-6 -9.5e-4,-5.2e-5 -0.00144,-1.05e-4 -3.783e-4,-2e-5 -7.514e-4,-1.05e-4 -0.00113,-2.1e-4 -3.152e-4,-1.05e-4 -6.058e-4,-2.62e-4 -9.237e-4,-4.2e-4 -2.784e-4,-1.05e-4 -5.427e-4,-1.58e-4 -8.212e-4,-3.15e-4 -1.997e-4,-1.05e-4 -4.151e-4,-1.58e-4 -6.158e-4,-2.11e-4 -3.153e-4,-1.57e-4 -6.258e-4,-2.62e-4 -9.237e-4,-4.2e-4 -1.366e-4,-5.2e-5 -2.575e-4,-5.2e-5 -4.099e-4,-1.05e-4 -2.364e-4,-1.7e-5 -4.781e-4,-1.58e-4 -7.182e-4,-2.1e-4 -2.575e-4,-4.2e-5 -5.827e-4,-4.8e-5 -8.213e-4,-1.05e-4 -3.993e-4,-1.05e-4 -7.513e-4,-2.63e-4 -0.00113,-4.21e-4 -4.151e-4,-5.2e-5 -7.319e-4,-1.57e-4 -0.00113,-3.15e-4 -3.153e-4,-1.05e-4 -6.884e-4,-2.1e-4 -0.00103,-3.15e-4 -3.573e-4,-5.3e-5 -7.713e-4,-1.05e-4 -0.00113,-2.1e-4 -3.153e-4,-5.3e-5 -6.059e-4,-1.05e-4 -9.238e-4,-2.1e-4 -2.784e-4,-5.3e-5 -5.427e-4,-1.06e-4 -8.212e-4,-2.11e-4 -3.573e-4,-5.2e-5 -7.713e-4,-2.1e-4 -0.00113,-3.15e-4 -3.573e-4,-1.05e-4 -6.689e-4,-2.1e-4 -0.00103,-3.15e-4 -2.995e-4,-5.3e-5 -6.258e-4,-1.05e-4 -9.237e-4,-2.1e-4 -2.995e-4,-5.3e-5 -5.254e-4,-2.1e-4 -8.212e-4,-3.16e-4 -2.365e-4,-5.2e-5 -4.782e-4,-1.57e-4 -7.183e-4,-2.1e-4 -2.365e-4,-1.05e-4 -4.624e-4,-1.57e-4 -7.183e-4,-2.1e-4 -3.363e-4,-1.05e-4 -7.083e-4,-2.1e-4 -0.00103,-3.15e-4 -1.997e-4,-1.05e-4 -3.153e-4,-5.3e-5 -5.15e-4,-1.05e-4 -2.995e-4,-2.1e-5 -6.457e-4,-4.5e-5 -9.237e-4,-1.05e-4 -3.363e-4,-5.3e-5 -6.058e-4,-2.11e-4 -9.237e-4,-3.16e-4 -2.995e-4,-4e-5 -5.428e-4,-1.05e-4 -8.212e-4,-2.1e-4 -1.209e-4,-3.5e-5 -2.785e-4,-1.05e-4 -4.099e-4,-1.05e-4 -2.784e-4,6e-6 -5.427e-4,-1.1e-5 -8.212e-4,-1.05e-4 -1.997e-4,-4e-5 -4.256e-4,-2.1e-4 -6.158e-4,-3.15e-4 3.97e-5,4.7e-5 -3.416e-4,-5.3e-5 -4.099e-4,-1.05e-4 -1.366e-4,-5.3e-5 -3.573e-4,1.5e-5 -5.149e-4,0 -2.995e-4,2e-6 -6.258e-4,-1.58e-4 -9.237e-4,-2.1e-4 -2.575e-4,-5.3e-5 -4.414e-4,-1.58e-4 -7.183e-4,-2.11e-4 -2.784e-4,-5.2e-5 -6.457e-4,-1.57e-4 -9.237e-4,-2.1e-4 -2.995e-4,-5.2e-5 -5.254e-4,-2.1e-4 -8.212e-4,-3.15e-4 -8.41e-5,-3.4e-5 -2.154e-4,-5.3e-5 -3.1e-4,-1.05e-4 -3.6e-5,-4e-6 -6.83e-5,4e-6 -1.051e-4,0 -7.36e-5,-1.9e-5 -1.314e-4,1.9e-5 -2.049e-4,0 -9.426e-4,-1.05e-4 -0.00193,-1.58e-4 -0.00287,-2.1e-4 -0.0023,-3.68e-4 -0.00497,-8.94e-4 -0.00729,-9.25e-4 -0.00314,-4.2e-4 -0.00572,-0.0015 -0.00872,-0.0025 -0.00356,-0.0011 -0.00737,-0.0023 -0.010878,-0.0036 v 6.14e-4 c -6.61e-4,-2.1e-4 -0.00123,-6.04e-4 -0.00174,-9.24e-4 h -0.00144 c -7.188e-4,0 -0.00113,-2.63e-4 -0.00133,-6.15e-4 h -6.158e-4 -0.00195 c -0.00128,0 -0.00168,-8.3e-4 -0.00133,-0.0013 -6.3e-5,-3.15e-4 2.1e-6,-8.46e-4 3.1e-4,-10e-4 -0.00764,-0.0018 -0.00705,-0.0096 8.213e-4,-0.01006 5.553e-4,-3.1e-5 0.00142,-4.7e-5 0.00205,0 0.00308,2.63e-4 0.00626,9.36e-4 0.00934,0.0014 -6.347e-4,-0.0012 -0.00112,-0.0031 -5.149e-4,-0.0045 9.526e-4,-0.0011 0.00338,-0.003 0.00564,-0.0033 h 6.158e-4 c 6.084e-4,-8.99e-4 0.0017,-0.0021 0.00308,-0.0025 0.00127,-3.15e-4 0.00325,-4.2e-4 0.00513,0 0.00293,6.1e-4 0.00547,0.0018 0.00831,0.0025 3.152e-4,5.2e-5 6.809e-4,-5.3e-5 0.00103,0 -3.678e-4,-3.16e-4 -6.016e-4,-6.63e-4 -0.00103,-9.25e-4 -0.00299,-0.0025 -0.00606,-0.0053 -0.00883,-0.0077 -0.00366,-0.0036 -0.00713,-0.0074 -0.010365,-0.01139 -0.00326,-0.0042 -0.00641,-0.0086 -0.00872,-0.01344 -0.00279,-0.0058 -3.1e-4,-0.01012 0.00308,-0.01006 9.258e-4,2.5e-5 0.00212,5.31e-4 0.00308,9.25e-4 0.00143,-7.14e-4 0.00375,-9.98e-4 0.00626,-6.15e-4 5.822e-4,1.05e-4 9.537e-4,4.73e-4 0.00154,6.15e-4 0.00119,2.63e-4 0.00235,4.9e-5 0.00359,0 h 0.00523 0.00513 0.00554 c 0.00238,0 0.005,-9e-6 0.00739,0 0.00275,5e-6 0.00546,-3.6e-5 0.00821,0 0.00297,3.6e-5 0.00588,4.21e-4 0.00883,6.15e-4 0.00214,1.58e-4 0.0045,2.63e-4 0.00667,6.15e-4 -0.00217,-0.0036 -0.00103,-0.0069 0.00164,-0.0078 0.00196,-6.1e-4 0.00496,5.88e-4 0.0077,0.0034 0.00273,0.0027 0.00502,0.0051 0.00729,0.0081 0.00122,3.67e-4 0.00243,6.67e-4 0.00359,9.24e-4 3.153e-4,-3.15e-4 6.81e-4,-8.25e-4 0.00103,-9.24e-4 0.00365,-0.0033 0.0077,-0.0061 0.011391,-0.0094 0.00143,-0.0013 0.00281,-0.0024 0.0041,-0.0028 0.0056,-0.0015 0.00874,0.0047 0.00257,0.01026 -0.0029,0.0026 -0.00591,0.0052 -0.00872,0.0078 0.00309,0.0016 0.00595,0.0031 0.00872,0.0052 0.00479,0.0035 0.00957,0.0069 0.013444,0.01139 0.00303,0.004 0.00566,0.0078 0.00616,0.01293 3.153e-4,0.0052 -5.501e-4,0.0099 -0.00308,0.01447 -0.00283,0.0043 -0.00626,0.0068 -0.010878,0.0091 -0.00103,4.73e-4 -0.00183,7.99e-4 -0.00257,9.25e-4 8.464e-4,4.2e-4 0.00173,7.57e-4 0.00257,0.0011 0.00119,6.88e-4 0.00289,9.35e-4 0.00421,0.0013 3.573e-4,1.05e-4 5.47e-4,3.15e-4 6.158e-4,4.21e-4 7.88e-5,4.4e-5 2.102e-4,2.3e-5 4.098e-4,1.05e-4 0.0046,0.0013 0.00608,0.0046 0.00564,0.007 3.415e-4,-1.1e-5 6.016e-4,-5e-6 0.00103,0 0.00164,5e-6 0.0036,4.73e-4 0.00523,6.15e-4 0.00172,3.15e-4 0.0034,4.73e-4 0.00513,6.14e-4 0.00108,5.2e-5 0.00204,1.7e-5 0.00308,0 z m -0.1205823,1.330613 c 9.463e-4,0.0018 0.00166,0.0037 0.00277,0.0048 0.00296,0.0036 0.006,0.007 0.00934,0.01037 0.00257,0.0026 0.00493,0.0044 0.0077,0.0067 0.00188,0.0015 0.00433,0.0032 0.00626,0.0047 0.00153,0.0012 0.00304,0.0025 0.00462,0.0036 0.00122,8.72e-4 0.00235,0.0018 0.00359,0.0026 3.731e-4,1.7e-5 6.284e-4,-1.8e-5 0.00103,0 -5.822e-4,-0.0027 -8.417e-4,-0.0056 -5.149e-4,-0.0083 5.822e-4,-0.0037 0.00289,-0.006 0.00523,-0.0089 0.00286,-0.003 0.00624,-0.0061 0.00975,-0.0077 0.00265,-0.0017 0.00551,-0.0023 0.00831,-0.0036 l 0.00103,-6.15e-4 c 5.821e-4,-3.15e-4 9.851e-4,-4.2e-4 0.00154,-6.15e-4 -0.00201,-5.57e-4 -0.00409,-10e-4 -0.00616,-0.0014 -0.00378,-6.89e-4 -0.00756,-0.001 -0.011391,-0.001 -0.00279,-1.57e-4 -0.00552,-4.73e-4 -0.00831,-5.25e-4 -0.00271,-3.2e-5 -0.0055,5e-6 -0.00821,0 -0.00238,-6e-6 -0.00493,1e-6 -0.00729,0 h -0.00564 -0.00513 -0.00523 c -0.00118,4.2e-5 -0.00218,1.57e-4 -0.00328,0 z m 0.07666,0.009 c 7.876e-4,0.0019 0.00135,0.0036 0.00205,0.0053 3.993e-4,9.98e-4 7.077e-4,0.002 0.00103,0.0031 0.00127,5.57e-4 0.00256,0.0017 0.00369,0.0023 0.00204,0.002 0.00381,0.004 0.00462,0.0068 3.994e-4,0.0019 1.734e-4,0.0037 5.15e-4,0.0056 3.152e-4,0.0023 6.047e-4,0.0049 5.149e-4,0.0072 -1.051e-4,0.0019 -4.309e-4,0.0034 -0.00103,0.0052 h 6.158e-4 c 5.044e-4,-1.05e-4 0.00218,-8.88e-4 0.00257,-0.0011 0.00271,-0.0014 0.00453,-0.0031 0.00616,-0.0056 6.878e-4,-0.0016 0.00141,-0.0029 0.00154,-0.0047 1.42e-5,-2.1e-4 0,-0.0031 0,-0.0031 -4.518e-4,-0.003 -0.0023,-0.0053 -0.00411,-0.0077 -0.00333,-0.0037 -0.00739,-0.0059 -0.011391,-0.0088 -0.0022,-0.0017 -0.00437,-0.003 -0.00677,-0.0044 z m -0.025245,0.0086 c -0.00132,9.25e-4 -0.00258,0.0024 -0.00369,0.0035 2.049e-4,4.72e-4 3.257e-4,6.25e-4 5.149e-4,0.0011 1.366e-4,4.21e-4 4.046e-4,9.25e-4 6.158e-4,10e-4 9.258e-4,-0.0019 0.00151,-0.0038 0.00257,-0.0056 z m 0.012828,0.007 c 2.207e-4,0.0022 4.309e-4,0.0046 6.158e-4,0.0067 l 5.149e-4,-5.26e-4 c 0.0022,-0.0013 0.00404,-0.0015 0.00564,-0.0015 -8.4e-5,-8.72e-4 1.209e-4,-0.0019 0,-0.0027 -4.66e-5,-3.16e-4 5.26e-5,-7.99e-4 0,-9.25e-4 h -5.149e-4 c -0.00196,-3.15e-4 -0.0036,-10e-4 -0.00564,-10e-4 z m -0.0079,0.0311 -1.051e-4,1.05e-4 1.051e-4,1.05e-4 h 1.051e-4 c 1.32e-5,-5e-5 -8.93e-5,-1.05e-4 -1.051e-4,-2.1e-4 z" />
    </clipPath>
    <linearGradient
       inkscape:collect="always"
       xlink:href="#linearGradient17355"
       id="linearGradient17342-0"
       gradientUnits="userSpaceOnUse"
       x1="2.6796248"
       y1="12.585118"
       x2="4.4916534"
       y2="12.585118"
       gradientTransform="translate(1.2473138,-0.09311906)" />
    <clipPath
       clipPathUnits="userSpaceOnUse"
       id="clipPath20741-2">
      <path
         id="path20743-4"
         style="fill:#ff0000;fill-opacity:1;fill-rule:nonzero;stroke:none;stroke-width:0.264583"
         d="m 2.7228002,11.409588 v 1.533807 h 1.316246 v -0.09718 c -0.00356,-0.0011 -0.00737,-0.0023 -0.010878,-0.0036 v 5.25e-4 c -4.676e-4,-1.57e-4 -8.549e-4,-4.2e-4 -0.00123,-6.14e-4 h -0.00195 c -7.188e-4,0 -0.00113,-2.63e-4 -0.00133,-6.15e-4 h -6.158e-4 -0.00195 c -4.782e-4,0 -9.921e-4,-2.1e-4 -0.00123,-4.2e-4 -2.154e-4,-2.63e-4 -2.784e-4,-6.36e-4 -1.05e-4,-9.25e-4 -6.31e-5,-3.68e-4 2.49e-5,-8.57e-4 4.098e-4,-0.0011 -0.00773,-0.0017 -0.00708,-0.0097 8.212e-4,-0.01006 5.56e-4,-3.1e-5 0.00142,-5e-5 0.00205,0 0.00306,2.63e-4 0.00618,10e-4 0.00924,0.0015 -6.348e-4,-0.0012 -0.00112,-0.0033 -5.15e-4,-0.0047 9.526e-4,-0.0011 0.00349,-0.0028 0.00575,-0.0031 h 5.15e-4 c 1.839e-4,-2.63e-4 7.524e-4,-3.68e-4 0.00103,-6.15e-4 v -0.01498 c -0.00127,-0.0015 -0.00248,-0.0031 -0.00369,-0.0046 -0.00326,-0.0042 -0.00641,-0.0086 -0.00872,-0.01344 -0.00279,-0.0057 -3.1e-4,-0.0096 0.00308,-0.0095 9.264e-4,2.5e-5 0.00212,4.21e-4 0.00308,9.25e-4 0.00143,-7.14e-4 0.00375,-0.0011 0.00626,-6.15e-4 v -1.370328 z" />
    </clipPath>
    <linearGradient
       inkscape:collect="always"
       xlink:href="#linearGradient17355"
       id="linearGradient17357-6"
       x1="4.3521891"
       y1="12.535544"
       x2="4.4411697"
       y2="12.535544"
       gradientUnits="userSpaceOnUse"
       gradientTransform="matrix(0.22743278,0,0,0.2277987,3.0280403,10.010582)" />
    <clipPath
       clipPathUnits="userSpaceOnUse"
       id="clipPath20785-1">
      <path
         id="path20787-9"
         style="fill:#ff0000;fill-opacity:1;fill-rule:nonzero;stroke:none;stroke-width:0.264583"
         d="m 4.0178032,12.82661 v 0.0036 c 9.263e-4,-4.73e-4 0.0018,-10e-4 0.00318,-10e-4 5.553e-4,-3.1e-5 0.00142,-5e-5 0.00205,0 0.00304,2.62e-4 0.0062,0.0011 0.00924,0.0016 -5.822e-4,-0.0011 -8.77e-4,-0.0029 -5.149e-4,-0.0041 z m 0,0.01211 v 0.05306 h 0.058906 v -0.03725 c -2.312e-4,-4e-5 -5.044e-4,-5.3e-5 -7.183e-4,-1.05e-4 -3.152e-4,-5.3e-5 -6.058e-4,-1.05e-4 -9.237e-4,-2.1e-4 -2.785e-4,-5.3e-5 -5.427e-4,-1.06e-4 -8.212e-4,-2.11e-4 -3.573e-4,-5.2e-5 -7.714e-4,-2.1e-4 -0.00113,-3.15e-4 -3.572e-4,-1.05e-4 -6.688e-4,-2.1e-4 -0.00103,-3.15e-4 -2.995e-4,-5.3e-5 -6.258e-4,-1.05e-4 -9.237e-4,-2.1e-4 -2.995e-4,-5.3e-5 -5.255e-4,-2.11e-4 -8.213e-4,-3.16e-4 -2.364e-4,-5.2e-5 -4.781e-4,-1.57e-4 -7.182e-4,-2.1e-4 -2.365e-4,-1.05e-4 -4.624e-4,-1.57e-4 -7.183e-4,-2.1e-4 -3.363e-4,-1.05e-4 -7.083e-4,-2.1e-4 -0.00103,-3.15e-4 -1.996e-4,-1.05e-4 -3.152e-4,-5.3e-5 -5.149e-4,-1.05e-4 -2.995e-4,-2.1e-5 -6.457e-4,-4.5e-5 -9.237e-4,-1.05e-4 -3.363e-4,-5.3e-5 -6.058e-4,-2.11e-4 -9.237e-4,-3.16e-4 -2.995e-4,-4e-5 -5.428e-4,-1.05e-4 -8.213e-4,-2.1e-4 -1.208e-4,-3.6e-5 -2.784e-4,-1.05e-4 -4.098e-4,-1.05e-4 -2.785e-4,6e-6 -5.428e-4,-1.1e-5 -8.212e-4,-1.05e-4 -1.997e-4,-4e-5 -4.256e-4,-2.1e-4 -6.158e-4,-3.15e-4 3.97e-5,4.7e-5 -3.416e-4,-5.3e-5 -4.099e-4,-1.05e-4 -1.366e-4,-5.3e-5 -3.573e-4,1.5e-5 -5.149e-4,0 -2.995e-4,2e-6 -6.258e-4,-1.58e-4 -9.237e-4,-2.1e-4 -2.575e-4,-5.3e-5 -4.414e-4,-1.58e-4 -7.183e-4,-2.11e-4 -2.785e-4,-5.2e-5 -6.457e-4,-1.57e-4 -9.237e-4,-2.1e-4 -2.995e-4,-5.2e-5 -5.254e-4,-2.1e-4 -8.212e-4,-3.15e-4 -2.207e-4,-1.05e-4 -4.992e-4,-1.05e-4 -7.183e-4,-2.1e-4 -1.103e-4,-4.9e-5 -2.049e-4,-1.05e-4 -3.1e-4,-1.05e-4 -7.88e-5,-6e-6 -1.261e-4,5e-6 -2.049e-4,0 -3.97e-5,-5e-6 -6.31e-5,5e-6 -1.051e-4,0 -6.83e-5,-4e-6 -1.366e-4,4e-6 -2.049e-4,0 -8.94e-5,-1.4e-5 -2.155e-4,-1.05e-4 -3.1e-4,-1.05e-4 -3.31e-5,-3e-6 -6.83e-5,2e-6 -1.051e-4,0 -3.43e-5,-7e-6 -6.83e-5,7e-6 -1.051e-4,0 -4.729e-4,-2.5e-5 -9.642e-4,-5.3e-5 -0.00144,-1.06e-4 -0.0023,-3.67e-4 -0.00486,-8.45e-4 -0.00718,-9.24e-4 -0.00314,-4.21e-4 -0.00583,-0.0013 -0.00883,-0.0023 -0.00356,-0.0011 -0.00737,-0.0023 -0.010878,-0.0036 v 5.26e-4 c -4.834e-4,-1.58e-4 -8.481e-4,-3.68e-4 -0.00123,-6.15e-4 h -0.00195 c -7.188e-4,0 -0.00113,-2.63e-4 -0.00133,-6.15e-4 h -6.158e-4 -0.00195 c -0.00128,0 -0.00168,-7.88e-4 -0.00133,-0.0013 -6.31e-5,-3.68e-4 2.56e-5,-7.83e-4 4.098e-4,-10e-4 -8.911e-4,-1.57e-4 -0.00165,-4.73e-4 -0.00236,-8.2e-4 z" />
    </clipPath>
    <linearGradient
       inkscape:collect="always"
       xlink:href="#linearGradient22557"
       id="linearGradient22559"
       x1="38.023844"
       y1="1.4376011"
       x2="43.74728"
       y2="1.4376011"
       gradientUnits="userSpaceOnUse" />
    <linearGradient
       inkscape:collect="always"
       xlink:href="#linearGradient22557"
       id="linearGradient22559-8"
       x1="38.023846"
       y1="1.4376011"
       x2="43.74728"
       y2="1.4376011"
       gradientUnits="userSpaceOnUse" />
    <linearGradient
       inkscape:collect="always"
       xlink:href="#linearGradient22557"
       id="linearGradient22559-0"
       x1="38.023846"
       y1="1.4376011"
       x2="43.74728"
       y2="1.4376011"
       gradientUnits="userSpaceOnUse" />
    <linearGradient
       inkscape:collect="always"
       xlink:href="#linearGradient22557"
       id="linearGradient22559-0-6"
       x1="38.023846"
       y1="1.4376011"
       x2="43.74728"
       y2="1.4376011"
       gradientUnits="userSpaceOnUse" />
  </defs>
  <g
     inkscape:label="Warstwa 1"
     inkscape:groupmode="layer"
     id="layer1">
    <path
       sodipodi:type="spiral"
       style="fill:none;fill-opacity:1;fill-rule:evenodd;stroke:url(#linearGradient22559-0);stroke-width:0.50033;stroke-linecap:round;stroke-dasharray:none"
       id="path22541-5"
       sodipodi:cx="40.726868"
       sodipodi:cy="4.0224066"
       sodipodi:expansion="0"
       sodipodi:revolution="0.31"
       sodipodi:radius="3.4715228"
       sodipodi:argument="-2.4632721"
       sodipodi:t0="0"
       d="m 38.023844,1.8440737 c 1.186609,-1.47242466 3.408932,-1.71129935 4.881357,-0.5246907 0.339845,0.2738768 0.62692,0.611964 0.842079,0.9917136"
       transform="matrix(1.6930735,0.99291748,-0.58965081,2.8509808,-59.153196,-40.704581)" />
    <path
       sodipodi:type="spiral"
       style="fill:none;fill-opacity:1;fill-rule:evenodd;stroke:url(#linearGradient22559-0-6);stroke-width:0.50033;stroke-linecap:round;stroke-dasharray:none"
       id="path22541-5-9"
       sodipodi:cx="40.726868"
       sodipodi:cy="4.0224066"
       sodipodi:expansion="0"
       sodipodi:revolution="0.31"
       sodipodi:radius="3.4715228"
       sodipodi:argument="-2.4632721"
       sodipodi:t0="0"
       d="m 38.023844,1.8440737 c 1.186609,-1.47242466 3.408932,-1.71129935 4.881357,-0.5246907 0.339845,0.2738768 0.62692,0.611964 0.842079,0.9917136"
       transform="matrix(-1.6930748,0.99291752,0.58965124,2.8509808,89.153179,-40.704583)" />
    <ellipse
       style="fill:#000000;fill-opacity:1;stroke-width:0;stroke-dasharray:none"
       id="path1892"
       cx="15"
       cy="24.187658"
       rx="15"
       ry="15.118793" />
    <path
       style="fill:#ffffff;fill-opacity:0;stroke:url(#linearGradient17310);stroke-width:0.1;stroke-dasharray:none"
       id="path13568"
       sodipodi:type="arc"
       sodipodi:cx="3.358444"
       sodipodi:cy="12.052034"
       sodipodi:rx="1.1332082"
       sodipodi:ry="1.085"
       sodipodi:start="0.82379541"
       sodipodi:end="3.6878807"
       sodipodi:arc-type="arc"
       d="M 4.1283924,12.848131 A 1.1332082,1.085 0 0 1 2.6414571,12.89225 1.1332082,1.085 0 0 1 2.3901643,11.488356"
       sodipodi:open="true"
       clip-path="url(#clipPath20775)"
       transform="matrix(5.0355474,0,0,5.0754266,-6.9554471,-22.93068)" />
    <path
       style="fill:#ffffff;fill-opacity:0;stroke:url(#linearGradient17342);stroke-width:0.1;stroke-dasharray:none"
       id="path13568-6"
       sodipodi:type="arc"
       sodipodi:cx="4.6057572"
       sodipodi:cy="11.958917"
       sodipodi:rx="1.8329999"
       sodipodi:ry="0.98500001"
       sodipodi:start="1.8901916"
       sodipodi:end="3.6878807"
       sodipodi:arc-type="arc"
       d="M 4.030209,12.894101 A 1.8329999,0.98500001 0 0 1 2.8854996,12.299035 1.8329999,0.98500001 0 0 1 3.0395342,11.44719"
       sodipodi:open="true"
       clip-path="url(#clipPath20741)"
       transform="matrix(5.0355474,0,0,5.0754266,-6.9554471,-22.93068)" />
    <ellipse
       style="fill:#000000;fill-opacity:1;stroke:url(#linearGradient17357);stroke-width:0;stroke-dasharray:none"
       id="path17351"
       cx="4.0473704"
       cy="12.859128"
       rx="0.029499814"
       ry="0.032725666"
       clip-path="url(#clipPath20785)"
       transform="matrix(5.0355474,0,0,5.0754266,-6.9554471,-22.93068)" />
    <path
       style="fill:#000000;fill-opacity:1;stroke-width:0;stroke-dasharray:none"
       d="M 9.7091545,43.483093 C 7.788506,43.398266 6.052089,42.342903 5.1481596,40.710992 c -0.35955,-0.649113 -0.565266,-1.332285 -0.629928,-2.09195 -0.01033,-0.121318 -0.014,-0.509941 -0.0061,-0.649537 0.03498,-0.621499 0.177137,-1.215367 0.426904,-1.783467 0.07395,-0.16821 0.231568,-0.470869 0.308028,-0.591488 l 0.01961,-0.03093 H 6.439398 7.612122 l -0.01544,0.01915 c -0.285874,0.354613 -0.484312,0.690241 -0.631494,1.068074 -0.185774,0.476904 -0.251389,0.989732 -0.189626,1.482046 0.125833,1.003003 0.748905,1.951021 1.809158,2.752676 0.724566,0.547846 1.644905,1.014508 2.701091,1.369603 0.476551,0.160218 1.06942,0.322025 1.504018,0.410477 0.03618,0.0074 0.06577,0.01478 0.06577,0.01651 0,0.0033 -0.13314,0.08029 -0.245554,0.141985 -0.142818,0.07839 -0.369298,0.183974 -0.555419,0.258942 -0.737414,0.297033 -1.547819,0.435249 -2.3454315,0.400024 z"
       id="path21638" />
    <path
       style="fill:#000000;fill-opacity:1;stroke-width:0;stroke-dasharray:none"
       d="m 9.8714305,43.997981 c -0.130953,-0.0016 -0.2591535,-0.0076 -0.3963575,-0.01816 -0.01819,-0.0013 -0.03575,-0.0028 -0.03902,-0.0032 l -0.0059,-5.34e-4 v -0.254219 -0.25422 l 0.0065,5.35e-4 c 0.06568,0.0068 0.20231,0.01573 0.2953305,0.01941 0.06969,0.0027 0.09486,0.0032 0.188619,0.0038 0.1363925,8e-4 0.2350425,-0.0016 0.3581175,-0.0086 0.876336,-0.04995 1.728778,-0.30344 2.481394,-0.737895 0.015,-0.0087 0.02745,-0.01576 0.02765,-0.01576 2.03e-4,0 2.51e-4,0.129926 1.08e-4,0.288723 l -2.61e-4,0.288719 -0.04857,0.02481 c -0.786144,0.401404 -1.651676,0.627076 -2.540414,0.662366 -0.06848,0.0027 -0.2101145,0.0055 -0.2552805,0.005 -0.008,-8.3e-5 -0.04028,-5.33e-4 -0.07183,-8e-4 z"
       id="path21640" />
    <path
       style="fill:#000000;fill-opacity:1;stroke-width:0;stroke-dasharray:none"
       d="m 9.8445585,43.490096 c -0.11495,-0.003 -0.1761015,-0.0057 -0.2619985,-0.01141 -0.06117,-0.004 -0.151277,-0.01144 -0.152329,-0.01251 -0.0016,-0.0016 0.0041,-0.0013 0.0316,0.0011 0.2508215,0.022 0.5013255,0.02723 0.751178,0.0157 0.609302,-0.0281 1.217499,-0.15618 1.779737,-0.374785 0.20941,-0.08142 0.456209,-0.194966 0.623734,-0.286962 0.0401,-0.02202 0.09484,-0.05276 0.136068,-0.0764 0.01885,-0.0108 0.03454,-0.01965 0.03488,-0.01965 3.44e-4,0 6.09e-4,5.33e-4 5.82e-4,0.0013 -3.4e-5,0.0013 -0.03088,0.01936 -0.08885,0.05185 -0.151211,0.08472 -0.305069,0.16172 -0.463073,0.231758 -0.565039,0.250456 -1.170354,0.405922 -1.790536,0.459874 -0.103344,0.009 -0.191625,0.01419 -0.320911,0.01891 -0.02784,0.0011 -0.2521375,0.0021 -0.2800855,0.0013 z"
       id="path21642" />
    <path
       style="fill:#ffffff;fill-opacity:0;stroke:url(#linearGradient17310-5);stroke-width:0.1;stroke-dasharray:none"
       id="path13568-2"
       sodipodi:type="arc"
       sodipodi:cx="3.358444"
       sodipodi:cy="12.052034"
       sodipodi:rx="1.1332082"
       sodipodi:ry="1.085"
       sodipodi:start="0.82379541"
       sodipodi:end="3.6878807"
       sodipodi:arc-type="arc"
       d="M 4.1283924,12.848131 A 1.1332082,1.085 0 0 1 2.6414571,12.89225 1.1332082,1.085 0 0 1 2.3901643,11.488356"
       sodipodi:open="true"
       clip-path="url(#clipPath20775-8)"
       transform="matrix(-5.0355474,0,0,5.0754266,36.955307,-22.930474)" />
    <path
       style="fill:#ffffff;fill-opacity:0;stroke:url(#linearGradient17342-0);stroke-width:0.1;stroke-dasharray:none"
       id="path13568-6-4"
       sodipodi:type="arc"
       sodipodi:cx="4.6057572"
       sodipodi:cy="11.958917"
       sodipodi:rx="1.8329999"
       sodipodi:ry="0.98500001"
       sodipodi:start="1.8901916"
       sodipodi:end="3.6878807"
       sodipodi:arc-type="arc"
       d="M 4.030209,12.894101 A 1.8329999,0.98500001 0 0 1 2.8854996,12.299035 1.8329999,0.98500001 0 0 1 3.0395342,11.44719"
       sodipodi:open="true"
       clip-path="url(#clipPath20741-2)"
       transform="matrix(-5.0355474,0,0,5.0754266,36.955307,-22.930474)" />
    <path
       style="fill:#ffffff;fill-opacity:0;stroke-width:0.505576;stroke-dasharray:none"
       id="path17345-4"
       sodipodi:type="arc"
       sodipodi:cx="-23.063046"
       sodipodi:cy="36.954178"
       sodipodi:rx="0.57685006"
       sodipodi:ry="0.15101933"
       sodipodi:start="1.8901916"
       sodipodi:end="3.6878807"
       sodipodi:open="true"
       sodipodi:arc-type="arc"
       d="m -23.244172,37.097559 a 0.57685006,0.15101933 0 0 1 -0.360243,-0.09123 0.57685006,0.15101933 0 0 1 0.04847,-0.130605"
       transform="scale(-1,1)" />
    <path
       style="fill:#ffffff;fill-opacity:0;stroke-width:0.505576;stroke-dasharray:none"
       id="path17347-6"
       sodipodi:type="arc"
       sodipodi:cx="-17.298363"
       sodipodi:cy="41.472401"
       sodipodi:rx="0.62973005"
       sodipodi:ry="0.68979609"
       sodipodi:start="1.8901916"
       sodipodi:end="3.6878807"
       sodipodi:open="true"
       sodipodi:arc-type="arc"
       d="m -17.496093,42.127311 a 0.62973005,0.68979609 0 0 1 -0.393267,-0.416725 0.62973005,0.68979609 0 0 1 0.05292,-0.596548"
       transform="scale(-1,1)" />
    <ellipse
       style="fill:#000000;fill-opacity:1;stroke:url(#linearGradient17357-6);stroke-width:0;stroke-dasharray:none"
       id="path17351-4"
       cx="4.0473704"
       cy="12.859128"
       rx="0.029499814"
       ry="0.032725666"
       clip-path="url(#clipPath20785-1)"
       transform="matrix(-5.0355474,0,0,5.0754266,36.955307,-22.930474)" />
    <rect
       style="fill:#000000;fill-opacity:1;stroke-width:0;stroke-dasharray:none"
       id="rect20841-0"
       width="2.9700518"
       height="0.58242208"
       x="-24.794472"
       y="34.978443"
       transform="scale(-1,1)" />
    <path
       style="fill:#000000;fill-opacity:1;stroke-width:0;stroke-dasharray:none"
       d="m 20.290705,43.483299 c 1.920649,-0.08483 3.657066,-1.14019 4.560995,-2.772102 0.35955,-0.649112 0.565266,-1.332284 0.629928,-2.09195 0.01033,-0.121317 0.014,-0.509941 0.0061,-0.649536 -0.03498,-0.6215 -0.177137,-1.215367 -0.426904,-1.783468 -0.07395,-0.168209 -0.231568,-0.470869 -0.308028,-0.591487 l -0.01961,-0.03093 h -1.172724 -1.172724 l 0.01544,0.01915 c 0.285874,0.354613 0.484312,0.690242 0.631494,1.068074 0.185774,0.476905 0.251389,0.989733 0.189626,1.482046 -0.125833,1.003003 -0.748905,1.951022 -1.809158,2.752677 -0.724566,0.547846 -1.644906,1.014507 -2.701092,1.369602 -0.476551,0.160218 -1.06942,0.322026 -1.504018,0.410478 -0.03618,0.0074 -0.06577,0.01478 -0.06577,0.01651 0,0.0033 0.13314,0.08029 0.245554,0.141986 0.142818,0.07839 0.369298,0.183973 0.555419,0.258941 0.737414,0.297033 1.547819,0.435249 2.345432,0.400025 z"
       id="path21638-4" />
    <path
       style="fill:#000000;fill-opacity:1;stroke-width:0;stroke-dasharray:none"
       d="m 20.128429,43.998186 c 0.130953,-0.0016 0.259154,-0.0076 0.396358,-0.01816 0.01819,-0.0013 0.03575,-0.0028 0.03902,-0.0032 l 0.0059,-5.34e-4 v -0.25422 -0.254219 l -0.0065,5.34e-4 c -0.06568,0.0068 -0.20231,0.01573 -0.295331,0.01941 -0.06969,0.0027 -0.09486,0.0032 -0.188619,0.0038 -0.136393,8e-4 -0.235043,-0.0016 -0.358118,-0.0086 -0.876336,-0.04995 -1.728778,-0.30344 -2.481394,-0.737894 -0.015,-0.0087 -0.02745,-0.01576 -0.02765,-0.01576 -2.03e-4,0 -2.51e-4,0.129926 -1.08e-4,0.288722 l 2.61e-4,0.28872 0.04857,0.02481 c 0.786144,0.401404 1.651676,0.627076 2.540414,0.662365 0.06848,0.0027 0.210115,0.0055 0.255281,0.005 0.008,-8.3e-5 0.04028,-5.33e-4 0.07183,-8.01e-4 z"
       id="path21640-6" />
    <path
       style="fill:#000000;fill-opacity:1;stroke-width:0;stroke-dasharray:none"
       d="m 20.155301,43.490302 c 0.11495,-0.003 0.176102,-0.0057 0.261999,-0.01141 0.06117,-0.004 0.151277,-0.01144 0.152329,-0.01251 0.0016,-0.0016 -0.0041,-0.0013 -0.0316,0.0011 -0.250822,0.022 -0.501326,0.02723 -0.751179,0.0157 -0.609302,-0.0281 -1.217499,-0.15618 -1.779737,-0.374785 -0.20941,-0.08142 -0.456209,-0.194966 -0.623734,-0.286963 -0.0401,-0.02202 -0.09484,-0.05275 -0.136068,-0.0764 -0.01885,-0.0108 -0.03454,-0.01966 -0.03488,-0.01966 -3.44e-4,0 -6.09e-4,5.34e-4 -5.82e-4,0.0013 3.4e-5,0.0013 0.03088,0.01936 0.08885,0.05185 0.151211,0.08472 0.305069,0.16172 0.463073,0.231758 0.565039,0.250456 1.170354,0.405922 1.790536,0.459873 0.103344,0.009 0.191625,0.01419 0.320911,0.01891 0.02784,0.0011 0.252138,0.0021 0.280086,0.0013 z"
       id="path21642-3" />
    <ellipse
       style="fill:#ffffff;fill-opacity:1;stroke-width:0;stroke-dasharray:none"
       id="path22488"
       cx="9.0154572"
       cy="22.351484"
       rx="4.0154572"
       ry="3.8020349" />
    <ellipse
       style="fill:#000000;fill-opacity:1;stroke-width:0;stroke-dasharray:none"
       id="path22512"
       cx="9.0154572"
       cy="21.97127"
       rx="2.0077286"
       ry="1.520816" />
    <path
       sodipodi:type="spiral"
       style="fill:none;fill-opacity:1;fill-rule:evenodd;stroke:url(#linearGradient22559);stroke-width:0.50033;stroke-linecap:round;stroke-dasharray:none"
       id="path22541"
       sodipodi:cx="40.726868"
       sodipodi:cy="4.0224066"
       sodipodi:expansion="0"
       sodipodi:revolution="0.31"
       sodipodi:radius="3.4715228"
       sodipodi:argument="-2.4632721"
       sodipodi:t0="0"
       d="m 38.023844,1.8440737 c 1.186609,-1.47242466 3.408932,-1.71129935 4.881357,-0.5246907 0.339845,0.2738768 0.62692,0.611964 0.842079,0.9917136"
       transform="matrix(1.3044847,0.49473867,-0.45431604,1.4205514,-42.4745,-4.206202)" />
    <ellipse
       style="fill:#ffffff;fill-opacity:1;stroke-width:0;stroke-dasharray:none"
       id="path22488-6"
       cx="-20.984543"
       cy="22.351353"
       rx="4.0154519"
       ry="3.8020349"
       transform="scale(-1,1)" />
    <ellipse
       style="fill:#000000;fill-opacity:1;stroke-width:0;stroke-dasharray:none"
       id="path22512-6"
       cx="-20.984543"
       cy="21.971151"
       rx="2.007726"
       ry="1.5208162"
       transform="scale(-1,1)" />
    <path
       sodipodi:type="spiral"
       style="fill:none;fill-opacity:1;fill-rule:evenodd;stroke:url(#linearGradient22559-8);stroke-width:0.50033;stroke-linecap:round;stroke-dasharray:none"
       id="path22541-3"
       sodipodi:cx="40.726868"
       sodipodi:cy="4.0224066"
       sodipodi:expansion="0"
       sodipodi:revolution="0.31"
       sodipodi:radius="3.4715228"
       sodipodi:argument="-2.4632721"
       sodipodi:t0="0"
       d="m 38.023844,1.8440737 c 1.186609,-1.47242466 3.408932,-1.71129935 4.881357,-0.5246907 0.339845,0.2738768 0.62692,0.611964 0.842079,0.9917136"
       transform="matrix(-1.3044829,0.49473868,0.45431546,1.4205514,72.474411,-4.20633)" />
    <ellipse
       style="fill:#000000;fill-opacity:1;stroke-width:0.548032;stroke-linecap:round;stroke-dasharray:none"
       id="path24981"
       cx="3.9708295"
       cy="3.0005152"
       rx="1.9708301"
       ry="2.3903408" />
    <ellipse
       style="fill:#000000;fill-opacity:1;stroke-width:0.548032;stroke-linecap:round;stroke-dasharray:none"
       id="path24981-9"
       cx="-26.029099"
       cy="3.0005162"
       rx="1.9708315"
       ry="2.3903406"
       transform="scale(-1,1)" />
  </g>
</svg>
