<?xml version="1.0" encoding="UTF-8" standalone="no"?>
<!-- Created with Inkscape (http://www.inkscape.org/) -->

<svg
   width="210mm"
   height="297mm"
   viewBox="0 0 210 297"
   version="1.1"
   id="svg5"
   inkscape:version="1.2 (dc2aedaf03, 2022-05-15)"
   sodipodi:docname="rysunekRedAnt.svg"
   inkscape:export-filename="RedAnt.png"
   inkscape:export-xdpi="57.724106"
   inkscape:export-ydpi="57.724106"
   xmlns:inkscape="http://www.inkscape.org/namespaces/inkscape"
   xmlns:sodipodi="http://sodipodi.sourceforge.net/DTD/sodipodi-0.dtd"
   xmlns:xlink="http://www.w3.org/1999/xlink"
   xmlns="http://www.w3.org/2000/svg"
   xmlns:svg="http://www.w3.org/2000/svg">
  <sodipodi:namedview
     id="namedview7"
     pagecolor="#505050"
     bordercolor="#ffffff"
     borderopacity="1"
     inkscape:showpageshadow="0"
     inkscape:pageopacity="0"
     inkscape:pagecheckerboard="1"
     inkscape:deskcolor="#505050"
     inkscape:document-units="mm"
     showgrid="false"
     inkscape:zoom="5.6568543"
     inkscape:cx="121.18042"
     inkscape:cy="92.630988"
     inkscape:window-width="2560"
     inkscape:window-height="1346"
     inkscape:window-x="-11"
     inkscape:window-y="-11"
     inkscape:window-maximized="1"
     inkscape:current-layer="layer1" />
  <defs
     id="defs2">
    <linearGradient
       id="linearGradient22557"
       inkscape:swatch="solid">
      <stop
         style="stop-color:#a80000;stop-opacity:1;"
         offset="0"
         id="stop22555" />
    </linearGradient>
    <linearGradient
       id="linearGradient22549"
       inkscape:swatch="solid">
      <stop
         style="stop-color:#000000;stop-opacity:1;"
         offset="0"
         id="stop22547" />
    </linearGradient>
    <linearGradient
       id="linearGradient17355"
       inkscape:swatch="solid">
      <stop
         style="stop-color:#000000;stop-opacity:1;"
         offset="0"
         id="stop17353" />
    </linearGradient>
    <linearGradient
       id="linearGradient17308"
       inkscape:swatch="solid">
      <stop
         style="stop-color:#000000;stop-opacity:1;"
         offset="0"
         id="stop17306" />
    </linearGradient>
    <linearGradient
       id="linearGradient13572"
       inkscape:swatch="solid">
      <stop
         style="stop-color:#000000;stop-opacity:1;"
         offset="0"
         id="stop13570" />
    </linearGradient>
    <linearGradient
       id="linearGradient4924"
       inkscape:swatch="solid">
      <stop
         style="stop-color:#000000;stop-opacity:1;"
         offset="0"
         id="stop4922" />
    </linearGradient>
    <linearGradient
       id="linearGradient4246"
       inkscape:swatch="solid"
       gradientTransform="matrix(0,0,0,0,65.786967,143.53265)">
      <stop
         style="stop-color:#a80000;stop-opacity:1;"
         offset="0"
         id="stop4244" />
    </linearGradient>
    <linearGradient
       id="linearGradient3141"
       inkscape:swatch="solid">
      <stop
         style="stop-color:#000000;stop-opacity:1;"
         offset="0"
         id="stop3139" />
    </linearGradient>
    <linearGradient
       id="linearGradient1130"
       inkscape:swatch="solid">
      <stop
         style="stop-color:#3d4391;stop-opacity:1;"
         offset="0"
         id="stop1128" />
    </linearGradient>
    <linearGradient
       inkscape:collect="always"
       xlink:href="#linearGradient22557"
       id="linearGradient17310"
       x1="2.6796248"
       y1="12.585118"
       x2="4.4916534"
       y2="12.585118"
       gradientUnits="userSpaceOnUse" />
    <linearGradient
       inkscape:collect="always"
       xlink:href="#linearGradient22557"
       id="linearGradient17342"
       gradientUnits="userSpaceOnUse"
       x1="2.6796248"
       y1="12.585118"
       x2="4.4916534"
       y2="12.585118"
       gradientTransform="translate(1.2473138,-0.09311906)" />
    <linearGradient
       inkscape:collect="always"
       xlink:href="#linearGradient17355"
       id="linearGradient17357"
       x1="4.352189"
       y1="12.535544"
       x2="4.4411696"
       y2="12.535544"
       gradientUnits="userSpaceOnUse"
       gradientTransform="matrix(0.22743278,0,0,0.2277987,3.0280403,10.010582)" />
    <clipPath
       clipPathUnits="userSpaceOnUse"
       id="clipPath20439">
      <path
         id="path20441"
         style="fill:#ff0000;fill-opacity:1;fill-rule:nonzero;stroke:none;stroke-width:0.264583"
         d="M -2.2329386,8.4475463 V 14.221354 H 9.2397461 V 8.4475463 Z m 6.3608519,4.3253177 c 0.0056,-0.0015 0.00875,0.0048 0.00259,0.01033 -0.00309,0.0028 -0.00626,0.0055 -0.0093,0.0083 0.00317,0.0016 0.00646,0.003 0.0093,0.0052 0.00479,0.0035 0.00956,0.0069 0.013435,0.01137 0.00303,0.004 0.0057,0.0078 0.0062,0.01292 3.175e-4,0.0052 -5.821e-4,0.0099 -0.0031,0.01447 -0.00283,0.0043 -0.00623,0.007 -0.010853,0.0093 -0.00103,4.49e-4 -0.00185,7.14e-4 -0.00259,10e-4 8.467e-4,4.24e-4 0.00175,9.53e-4 0.00259,0.0016 0.00119,6.87e-4 0.00282,9.52e-4 0.00414,0.0016 7.144e-4,2.17e-4 2.336e-4,2.91e-4 0.00103,5.29e-4 0.00461,0.0013 0.00613,0.0043 0.00568,0.0067 3.44e-4,-10e-6 6.35e-4,-5e-6 0.00103,0 0.00164,5e-6 0.00354,3.71e-4 0.00517,5.3e-4 0.00172,3.17e-4 0.00344,3.7e-4 0.00517,5.29e-4 0.00146,1.03e-4 0.00267,-3.9e-5 0.00414,0 0.010229,2.91e-4 0.010229,0.01061 0,0.01034 -0.00164,-4.5e-5 -0.00352,1.21e-4 -0.00517,0 -0.00185,-1.54e-4 -0.00335,-6.88e-4 -0.00517,-0.001 -0.00122,-3.17e-4 -0.00289,1.96e-4 -0.00414,0 -0.0014,-2.2e-5 -0.00274,1.14e-4 -0.00414,0 -0.00169,-1.42e-4 -0.00351,-1.73e-4 -0.00517,-5.29e-4 -0.00132,-2.65e-4 -0.00228,-9e-4 -0.00362,-0.001 -0.00114,-2.13e-4 -0.00241,-4.5e-4 -0.0031,-5.29e-4 -0.0014,-1.41e-4 -0.00277,-1.48e-4 -0.00414,-5.29e-4 -0.00119,-2.91e-4 -0.00238,-9.53e-4 -0.00362,-10e-4 -0.00135,-2.11e-4 -0.00282,-1.33e-4 -0.00414,-5.29e-4 -0.00193,-1.73e-4 -0.0038,-5.56e-4 -0.00568,-10e-4 -0.00167,-3.97e-4 -0.00346,-8.47e-4 -0.00517,-10e-4 -0.00159,-2.91e-4 -0.00306,2.45e-4 -0.00465,0 -0.00204,-1.53e-4 -0.0042,-6.61e-4 -0.0062,-0.001 -5.027e-4,-1.12e-4 -0.00103,-4.23e-4 -0.00156,-5.03e-4 -5.291e-4,-5e-6 -0.00103,4.1e-5 -0.00156,0 -3.704e-4,-5.6e-5 -6.615e-4,-4.76e-4 -0.00103,-5.29e-4 -6.879e-4,-8.4e-5 -0.00138,1.31e-4 -0.00206,0 -6.88e-4,-1.31e-4 -0.0014,1.66e-4 -0.00206,0 -0.00111,-3.44e-4 -0.00206,-0.0011 -0.0031,-0.0016 -8.731e-4,-3.17e-4 -0.00175,-3.7e-4 -0.00259,-5.29e-4 -8.467e-4,-1.56e-4 -0.00167,-4.23e-4 -0.00259,-5.29e-4 -0.00238,-5.03e-4 -0.00488,-0.0015 -0.00723,-0.0021 -0.00161,-4.5e-4 -0.00302,-7.14e-4 -0.00465,-10e-4 -0.00146,-3.44e-4 -0.00267,-0.0012 -0.00413,-0.0016 -0.00172,-3.7e-4 -0.00342,-8.2e-4 -0.00517,-0.001 -0.00185,-3.7e-4 -0.00379,-4.49e-4 -0.00568,-5.29e-4 -0.0023,-3.44e-4 -0.00491,-8.99e-4 -0.00723,-10e-4 -0.00314,-3.97e-4 -0.00578,-0.0011 -0.00878,-0.0021 -0.00356,-0.0011 -0.00734,-0.0023 -0.010853,-0.0036 v 5.29e-4 c -0.00235,-8.47e-4 -0.00375,-0.0022 -0.00465,-0.0036 -5.028e-4,-4.2e-5 -0.00103,3e-5 -0.00156,0 -0.00956,-8.47e-4 -0.0095,-0.0099 -0.00103,-0.01034 5.557e-4,-3.1e-5 0.00143,-5e-5 0.00206,0 0.00307,2.64e-4 0.00623,0.0011 0.0093,0.0016 -6.35e-4,-0.0012 -0.00114,-0.0033 -5.291e-4,-0.0047 9.525e-4,-0.0011 0.00343,-0.0028 0.00569,-0.0031 h 5.291e-4 c 6.086e-4,-8.99e-4 0.00172,-0.0017 0.0031,-0.0021 0.00127,-3.17e-4 0.00329,-4.23e-4 0.00517,0 0.00293,6.09e-4 0.00543,0.0014 0.00827,0.0021 3.175e-4,7.2e-5 7.144e-4,-7.1e-5 0.00103,0 -3.704e-4,-3.17e-4 -6.35e-4,-7.41e-4 -0.00103,-10e-4 -0.00299,-0.0025 -0.00601,-0.0053 -0.00878,-0.0077 -0.00366,-0.0036 -0.0071,-0.0074 -0.010335,-0.01137 -0.00326,-0.0042 -0.00647,-0.0086 -0.00878,-0.01344 -0.00279,-0.0058 -2.91e-4,-0.0099 0.0031,-0.0098 9.26e-4,2.4e-5 0.00214,5.82e-4 0.0031,10e-4 0.00143,-7.14e-4 0.00369,-9.79e-4 0.0062,-5.29e-4 5.821e-4,1.09e-4 9.79e-4,3.7e-4 0.00156,5.29e-4 0.00119,2.63e-4 0.00238,5.1e-5 0.00362,0 h 0.00517 0.00517 0.00568 c 0.00238,0 0.00484,-6e-6 0.00723,0 0.00275,5e-6 0.00552,-3.5e-5 0.00827,0 0.00297,3.8e-5 0.00583,3.18e-4 0.00878,5.29e-4 0.00222,1.52e-4 0.00445,9.79e-4 0.00672,0.001 -0.00243,-0.0038 -0.00119,-0.0074 0.00156,-0.0083 0.00196,-6.09e-4 0.00501,3.97e-4 0.00775,0.0031 0.00289,0.0028 0.00537,0.0056 0.00775,0.0088 8.731e-4,2.91e-4 0.00169,9.26e-4 0.00259,0.001 4.762e-4,-4.5e-4 0.00106,-0.0011 0.00156,-0.0016 0.00365,-0.0033 0.00768,-0.0065 0.011369,-0.0098 0.00143,-0.0013 0.00284,-0.0022 0.00413,-0.0026 z m -0.08785,0.01809 c 0.00119,0.0018 0.00228,0.0039 0.00362,0.0057 0.00296,0.0036 0.00596,0.007 0.0093,0.01034 0.00257,0.0026 0.00498,0.0044 0.00775,0.0067 0.00188,0.0015 0.00427,0.0032 0.0062,0.0047 0.00153,0.0012 0.00307,0.0025 0.00465,0.0036 0.00122,8.73e-4 0.00238,0.0018 0.00362,0.0026 3.704e-4,1.6e-5 6.614e-4,-1.8e-5 0.00103,0 -5.82e-4,-0.0027 -8.731e-4,-0.0056 -5.291e-4,-0.0083 5.821e-4,-0.0037 0.00283,-0.0069 0.00517,-0.0098 0.00286,-0.003 0.00631,-0.0061 0.00982,-0.0077 0.00265,-0.0017 0.00547,-0.0023 0.00827,-0.0036 l 0.00103,-5.29e-4 c 5.821e-4,-2.91e-4 0.00101,-3.18e-4 0.00156,-5.29e-4 -0.00206,-5.82e-4 -0.00408,-0.0011 -0.0062,-0.0016 -0.00378,-6.88e-4 -0.00754,-10e-4 -0.011369,-10e-4 -0.00279,-1.74e-4 -0.00548,-4.76e-4 -0.00827,-5.29e-4 -0.00271,-3.2e-5 -0.00556,6e-6 -0.00827,0 -0.00238,-5e-6 -0.00487,10e-7 -0.00723,0 h -0.00568 -0.00517 -0.00517 c -0.00148,6.8e-5 -0.00265,2.16e-4 -0.00414,0 z m 0.077515,0.0098 c 8.202e-4,0.0018 0.00135,0.0039 0.00206,0.0057 3.704e-4,9.52e-4 1.526e-4,0.0021 5.291e-4,0.0031 h 5.292e-4 c 0.00127,5.55e-4 0.00249,0.0012 0.00362,0.0021 0.00204,0.002 0.00384,0.0039 0.00465,0.0067 3.969e-4,0.0019 1.9e-4,0.0038 5.292e-4,0.0057 3.175e-4,0.0023 6.35e-4,0.0049 5.292e-4,0.0072 -1.051e-4,0.0019 -4.763e-4,0.0039 -0.00103,0.0057 h 5.292e-4 c 5.027e-4,-10e-5 0.0022,-0.0012 0.00259,-0.0016 0.00271,-0.0014 0.00457,-0.0032 0.0062,-0.0057 6.879e-4,-0.0016 0.00143,-0.0034 0.00156,-0.0052 1.42e-5,-2e-4 0,-0.0026 0,-0.0026 -4.498e-4,-0.003 -0.00233,-0.0054 -0.00414,-0.0078 -0.00333,-0.0037 -0.00737,-0.0064 -0.011369,-0.0093 -0.00206,-0.0015 -0.00444,-0.0029 -0.00672,-0.0041 z m -0.025321,0.0098 c -0.00122,8.73e-4 -0.00259,0.0016 -0.00362,0.0026 2.075e-4,4.76e-4 3.44e-4,7.94e-4 5.292e-4,0.0016 1.368e-4,3.97e-4 3.175e-4,6.88e-4 5.292e-4,10e-4 9.26e-4,-0.0017 0.00161,-0.0035 0.00259,-0.0052 z m 0.01292,0.0062 c 1.77e-4,0.0021 3.44e-4,0.0042 5.292e-4,0.0062 l 5.291e-4,-5.29e-4 c 0.0022,-0.0013 0.00409,-0.0016 0.00569,-0.0016 -8.17e-5,-8.74e-4 1.207e-4,-0.0018 0,-0.0026 -4.68e-5,-3.18e-4 5.4e-5,-8.73e-4 0,-10e-4 h -5.291e-4 c -0.00196,-3.18e-4 -0.00365,-1.72e-4 -0.00569,-5.29e-4 z m -0.010335,0.01034 c -1.905e-4,4.49e-4 -3.704e-4,7.93e-4 -5.292e-4,0.0016 h 5.292e-4 5.291e-4 5.292e-4 c -2.069e-4,-4.77e-4 -3.969e-4,-7.94e-4 -5.292e-4,-0.0016 z m 0.00259,0.01912 c -3.969e-4,6.88e-4 -4.233e-4,0.0016 -0.00103,0.0021 0.00156,-1.2e-5 0.00315,1.12e-4 0.00465,-5.29e-4 -3.969e-4,-1.06e-4 -6.35e-4,-3.44e-4 -0.00103,-5.29e-4 -7.144e-4,-2.4e-4 -0.0014,-7.94e-4 -0.00206,-10e-4 z m 0.019637,0.0041 -5.292e-4,5.29e-4 c 2.148e-4,5.4e-5 3.175e-4,4.76e-4 5.292e-4,5.29e-4 0.0014,3.44e-4 0.00271,3.97e-4 0.00414,5.29e-4 -0.00114,-3.17e-4 -0.00235,-5.55e-4 -0.0031,-10e-4 -3.175e-4,-8.7e-5 -7.408e-4,-4.23e-4 -0.00103,-5.29e-4 z" />
    </clipPath>
    <clipPath
       clipPathUnits="userSpaceOnUse"
       id="clipPath20449">
      <path
         id="path20451"
         style="fill:#ff0000;fill-opacity:1;fill-rule:nonzero;stroke:none;stroke-width:0.264583"
         d="M -1.3534058,7.5080688 V 15.912724 H 10.672734 V 7.5080688 Z m 5.4813191,5.2647952 c 0.0056,-0.0015 0.00875,0.0048 0.00259,0.01033 -0.00309,0.0028 -0.00626,0.0055 -0.0093,0.0083 0.00317,0.0016 0.00646,0.003 0.0093,0.0052 0.00479,0.0035 0.00956,0.0069 0.013435,0.01137 0.00303,0.004 0.0057,0.0078 0.0062,0.01292 3.175e-4,0.0052 -5.821e-4,0.0099 -0.0031,0.01447 -0.00283,0.0043 -0.00623,0.007 -0.010853,0.0093 -0.00103,4.49e-4 -0.00185,7.14e-4 -0.00259,10e-4 8.467e-4,4.24e-4 0.00175,9.53e-4 0.00259,0.0016 0.00119,6.87e-4 0.00282,9.52e-4 0.00414,0.0016 7.144e-4,2.17e-4 2.336e-4,2.91e-4 0.00103,5.29e-4 0.00461,0.0013 0.00613,0.0043 0.00568,0.0067 3.44e-4,-10e-6 6.35e-4,-5e-6 0.00103,0 0.00164,5e-6 0.00354,3.71e-4 0.00517,5.3e-4 0.00172,3.17e-4 0.00344,3.7e-4 0.00517,5.29e-4 0.00146,1.03e-4 0.00267,-3.9e-5 0.00414,0 0.010229,2.91e-4 0.010229,0.01061 0,0.01034 -0.00164,-4.5e-5 -0.00352,1.21e-4 -0.00517,0 -0.00185,-1.54e-4 -0.00335,-6.88e-4 -0.00517,-0.001 -0.00122,-3.17e-4 -0.00289,1.96e-4 -0.00414,0 -0.0014,-2.2e-5 -0.00274,1.14e-4 -0.00414,0 -0.00169,-1.42e-4 -0.00351,-1.73e-4 -0.00517,-5.29e-4 -0.00132,-2.65e-4 -0.00228,-9e-4 -0.00362,-0.001 -0.00114,-2.13e-4 -0.00241,-4.5e-4 -0.0031,-5.29e-4 -0.0014,-1.41e-4 -0.00277,-1.48e-4 -0.00414,-5.29e-4 -0.00119,-2.91e-4 -0.00238,-9.53e-4 -0.00362,-10e-4 -0.00135,-2.11e-4 -0.00282,-1.33e-4 -0.00414,-5.29e-4 -0.00193,-1.73e-4 -0.0038,-5.56e-4 -0.00568,-10e-4 -0.00167,-3.97e-4 -0.00346,-8.47e-4 -0.00517,-10e-4 -0.00159,-2.91e-4 -0.00306,2.45e-4 -0.00465,0 -0.00204,-1.53e-4 -0.0042,-6.61e-4 -0.0062,-0.001 -5.027e-4,-1.12e-4 -0.00103,-4.23e-4 -0.00156,-5.03e-4 -5.291e-4,-5e-6 -0.00103,4.1e-5 -0.00156,0 -3.704e-4,-5.6e-5 -6.615e-4,-4.76e-4 -0.00103,-5.29e-4 -6.879e-4,-8.4e-5 -0.00138,1.31e-4 -0.00206,0 -6.88e-4,-1.31e-4 -0.0014,1.66e-4 -0.00206,0 -0.00111,-3.44e-4 -0.00206,-0.0011 -0.0031,-0.0016 -8.731e-4,-3.17e-4 -0.00175,-3.7e-4 -0.00259,-5.29e-4 -8.467e-4,-1.56e-4 -0.00167,-4.23e-4 -0.00259,-5.29e-4 -0.00238,-5.03e-4 -0.00488,-0.0015 -0.00723,-0.0021 -0.00161,-4.5e-4 -0.00302,-7.14e-4 -0.00465,-10e-4 -0.00146,-3.44e-4 -0.00267,-0.0012 -0.00413,-0.0016 -0.00172,-3.7e-4 -0.00342,-8.2e-4 -0.00517,-0.001 -0.00185,-3.7e-4 -0.00379,-4.49e-4 -0.00568,-5.29e-4 -0.0023,-3.44e-4 -0.00491,-8.99e-4 -0.00723,-10e-4 -0.00314,-3.97e-4 -0.00578,-0.0011 -0.00878,-0.0021 -0.00356,-0.0011 -0.00734,-0.0023 -0.010853,-0.0036 v 5.29e-4 c -0.00235,-8.47e-4 -0.00375,-0.0022 -0.00465,-0.0036 -5.028e-4,-4.2e-5 -0.00103,3e-5 -0.00156,0 -0.00956,-8.47e-4 -0.0095,-0.0099 -0.00103,-0.01034 5.557e-4,-3.1e-5 0.00143,-5e-5 0.00206,0 0.00307,2.64e-4 0.00623,0.0011 0.0093,0.0016 -6.35e-4,-0.0012 -0.00114,-0.0033 -5.291e-4,-0.0047 9.525e-4,-0.0011 0.00343,-0.0028 0.00569,-0.0031 h 5.291e-4 c 6.086e-4,-8.99e-4 0.00172,-0.0017 0.0031,-0.0021 0.00127,-3.17e-4 0.00329,-4.23e-4 0.00517,0 0.00293,6.09e-4 0.00543,0.0014 0.00827,0.0021 3.175e-4,7.2e-5 7.144e-4,-7.1e-5 0.00103,0 -3.704e-4,-3.17e-4 -6.35e-4,-7.41e-4 -0.00103,-10e-4 -0.00299,-0.0025 -0.00601,-0.0053 -0.00878,-0.0077 -0.00366,-0.0036 -0.0071,-0.0074 -0.010335,-0.01137 -0.00326,-0.0042 -0.00647,-0.0086 -0.00878,-0.01344 -0.00279,-0.0058 -2.91e-4,-0.0099 0.0031,-0.0098 9.26e-4,2.4e-5 0.00214,5.82e-4 0.0031,10e-4 0.00143,-7.14e-4 0.00369,-9.79e-4 0.0062,-5.29e-4 5.821e-4,1.09e-4 9.79e-4,3.7e-4 0.00156,5.29e-4 0.00119,2.63e-4 0.00238,5.1e-5 0.00362,0 h 0.00517 0.00517 0.00568 c 0.00238,0 0.00484,-6e-6 0.00723,0 0.00275,5e-6 0.00552,-3.5e-5 0.00827,0 0.00297,3.8e-5 0.00583,3.18e-4 0.00878,5.29e-4 0.00222,1.52e-4 0.00445,9.79e-4 0.00672,0.001 -0.00243,-0.0038 -0.00119,-0.0074 0.00156,-0.0083 0.00196,-6.09e-4 0.00501,3.97e-4 0.00775,0.0031 0.00289,0.0028 0.00537,0.0056 0.00775,0.0088 8.731e-4,2.91e-4 0.00169,9.26e-4 0.00259,0.001 4.762e-4,-4.5e-4 0.00106,-0.0011 0.00156,-0.0016 0.00365,-0.0033 0.00768,-0.0065 0.011369,-0.0098 0.00143,-0.0013 0.00284,-0.0022 0.00413,-0.0026 z m -0.08785,0.01809 c 0.00119,0.0018 0.00228,0.0039 0.00362,0.0057 0.00296,0.0036 0.00596,0.007 0.0093,0.01034 0.00257,0.0026 0.00498,0.0044 0.00775,0.0067 0.00188,0.0015 0.00427,0.0032 0.0062,0.0047 0.00153,0.0012 0.00307,0.0025 0.00465,0.0036 0.00122,8.73e-4 0.00238,0.0018 0.00362,0.0026 3.704e-4,1.6e-5 6.614e-4,-1.8e-5 0.00103,0 -5.82e-4,-0.0027 -8.731e-4,-0.0056 -5.291e-4,-0.0083 5.821e-4,-0.0037 0.00283,-0.0069 0.00517,-0.0098 0.00286,-0.003 0.00631,-0.0061 0.00982,-0.0077 0.00265,-0.0017 0.00547,-0.0023 0.00827,-0.0036 l 0.00103,-5.29e-4 c 5.821e-4,-2.91e-4 0.00101,-3.18e-4 0.00156,-5.29e-4 -0.00206,-5.82e-4 -0.00408,-0.0011 -0.0062,-0.0016 -0.00378,-6.88e-4 -0.00754,-10e-4 -0.011369,-10e-4 -0.00279,-1.74e-4 -0.00548,-4.76e-4 -0.00827,-5.29e-4 -0.00271,-3.2e-5 -0.00556,6e-6 -0.00827,0 -0.00238,-5e-6 -0.00487,10e-7 -0.00723,0 h -0.00568 -0.00517 -0.00517 c -0.00148,6.8e-5 -0.00265,2.16e-4 -0.00414,0 z m 0.077515,0.0098 c 8.202e-4,0.0018 0.00135,0.0039 0.00206,0.0057 3.704e-4,9.52e-4 1.526e-4,0.0021 5.291e-4,0.0031 h 5.292e-4 c 0.00127,5.55e-4 0.00249,0.0012 0.00362,0.0021 0.00204,0.002 0.00384,0.0039 0.00465,0.0067 3.969e-4,0.0019 1.9e-4,0.0038 5.292e-4,0.0057 3.175e-4,0.0023 6.35e-4,0.0049 5.292e-4,0.0072 -1.051e-4,0.0019 -4.763e-4,0.0039 -0.00103,0.0057 h 5.292e-4 c 5.027e-4,-10e-5 0.0022,-0.0012 0.00259,-0.0016 0.00271,-0.0014 0.00457,-0.0032 0.0062,-0.0057 6.879e-4,-0.0016 0.00143,-0.0034 0.00156,-0.0052 1.42e-5,-2e-4 0,-0.0026 0,-0.0026 -4.498e-4,-0.003 -0.00233,-0.0054 -0.00414,-0.0078 -0.00333,-0.0037 -0.00737,-0.0064 -0.011369,-0.0093 -0.00206,-0.0015 -0.00444,-0.0029 -0.00672,-0.0041 z m -0.025321,0.0098 c -0.00122,8.73e-4 -0.00259,0.0016 -0.00362,0.0026 2.075e-4,4.76e-4 3.44e-4,7.94e-4 5.292e-4,0.0016 1.368e-4,3.97e-4 3.175e-4,6.88e-4 5.292e-4,10e-4 9.26e-4,-0.0017 0.00161,-0.0035 0.00259,-0.0052 z m 0.01292,0.0062 c 1.77e-4,0.0021 3.44e-4,0.0042 5.292e-4,0.0062 l 5.291e-4,-5.29e-4 c 0.0022,-0.0013 0.00409,-0.0016 0.00569,-0.0016 -8.17e-5,-8.74e-4 1.207e-4,-0.0018 0,-0.0026 -4.68e-5,-3.18e-4 5.4e-5,-8.73e-4 0,-10e-4 h -5.291e-4 c -0.00196,-3.18e-4 -0.00365,-1.72e-4 -0.00569,-5.29e-4 z m -0.010335,0.01034 c -1.905e-4,4.49e-4 -3.704e-4,7.93e-4 -5.292e-4,0.0016 h 5.292e-4 5.291e-4 5.292e-4 c -2.069e-4,-4.77e-4 -3.969e-4,-7.94e-4 -5.292e-4,-0.0016 z m 0.00259,0.01912 c -3.969e-4,6.88e-4 -4.233e-4,0.0016 -0.00103,0.0021 0.00156,-1.2e-5 0.00315,1.12e-4 0.00465,-5.29e-4 -3.969e-4,-1.06e-4 -6.35e-4,-3.44e-4 -0.00103,-5.29e-4 -7.144e-4,-2.4e-4 -0.0014,-7.94e-4 -0.00206,-10e-4 z m 0.019637,0.0041 -5.292e-4,5.29e-4 c 2.148e-4,5.4e-5 3.175e-4,4.76e-4 5.292e-4,5.29e-4 0.0014,3.44e-4 0.00271,3.97e-4 0.00414,5.29e-4 -0.00114,-3.17e-4 -0.00235,-5.55e-4 -0.0031,-10e-4 -3.175e-4,-8.7e-5 -7.408e-4,-4.23e-4 -0.00103,-5.29e-4 z" />
    </clipPath>
    <clipPath
       clipPathUnits="userSpaceOnUse"
       id="clipPath20459">
      <path
         id="path20461"
         style="fill:#ff0000;fill-opacity:1;fill-rule:nonzero;stroke:none;stroke-width:0.264583"
         d="m 0.37413737,10.738879 v 2.743502 H 6.8321412 v -2.743502 z m 3.75377593,2.033985 c 0.0056,-0.0015 0.00875,0.0048 0.00259,0.01033 -0.0029,0.0026 -0.00597,0.0052 -0.00878,0.0078 0.00309,0.0016 0.00601,0.0036 0.00878,0.0057 0.00479,0.0035 0.00956,0.0069 0.013435,0.01137 0.00303,0.004 0.0057,0.0078 0.0062,0.01292 3.175e-4,0.0052 -5.821e-4,0.0099 -0.0031,0.01447 -0.00283,0.0043 -0.00623,0.007 -0.010853,0.0093 -0.00103,4.49e-4 -0.00185,7.14e-4 -0.00259,10e-4 8.467e-4,4.24e-4 0.00175,9.53e-4 0.00259,0.0016 0.00119,6.87e-4 0.00282,9.52e-4 0.00414,0.0016 7.144e-4,2.17e-4 2.336e-4,2.91e-4 0.00103,5.29e-4 0.0046,0.0013 0.00612,0.0043 0.00568,0.0067 3.44e-4,-10e-6 6.35e-4,-5e-6 0.00103,0 0.00164,5e-6 0.00354,3.71e-4 0.00517,5.3e-4 0.00172,3.17e-4 0.00344,3.7e-4 0.00517,5.29e-4 0.00146,1.03e-4 0.00267,-3.9e-5 0.00414,0 0.010229,2.91e-4 0.010229,0.01061 0,0.01034 -0.00164,-4.5e-5 -0.00352,1.21e-4 -0.00517,0 -0.00185,-1.54e-4 -0.00335,-6.88e-4 -0.00517,-0.001 -0.00122,-3.17e-4 -0.00289,1.96e-4 -0.00414,0 -0.0014,-2.2e-5 -0.00274,1.14e-4 -0.00414,0 -0.00169,-1.42e-4 -0.00351,-1.73e-4 -0.00517,-5.29e-4 -0.00132,-2.65e-4 -0.00228,-9e-4 -0.00362,-0.001 -0.00114,-2.13e-4 -0.00241,-4.5e-4 -0.0031,-5.29e-4 -0.0014,-1.41e-4 -0.00277,-1.48e-4 -0.00414,-5.29e-4 -0.00119,-2.91e-4 -0.00238,-9.53e-4 -0.00362,-10e-4 -0.00135,-2.11e-4 -0.00282,-1.33e-4 -0.00414,-5.29e-4 -0.00193,-1.73e-4 -0.0038,-5.56e-4 -0.00568,-10e-4 -0.00167,-3.97e-4 -0.00346,-8.47e-4 -0.00517,-10e-4 -0.00159,-2.91e-4 -0.00306,2.45e-4 -0.00465,0 -0.00204,-1.53e-4 -0.0042,-6.61e-4 -0.0062,-0.001 -1.501e-4,-3.3e-5 -3.705e-4,3.2e-5 -5.292e-4,0 -0.00265,1.28e-4 -0.00523,-3.97e-4 -0.00775,-10e-4 -0.00111,-3.44e-4 -0.00206,-0.0011 -0.0031,-0.0016 -8.731e-4,-3.17e-4 -0.00175,-3.7e-4 -0.00259,-5.29e-4 -8.467e-4,-1.56e-4 -0.00167,-4.23e-4 -0.00259,-5.29e-4 -0.00238,-5.03e-4 -0.00488,-0.0015 -0.00723,-0.0021 -0.00161,-4.5e-4 -0.00302,-7.14e-4 -0.00465,-10e-4 -0.00146,-3.44e-4 -0.00267,-0.0012 -0.00413,-0.0016 -0.00172,-3.7e-4 -0.00342,-8.2e-4 -0.00517,-10e-4 -0.00185,-3.7e-4 -0.00379,-4.49e-4 -0.00568,-5.29e-4 -0.0023,-3.44e-4 -0.00491,-8.99e-4 -0.00723,-10e-4 -0.00314,-3.97e-4 -0.00578,-0.0011 -0.00878,-0.0021 -0.00356,-0.0011 -0.00734,-0.0023 -0.010853,-0.0036 v 5.29e-4 c -0.00235,-8.47e-4 -0.00375,-0.0022 -0.00465,-0.0036 -5.028e-4,-4.2e-5 -0.00103,3e-5 -0.00156,0 -0.00956,-8.47e-4 -0.0095,-0.0099 -0.00103,-0.01034 5.557e-4,-3.1e-5 0.00143,-5e-5 0.00206,0 0.00307,2.64e-4 0.00623,0.0011 0.0093,0.0016 -6.35e-4,-0.0012 -0.00114,-0.0033 -5.291e-4,-0.0047 9.525e-4,-0.0011 0.00343,-0.0028 0.00569,-0.0031 h 5.291e-4 c 6.086e-4,-8.99e-4 0.00172,-0.0017 0.0031,-0.0021 0.00127,-3.17e-4 0.00329,-4.23e-4 0.00517,0 0.00293,6.09e-4 0.00543,0.0014 0.00827,0.0021 3.175e-4,7.2e-5 7.144e-4,-7.1e-5 0.00103,0 -3.704e-4,-3.17e-4 -6.35e-4,-7.41e-4 -0.00103,-0.001 -0.00299,-0.0025 -0.00601,-0.0053 -0.00878,-0.0077 -0.00366,-0.0036 -0.0071,-0.0074 -0.010335,-0.01137 -0.00326,-0.0042 -0.00647,-0.0086 -0.00878,-0.01344 -0.00279,-0.0058 -2.91e-4,-0.0099 0.0031,-0.0098 9.26e-4,2.4e-5 0.00214,5.82e-4 0.0031,10e-4 0.00143,-7.14e-4 0.00369,-9.79e-4 0.0062,-5.29e-4 5.821e-4,1.11e-4 9.79e-4,3.7e-4 0.00156,5.29e-4 0.00119,2.63e-4 0.00238,5e-5 0.00362,0 h 0.00517 0.00517 0.00568 c 0.00238,0 0.00484,-9e-6 0.00723,0 0.00275,5e-6 0.00552,-3.6e-5 0.00827,0 0.00297,3.6e-5 0.00583,3.18e-4 0.00878,5.29e-4 0.00222,1.52e-4 0.00445,9.79e-4 0.00672,10e-4 -0.00243,-0.0038 -0.00119,-0.0074 0.00156,-0.0083 0.00196,-6.09e-4 0.00501,3.97e-4 0.00775,0.0031 0.00273,0.0027 0.00496,0.0053 0.00723,0.0083 0.00122,3.71e-4 0.00246,7.14e-4 0.00362,0.001 3.175e-4,-2.91e-4 7.144e-4,-8.73e-4 0.00103,-0.001 0.00365,-0.0033 0.00768,-0.0065 0.011369,-0.0098 0.00143,-0.0013 0.00284,-0.0022 0.00413,-0.0026 z m -0.08785,0.01809 c 0.00119,0.0018 0.00228,0.0039 0.00362,0.0057 0.00296,0.0036 0.00596,0.007 0.0093,0.01034 0.00257,0.0026 0.00498,0.0044 0.00775,0.0067 0.00188,0.0015 0.00427,0.0032 0.0062,0.0047 0.00153,0.0012 0.00307,0.0025 0.00465,0.0036 0.00122,8.73e-4 0.00238,0.0018 0.00362,0.0026 3.704e-4,1.6e-5 6.614e-4,-1.8e-5 0.00103,0 -5.82e-4,-0.0027 -8.731e-4,-0.0056 -5.291e-4,-0.0083 5.821e-4,-0.0037 0.00283,-0.0069 0.00517,-0.0098 0.00286,-0.003 0.00631,-0.0061 0.00982,-0.0077 0.00265,-0.0017 0.00547,-0.0023 0.00827,-0.0036 l 0.00103,-5.29e-4 c 5.821e-4,-2.91e-4 0.00101,-3.18e-4 0.00156,-5.29e-4 -0.00206,-5.82e-4 -0.00408,-0.0011 -0.0062,-0.0016 -0.00378,-6.88e-4 -0.00754,-10e-4 -0.011369,-10e-4 -0.00279,-1.74e-4 -0.00548,-4.76e-4 -0.00827,-5.29e-4 -0.00271,-3.2e-5 -0.00556,6e-6 -0.00827,0 -0.00238,-5e-6 -0.00487,10e-7 -0.00723,0 h -0.00568 -0.00517 -0.00517 c -0.00148,6.8e-5 -0.00265,2.16e-4 -0.00414,0 z m 0.076998,0.0093 c 9.26e-4,0.002 0.0018,0.0042 0.00259,0.0062 3.704e-4,9.52e-4 1.527e-4,0.0021 5.292e-4,0.0031 h 5.291e-4 c 0.00127,5.55e-4 0.00249,0.0012 0.00362,0.0021 0.00204,0.002 0.00384,0.0039 0.00465,0.0067 3.968e-4,0.0019 1.899e-4,0.0038 5.291e-4,0.0057 3.175e-4,0.0023 6.35e-4,0.0049 5.292e-4,0.0072 -1.05e-4,0.0019 -4.762e-4,0.0039 -0.00103,0.0057 h 5.292e-4 c 5.027e-4,-10e-5 0.0022,-0.0012 0.00259,-0.0016 0.00271,-0.0014 0.00457,-0.0032 0.0062,-0.0057 6.88e-4,-0.0016 0.00143,-0.0034 0.00156,-0.0052 1.43e-5,-2e-4 0,-0.0026 0,-0.0026 -4.498e-4,-0.003 -0.00233,-0.0054 -0.00414,-0.0078 -0.00333,-0.0037 -0.00737,-0.0064 -0.011369,-0.0093 -0.00228,-0.0017 -0.00471,-0.0033 -0.00723,-0.0047 z m -0.024805,0.01034 c -0.00122,8.73e-4 -0.00259,0.0016 -0.00362,0.0026 2.074e-4,4.77e-4 3.439e-4,7.94e-4 5.291e-4,0.0016 1.368e-4,3.97e-4 3.175e-4,6.88e-4 5.292e-4,0.001 9.26e-4,-0.0017 0.00161,-0.0035 0.00259,-0.0052 z m 0.01292,0.0062 c 1.77e-4,0.0021 3.44e-4,0.0042 5.292e-4,0.0062 l 5.291e-4,-5.29e-4 c 0.0022,-0.0013 0.00409,-0.0016 0.00569,-0.0016 -8.17e-5,-8.73e-4 1.21e-4,-0.0018 0,-0.0026 -4.68e-5,-3.17e-4 5.4e-5,-8.73e-4 0,-10e-4 h -5.291e-4 c -0.00196,-3.17e-4 -0.00365,-1.71e-4 -0.00569,-5.29e-4 z m -0.010335,0.01033 c -1.905e-4,4.5e-4 -3.704e-4,7.94e-4 -5.292e-4,0.0016 h 5.292e-4 5.292e-4 5.291e-4 c -2.069e-4,-4.76e-4 -3.969e-4,-7.94e-4 -5.291e-4,-0.0016 z m 0.0031,0.01912 c -3.175e-4,7.94e-4 -8.731e-4,0.0015 -0.00156,0.0021 1.902e-4,3.1e-5 3.175e-4,4.76e-4 5.291e-4,5.29e-4 0.00143,-10e-5 0.00275,-5.56e-4 0.00414,-10e-4 -3.969e-4,-1.06e-4 -6.35e-4,-3.44e-4 -0.00103,-5.29e-4 -7.144e-4,-2.4e-4 -0.0014,-7.94e-4 -0.00206,-10e-4 z m 0.019121,0.0041 -5.291e-4,5.29e-4 c 2.148e-4,5.4e-5 3.175e-4,4.77e-4 5.291e-4,5.3e-4 0.0014,3.43e-4 0.00271,3.96e-4 0.00414,5.29e-4 -0.00114,-3.18e-4 -0.00235,-5.56e-4 -0.0031,-10e-4 -3.175e-4,-8.7e-5 -7.409e-4,-4.24e-4 -0.00103,-5.29e-4 z" />
    </clipPath>
    <clipPath
       clipPathUnits="userSpaceOnUse"
       id="clipPath20469-0">
      <path
         id="path20471-7"
         style="fill:#ff0000;fill-opacity:1;fill-rule:nonzero;stroke:none;stroke-width:0.264583"
         d="m 2.1755778,11.461316 v 1.725993 h 1.9859254 v -0.319877 c -0.00138,1.5e-5 -0.00282,9.6e-5 -0.00414,0 -0.00185,-1.54e-4 -0.00335,-6.88e-4 -0.00517,-0.001 -0.00122,-3.17e-4 -0.00289,1.96e-4 -0.00414,0 -0.0014,-2.2e-5 -0.00274,1.14e-4 -0.00414,0 -0.00169,-1.42e-4 -0.00351,-1.73e-4 -0.00517,-5.29e-4 -0.00132,-2.65e-4 -0.00228,-9e-4 -0.00362,-10e-4 -0.00114,-2.13e-4 -0.00241,-4.5e-4 -0.0031,-5.29e-4 -0.0014,-1.41e-4 -0.00277,-1.48e-4 -0.00414,-5.29e-4 -0.00119,-2.91e-4 -0.00238,-9.53e-4 -0.00362,-10e-4 -0.00135,-2.11e-4 -0.00282,-1.33e-4 -0.00414,-5.29e-4 -0.00193,-1.73e-4 -0.0038,-5.56e-4 -0.00568,-10e-4 -0.00167,-3.97e-4 -0.00346,-8.47e-4 -0.00517,-0.001 -0.00159,-2.91e-4 -0.00306,2.45e-4 -0.00465,0 -0.00204,-1.53e-4 -0.0042,-6.61e-4 -0.0062,-10e-4 -0.00274,1.72e-4 -0.00566,-3.7e-4 -0.00827,-10e-4 -0.00167,-5.02e-4 -0.00318,-0.0013 -0.00465,-0.0021 -2.564e-4,-1.23e-4 -7.938e-4,1.36e-4 -0.00103,0 -8.467e-4,-1.55e-4 -0.00167,-4.23e-4 -0.00259,-5.29e-4 -0.00238,-5.02e-4 -0.00488,-0.0015 -0.00723,-0.0021 -0.00161,-4.5e-4 -0.00302,-7.15e-4 -0.00465,-10e-4 -0.00146,-3.44e-4 -0.00267,-0.0012 -0.00413,-0.0016 -0.00172,-3.71e-4 -0.00342,-8.21e-4 -0.00517,-10e-4 -0.00185,-3.71e-4 -0.00379,-4.5e-4 -0.00568,-5.29e-4 -0.0023,-3.44e-4 -0.00491,-9e-4 -0.00723,-10e-4 -0.00314,-3.97e-4 -0.00578,-0.0011 -0.00878,-0.0021 -0.00356,-0.0011 -0.00734,-0.0023 -0.010853,-0.0036 v 5.29e-4 c -0.00235,-8.46e-4 -0.00375,-0.0022 -0.00465,-0.0036 -5.027e-4,-4.1e-5 -0.00103,3.1e-5 -0.00156,0 -0.00956,-8.46e-4 -0.0095,-0.0099 -0.00103,-0.01033 5.556e-4,-3.1e-5 0.00143,-5e-5 0.00206,0 0.00308,2.64e-4 0.00622,0.0011 0.0093,0.0016 -6.35e-4,-0.0012 -0.00114,-0.0033 -5.292e-4,-0.0047 9.525e-4,-0.0011 0.00343,-0.0028 0.00569,-0.0031 h 5.292e-4 c 6.085e-4,-9e-4 0.00172,-0.0017 0.0031,-0.0021 0.00127,-3.18e-4 0.00329,-4.24e-4 0.00517,0 0.00293,6.08e-4 0.00543,0.0014 0.00827,0.0021 3.175e-4,7.2e-5 7.144e-4,-7.1e-5 0.00103,0 -3.704e-4,-3.18e-4 -6.35e-4,-7.41e-4 -0.00103,-10e-4 -0.00299,-0.0025 -0.00601,-0.0053 -0.00878,-0.0077 -0.00366,-0.0036 -0.0071,-0.0074 -0.010335,-0.01137 -0.00326,-0.0042 -0.00647,-0.0086 -0.00878,-0.01344 -0.00279,-0.0058 -2.911e-4,-0.0099 0.0031,-0.0098 9.26e-4,2.4e-5 0.00214,5.82e-4 0.0031,10e-4 0.00143,-7.15e-4 0.00369,-9.79e-4 0.0062,-5.3e-4 5.821e-4,1.11e-4 9.79e-4,3.71e-4 0.00156,5.3e-4 0.00119,2.63e-4 0.00238,5e-5 0.00362,0 h 0.00517 0.00517 0.00568 c 0.00238,0 0.00484,-9e-6 0.00723,0 0.00275,5e-6 0.00552,-3.6e-5 0.00827,0 0.00297,3.6e-5 0.00583,3.17e-4 0.00878,5.29e-4 0.00214,1.45e-4 0.00455,1.6e-4 0.00672,5.29e-4 -0.00217,-0.0036 -0.00111,-0.0069 0.00156,-0.0078 0.00196,-6.09e-4 0.00501,3.96e-4 0.00775,0.0031 0.00273,0.0027 0.00496,0.0053 0.00723,0.0083 0.00122,3.7e-4 0.00246,7.14e-4 0.00362,10e-4 3.175e-4,-2.91e-4 7.144e-4,-8.74e-4 0.00103,-10e-4 0.00365,-0.0033 0.00768,-0.0065 0.011369,-0.0098 0.00143,-0.0013 0.00284,-0.0022 0.00413,-0.0026 0.0056,-0.0015 0.00876,0.0048 0.00259,0.01034 -0.0029,0.0026 -0.00597,0.0052 -0.00878,0.0078 0.00309,0.0016 0.00601,0.0036 0.00878,0.0057 0.00479,0.0035 0.00956,0.0069 0.013435,0.01137 0.00303,0.004 0.0057,0.0078 0.0062,0.01292 3.175e-4,0.0052 -5.821e-4,0.0099 -0.0031,0.01447 -0.00283,0.0043 -0.00623,0.007 -0.010853,0.0093 -0.00103,4.5e-4 -0.00185,7.14e-4 -0.00259,10e-4 8.467e-4,4.23e-4 0.00175,9.52e-4 0.00259,0.0016 0.00119,6.88e-4 0.00282,9.52e-4 0.00414,0.0016 7.144e-4,2.18e-4 2.336e-4,2.91e-4 0.00103,5.29e-4 0.0046,0.0013 0.00612,0.0043 0.00568,0.0067 3.44e-4,-1.1e-5 6.35e-4,-6e-6 0.00103,0 0.00164,4e-6 0.00354,3.7e-4 0.00517,5.29e-4 0.00172,3.17e-4 0.00344,3.7e-4 0.00517,5.29e-4 0.00108,7.8e-5 0.00206,1.9e-5 0.0031,0 v -1.395821 z m 1.8644856,1.329635 c 0.00119,0.0018 0.00228,0.0039 0.00362,0.0057 0.00296,0.0036 0.00596,0.007 0.0093,0.01034 0.00257,0.0026 0.00498,0.0044 0.00775,0.0067 0.00188,0.0015 0.00427,0.0032 0.0062,0.0047 0.00153,0.0012 0.00307,0.0025 0.00465,0.0036 0.00122,8.73e-4 0.00238,0.0018 0.00362,0.0026 3.704e-4,1.6e-5 6.614e-4,-1.8e-5 0.00103,0 -5.82e-4,-0.0027 -8.731e-4,-0.0056 -5.291e-4,-0.0083 5.821e-4,-0.0037 0.00283,-0.0069 0.00517,-0.0098 0.00286,-0.003 0.00631,-0.0061 0.00982,-0.0077 0.00265,-0.0017 0.00547,-0.0023 0.00827,-0.0036 l 0.00103,-5.29e-4 c 5.821e-4,-2.91e-4 0.00101,-3.17e-4 0.00156,-5.29e-4 -0.00201,-5.56e-4 -0.00413,-0.0011 -0.0062,-0.0016 -0.00378,-6.88e-4 -0.00754,-0.001 -0.011369,-0.001 -0.00279,-1.74e-4 -0.00548,-4.76e-4 -0.00827,-5.29e-4 -0.00271,-3.2e-5 -0.00556,6e-6 -0.00827,0 -0.00238,-5e-6 -0.00487,1e-6 -0.00723,0 h -0.00568 -0.00517 -0.00517 c -0.00148,6.8e-5 -0.00265,2.16e-4 -0.00414,0 z m 0.076998,0.0093 c 9.26e-4,0.002 0.0018,0.0042 0.00259,0.0062 3.969e-4,0.001 7.408e-4,0.002 0.00103,0.0031 0.00127,5.56e-4 0.00249,0.0012 0.00362,0.0021 0.00204,0.002 0.00384,0.0039 0.00465,0.0067 3.969e-4,0.0019 1.9e-4,0.0038 5.292e-4,0.0057 3.175e-4,0.0023 6.35e-4,0.0049 5.291e-4,0.0072 -1.05e-4,0.0019 -4.762e-4,0.0039 -0.00103,0.0057 H 4.12951 c 5.027e-4,-10e-5 0.0022,-0.0012 0.00259,-0.0016 0.00271,-0.0014 0.00457,-0.0032 0.0062,-0.0057 6.879e-4,-0.0016 0.00143,-0.0034 0.00156,-0.0052 1.43e-5,-2e-4 0,-0.0026 0,-0.0026 -4.498e-4,-0.003 -0.00233,-0.0053 -0.00414,-0.0077 -0.00333,-0.0037 -0.00737,-0.0064 -0.011369,-0.0093 -0.00228,-0.0017 -0.00471,-0.0033 -0.00723,-0.0047 z m -0.024805,0.0098 c -0.00132,9.26e-4 -0.00251,0.002 -0.00362,0.0031 2.074e-4,4.76e-4 3.439e-4,7.94e-4 5.291e-4,0.0016 1.368e-4,3.97e-4 3.175e-4,6.88e-4 5.292e-4,0.001 9.26e-4,-0.0019 0.00153,-0.0039 0.00259,-0.0057 z m 0.01292,0.0062 c 2.191e-4,0.0022 3.44e-4,0.0046 5.292e-4,0.0067 l 5.291e-4,-5.29e-4 c 0.0022,-0.0013 0.00409,-0.0016 0.00569,-0.0016 -8.17e-5,-8.73e-4 1.21e-4,-0.0018 0,-0.0026 -4.68e-5,-3.17e-4 5.4e-5,-8.73e-4 0,-0.001 h -5.291e-4 c -0.00196,-3.17e-4 -0.00365,-8.73e-4 -0.00569,-10e-4 z m -0.010335,0.01085 c -1.455e-4,3.44e-4 -3.969e-4,7.67e-4 -5.292e-4,10e-4 l 5.292e-4,5.29e-4 H 4.0953709 4.0959 c -2.204e-4,-5.03e-4 -3.969e-4,-7.94e-4 -5.291e-4,-0.0016 z m 0.0031,0.01912 c -3.175e-4,7.41e-4 -9.26e-4,0.0015 -0.00156,0.0021 4.762e-4,8.1e-5 0.00106,4.24e-4 0.00156,5.3e-4 1.72e-4,-3.1e-5 3.44e-4,3.7e-5 5.292e-4,0 8.466e-4,-1.89e-4 0.00172,-7.41e-4 0.00259,-10e-4 -3.969e-4,-1.05e-4 -6.35e-4,-3.44e-4 -0.00103,-5.29e-4 -7.144e-4,-2.4e-4 -0.0014,-7.94e-4 -0.00206,-10e-4 z m 0.019121,0.0041 -5.291e-4,5.29e-4 c 2.148e-4,5.4e-5 3.175e-4,4.77e-4 5.291e-4,5.29e-4 0.00122,3.18e-4 0.00238,4.24e-4 0.00362,5.3e-4 -8.996e-4,-2.24e-4 -0.00201,-6.62e-4 -0.00259,-10e-4 -3.175e-4,-8.7e-5 -7.409e-4,-4.24e-4 -0.00103,-5.29e-4 z" />
    </clipPath>
    <clipPath
       clipPathUnits="userSpaceOnUse"
       id="clipPath20479-6">
      <path
         id="path20481-2"
         style="fill:#ff0000;fill-opacity:1;fill-rule:nonzero;stroke:none;stroke-width:0.264583"
         d="m 2.7228313,11.409639 v 1.533757 h 1.3161986 v -0.09715 c -0.00356,-0.0011 -0.00734,-0.0023 -0.010853,-0.0036 v 5.29e-4 c -0.00235,-8.46e-4 -0.00375,-0.0022 -0.00465,-0.0036 -5.027e-4,-4.1e-5 -0.00103,3.1e-5 -0.00156,0 -0.00956,-8.46e-4 -0.0095,-0.0099 -0.00103,-0.01033 5.557e-4,-3.1e-5 0.00143,-5e-5 0.00206,0 0.00306,2.64e-4 0.00624,0.0011 0.0093,0.0016 -6.35e-4,-0.0012 -0.00114,-0.0033 -5.291e-4,-0.0047 9.525e-4,-0.0011 0.00343,-0.0028 0.00569,-0.0031 h 5.291e-4 c 1.853e-4,-2.65e-4 7.673e-4,-2.92e-4 0.00103,-5.3e-4 v -0.01499 c -0.00127,-0.0015 -0.00241,-0.0032 -0.00362,-0.0047 -0.00326,-0.0042 -0.00647,-0.0086 -0.00878,-0.01344 -0.00279,-0.0057 -2.91e-4,-0.0099 0.0031,-0.0098 9.261e-4,2.4e-5 0.00214,4.5e-4 0.0031,10e-4 0.00143,-7.15e-4 0.00369,-9.79e-4 0.0062,-5.3e-4 v -1.370459 z" />
    </clipPath>
    <clipPath
       clipPathUnits="userSpaceOnUse"
       id="clipPath20489-6">
      <path
         id="path20491-0"
         style="fill:#ff0000;fill-opacity:1;fill-rule:nonzero;stroke:none;stroke-width:0.264583"
         d="m 4.0178426,12.826607 v 0.0036 c 9.261e-4,-4.5e-4 0.00172,-10e-4 0.0031,-10e-4 5.556e-4,-3.1e-5 0.00143,-5e-5 0.00206,0 0.00304,2.65e-4 0.00626,0.0011 0.0093,0.0016 -5.821e-4,-0.0011 -8.996e-4,-0.0029 -5.292e-4,-0.0041 z m 0,0.01189 v 0.05323 h 0.058911 v -0.03772 c -7.408e-4,-2.31e-4 -0.00135,-3.44e-4 -0.00206,-5.29e-4 -0.00161,-4.5e-4 -0.00302,-7.14e-4 -0.00465,-0.001 -0.00146,-3.44e-4 -0.00267,-0.0012 -0.00413,-0.0016 -0.00172,-3.7e-4 -0.00342,-8.2e-4 -0.00517,-10e-4 -0.00185,-3.7e-4 -0.00379,-4.5e-4 -0.00568,-5.29e-4 -0.0023,-3.44e-4 -0.00491,-9e-4 -0.00723,-10e-4 -0.00314,-3.97e-4 -0.00578,-0.0011 -0.00878,-0.0021 -0.00356,-0.0011 -0.00734,-0.0023 -0.010853,-0.0036 v 5.29e-4 c -0.00193,-7.15e-4 -0.00319,-0.002 -0.00414,-0.0031 -1.828e-4,-1.7e-5 -3.439e-4,1.6e-5 -5.292e-4,0 -5.82e-4,-5.2e-5 -9.525e-4,-4.76e-4 -0.00156,-5.29e-4 -0.0018,-1.58e-4 -0.003,-4.77e-4 -0.00414,-10e-4 z" />
    </clipPath>
    <clipPath
       clipPathUnits="userSpaceOnUse"
       id="clipPath20741">
      <path
         id="path20743"
         style="fill:#ff0000;fill-opacity:1;fill-rule:nonzero;stroke:none;stroke-width:0.264583"
         d="m 2.7228002,11.409588 v 1.533807 h 1.316246 v -0.09718 c -0.00356,-0.0011 -0.00737,-0.0023 -0.010878,-0.0036 v 5.25e-4 c -4.676e-4,-1.57e-4 -8.549e-4,-4.2e-4 -0.00123,-6.14e-4 h -0.00195 c -7.188e-4,0 -0.00113,-2.63e-4 -0.00133,-6.15e-4 h -6.158e-4 -0.00195 c -4.782e-4,0 -9.921e-4,-2.1e-4 -0.00123,-4.2e-4 -2.154e-4,-2.63e-4 -2.784e-4,-6.36e-4 -1.05e-4,-9.25e-4 -6.31e-5,-3.68e-4 2.49e-5,-8.57e-4 4.098e-4,-0.0011 -0.00773,-0.0017 -0.00708,-0.0097 8.212e-4,-0.01006 5.56e-4,-3.1e-5 0.00142,-5e-5 0.00205,0 0.00306,2.63e-4 0.00618,10e-4 0.00924,0.0015 -6.348e-4,-0.0012 -0.00112,-0.0033 -5.15e-4,-0.0047 9.526e-4,-0.0011 0.00349,-0.0028 0.00575,-0.0031 h 5.15e-4 c 1.839e-4,-2.63e-4 7.524e-4,-3.68e-4 0.00103,-6.15e-4 v -0.01498 c -0.00127,-0.0015 -0.00248,-0.0031 -0.00369,-0.0046 -0.00326,-0.0042 -0.00641,-0.0086 -0.00872,-0.01344 -0.00279,-0.0057 -3.1e-4,-0.0096 0.00308,-0.0095 9.264e-4,2.5e-5 0.00212,4.21e-4 0.00308,9.25e-4 0.00143,-7.14e-4 0.00375,-0.0011 0.00626,-6.15e-4 v -1.370328 z" />
    </clipPath>
    <clipPath
       clipPathUnits="userSpaceOnUse"
       id="clipPath20775">
      <path
         id="path20777"
         style="fill:#ff0000;fill-opacity:1;fill-rule:nonzero;stroke:none;stroke-width:0.264583"
         d="m 4.1614757,11.461208 -1.9858628,1.05e-4 v 1.726021 h 1.9858628 v -0.319877 c -0.00138,1.5e-5 -0.00278,1.05e-4 -0.0041,0 -0.00185,-1.57e-4 -0.00331,-9.24e-4 -0.00513,-10e-4 -0.00122,-3.16e-4 -0.00296,2.1e-4 -0.00421,0 -3.52e-4,-6e-6 -6.815e-4,1.05e-4 -0.00103,1.05e-4 l 1.05e-4,1.05e-4 c 2.207e-4,1.57e-4 4.939e-4,4.2e-4 7.183e-4,6.15e-4 l 1.051e-4,1.05e-4 c 2.627e-4,1.57e-4 4.046e-4,4.2e-4 5.149e-4,6.14e-4 h 1.051e-4 v 1.06e-4 1.05e-4 c 8.41e-5,1.05e-4 2.207e-4,1.57e-4 3.1e-4,2.1e-4 2.995e-4,2.1e-4 6.058e-4,4.73e-4 9.237e-4,6.15e-4 2.575e-4,1.05e-4 4.782e-4,3.67e-4 7.183e-4,5.25e-4 0.00178,9.93e-4 8.638e-4,0.0025 -9.237e-4,0.0015 -2.365e-4,-1.57e-4 -4.782e-4,-2.1e-4 -7.183e-4,-3.15e-4 -3.783e-4,-2.1e-4 -7.692e-4,-4.73e-4 -0.00113,-7.2e-4 -2.995e-4,-2.1e-4 -5.628e-4,-4.72e-4 -8.213e-4,-7.19e-4 -4.97e-5,-5.2e-5 -5.78e-5,-1.58e-4 -1.051e-4,-2.11e-4 l -1.05e-4,-1.05e-4 h -1.051e-4 c -5.859e-4,-1.57e-4 -0.00115,-4.2e-4 -0.00174,-6.14e-4 -5.559e-4,-2.11e-4 -0.00109,-2.63e-4 -0.00164,-4.21e-4 -6.158e-4,-1.57e-4 -0.00129,-5.25e-4 -0.00185,-8.19e-4 -6.158e-4,-3.16e-4 -0.00115,-7.15e-4 -0.00174,-0.001 l -1.051e-4,-1.05e-4 h -1.051e-4 c -2.469e-4,-3.9e-5 -4.781e-4,-4.6e-5 -7.182e-4,-1.05e-4 -0.00132,-2.63e-4 -0.00225,-10e-4 -0.00359,-10e-4 -0.00114,-2.1e-4 -0.00239,-4.2e-4 -0.00308,-5.25e-4 -0.0014,-1.58e-4 -0.00268,-1.58e-4 -0.00411,-5.26e-4 -0.00119,-3.15e-4 -0.00245,-0.001 -0.00369,-0.001 -0.00135,-2.1e-4 -0.0027,-1.05e-4 -0.00411,-5.26e-4 -0.00193,-1.57e-4 -0.00376,-5.25e-4 -0.00564,-9.24e-4 -0.00167,-4.21e-4 -0.00352,-8.2e-4 -0.00523,-9.25e-4 -0.00159,-3.15e-4 -0.00303,2.62e-4 -0.00462,0 -0.00204,-1.58e-4 -0.00416,-5.83e-4 -0.00616,-9.25e-4 -0.00274,1.58e-4 -0.0057,-5.25e-4 -0.00831,-9.25e-4 -6.862e-4,-2.1e-4 -0.00132,-5.62e-4 -0.00195,-9.25e-4 -4.729e-4,-4e-6 -9.5e-4,-5.2e-5 -0.00144,-1.05e-4 -3.783e-4,-2e-5 -7.514e-4,-1.05e-4 -0.00113,-2.1e-4 -3.152e-4,-1.05e-4 -6.058e-4,-2.62e-4 -9.237e-4,-4.2e-4 -2.784e-4,-1.05e-4 -5.427e-4,-1.58e-4 -8.212e-4,-3.15e-4 -1.997e-4,-1.05e-4 -4.151e-4,-1.58e-4 -6.158e-4,-2.11e-4 -3.153e-4,-1.57e-4 -6.258e-4,-2.62e-4 -9.237e-4,-4.2e-4 -1.366e-4,-5.2e-5 -2.575e-4,-5.2e-5 -4.099e-4,-1.05e-4 -2.364e-4,-1.7e-5 -4.781e-4,-1.58e-4 -7.182e-4,-2.1e-4 -2.575e-4,-4.2e-5 -5.827e-4,-4.8e-5 -8.213e-4,-1.05e-4 -3.993e-4,-1.05e-4 -7.513e-4,-2.63e-4 -0.00113,-4.21e-4 -4.151e-4,-5.2e-5 -7.319e-4,-1.57e-4 -0.00113,-3.15e-4 -3.153e-4,-1.05e-4 -6.884e-4,-2.1e-4 -0.00103,-3.15e-4 -3.573e-4,-5.3e-5 -7.713e-4,-1.05e-4 -0.00113,-2.1e-4 -3.153e-4,-5.3e-5 -6.059e-4,-1.05e-4 -9.238e-4,-2.1e-4 -2.784e-4,-5.3e-5 -5.427e-4,-1.06e-4 -8.212e-4,-2.11e-4 -3.573e-4,-5.2e-5 -7.713e-4,-2.1e-4 -0.00113,-3.15e-4 -3.573e-4,-1.05e-4 -6.689e-4,-2.1e-4 -0.00103,-3.15e-4 -2.995e-4,-5.3e-5 -6.258e-4,-1.05e-4 -9.237e-4,-2.1e-4 -2.995e-4,-5.3e-5 -5.254e-4,-2.1e-4 -8.212e-4,-3.16e-4 -2.365e-4,-5.2e-5 -4.782e-4,-1.57e-4 -7.183e-4,-2.1e-4 -2.365e-4,-1.05e-4 -4.624e-4,-1.57e-4 -7.183e-4,-2.1e-4 -3.363e-4,-1.05e-4 -7.083e-4,-2.1e-4 -0.00103,-3.15e-4 -1.997e-4,-1.05e-4 -3.153e-4,-5.3e-5 -5.15e-4,-1.05e-4 -2.995e-4,-2.1e-5 -6.457e-4,-4.5e-5 -9.237e-4,-1.05e-4 -3.363e-4,-5.3e-5 -6.058e-4,-2.11e-4 -9.237e-4,-3.16e-4 -2.995e-4,-4e-5 -5.428e-4,-1.05e-4 -8.212e-4,-2.1e-4 -1.209e-4,-3.5e-5 -2.785e-4,-1.05e-4 -4.099e-4,-1.05e-4 -2.784e-4,6e-6 -5.427e-4,-1.1e-5 -8.212e-4,-1.05e-4 -1.997e-4,-4e-5 -4.256e-4,-2.1e-4 -6.158e-4,-3.15e-4 3.97e-5,4.7e-5 -3.416e-4,-5.3e-5 -4.099e-4,-1.05e-4 -1.366e-4,-5.3e-5 -3.573e-4,1.5e-5 -5.149e-4,0 -2.995e-4,2e-6 -6.258e-4,-1.58e-4 -9.237e-4,-2.1e-4 -2.575e-4,-5.3e-5 -4.414e-4,-1.58e-4 -7.183e-4,-2.11e-4 -2.784e-4,-5.2e-5 -6.457e-4,-1.57e-4 -9.237e-4,-2.1e-4 -2.995e-4,-5.2e-5 -5.254e-4,-2.1e-4 -8.212e-4,-3.15e-4 -8.41e-5,-3.4e-5 -2.154e-4,-5.3e-5 -3.1e-4,-1.05e-4 -3.6e-5,-4e-6 -6.83e-5,4e-6 -1.051e-4,0 -7.36e-5,-1.9e-5 -1.314e-4,1.9e-5 -2.049e-4,0 -9.426e-4,-1.05e-4 -0.00193,-1.58e-4 -0.00287,-2.1e-4 -0.0023,-3.68e-4 -0.00497,-8.94e-4 -0.00729,-9.25e-4 -0.00314,-4.2e-4 -0.00572,-0.0015 -0.00872,-0.0025 -0.00356,-0.0011 -0.00737,-0.0023 -0.010878,-0.0036 v 6.14e-4 c -6.61e-4,-2.1e-4 -0.00123,-6.04e-4 -0.00174,-9.24e-4 h -0.00144 c -7.188e-4,0 -0.00113,-2.63e-4 -0.00133,-6.15e-4 h -6.158e-4 -0.00195 c -0.00128,0 -0.00168,-8.3e-4 -0.00133,-0.0013 -6.3e-5,-3.15e-4 2.1e-6,-8.46e-4 3.1e-4,-10e-4 -0.00764,-0.0018 -0.00705,-0.0096 8.213e-4,-0.01006 5.553e-4,-3.1e-5 0.00142,-4.7e-5 0.00205,0 0.00308,2.63e-4 0.00626,9.36e-4 0.00934,0.0014 -6.347e-4,-0.0012 -0.00112,-0.0031 -5.149e-4,-0.0045 9.526e-4,-0.0011 0.00338,-0.003 0.00564,-0.0033 h 6.158e-4 c 6.084e-4,-8.99e-4 0.0017,-0.0021 0.00308,-0.0025 0.00127,-3.15e-4 0.00325,-4.2e-4 0.00513,0 0.00293,6.1e-4 0.00547,0.0018 0.00831,0.0025 3.152e-4,5.2e-5 6.809e-4,-5.3e-5 0.00103,0 -3.678e-4,-3.16e-4 -6.016e-4,-6.63e-4 -0.00103,-9.25e-4 -0.00299,-0.0025 -0.00606,-0.0053 -0.00883,-0.0077 -0.00366,-0.0036 -0.00713,-0.0074 -0.010365,-0.01139 -0.00326,-0.0042 -0.00641,-0.0086 -0.00872,-0.01344 -0.00279,-0.0058 -3.1e-4,-0.01012 0.00308,-0.01006 9.258e-4,2.5e-5 0.00212,5.31e-4 0.00308,9.25e-4 0.00143,-7.14e-4 0.00375,-9.98e-4 0.00626,-6.15e-4 5.822e-4,1.05e-4 9.537e-4,4.73e-4 0.00154,6.15e-4 0.00119,2.63e-4 0.00235,4.9e-5 0.00359,0 h 0.00523 0.00513 0.00554 c 0.00238,0 0.005,-9e-6 0.00739,0 0.00275,5e-6 0.00546,-3.6e-5 0.00821,0 0.00297,3.6e-5 0.00588,4.21e-4 0.00883,6.15e-4 0.00214,1.58e-4 0.0045,2.63e-4 0.00667,6.15e-4 -0.00217,-0.0036 -0.00103,-0.0069 0.00164,-0.0078 0.00196,-6.1e-4 0.00496,5.88e-4 0.0077,0.0034 0.00273,0.0027 0.00502,0.0051 0.00729,0.0081 0.00122,3.67e-4 0.00243,6.67e-4 0.00359,9.24e-4 3.153e-4,-3.15e-4 6.81e-4,-8.25e-4 0.00103,-9.24e-4 0.00365,-0.0033 0.0077,-0.0061 0.011391,-0.0094 0.00143,-0.0013 0.00281,-0.0024 0.0041,-0.0028 0.0056,-0.0015 0.00874,0.0047 0.00257,0.01026 -0.0029,0.0026 -0.00591,0.0052 -0.00872,0.0078 0.00309,0.0016 0.00595,0.0031 0.00872,0.0052 0.00479,0.0035 0.00957,0.0069 0.013444,0.01139 0.00303,0.004 0.00566,0.0078 0.00616,0.01293 3.153e-4,0.0052 -5.501e-4,0.0099 -0.00308,0.01447 -0.00283,0.0043 -0.00626,0.0068 -0.010878,0.0091 -0.00103,4.73e-4 -0.00183,7.99e-4 -0.00257,9.25e-4 8.464e-4,4.2e-4 0.00173,7.57e-4 0.00257,0.0011 0.00119,6.88e-4 0.00289,9.35e-4 0.00421,0.0013 3.573e-4,1.05e-4 5.47e-4,3.15e-4 6.158e-4,4.21e-4 7.88e-5,4.4e-5 2.102e-4,2.3e-5 4.098e-4,1.05e-4 0.0046,0.0013 0.00608,0.0046 0.00564,0.007 3.415e-4,-1.1e-5 6.016e-4,-5e-6 0.00103,0 0.00164,5e-6 0.0036,4.73e-4 0.00523,6.15e-4 0.00172,3.15e-4 0.0034,4.73e-4 0.00513,6.14e-4 0.00108,5.2e-5 0.00204,1.7e-5 0.00308,0 z m -0.1205823,1.330613 c 9.463e-4,0.0018 0.00166,0.0037 0.00277,0.0048 0.00296,0.0036 0.006,0.007 0.00934,0.01037 0.00257,0.0026 0.00493,0.0044 0.0077,0.0067 0.00188,0.0015 0.00433,0.0032 0.00626,0.0047 0.00153,0.0012 0.00304,0.0025 0.00462,0.0036 0.00122,8.72e-4 0.00235,0.0018 0.00359,0.0026 3.731e-4,1.7e-5 6.284e-4,-1.8e-5 0.00103,0 -5.822e-4,-0.0027 -8.417e-4,-0.0056 -5.149e-4,-0.0083 5.822e-4,-0.0037 0.00289,-0.006 0.00523,-0.0089 0.00286,-0.003 0.00624,-0.0061 0.00975,-0.0077 0.00265,-0.0017 0.00551,-0.0023 0.00831,-0.0036 l 0.00103,-6.15e-4 c 5.821e-4,-3.15e-4 9.851e-4,-4.2e-4 0.00154,-6.15e-4 -0.00201,-5.57e-4 -0.00409,-10e-4 -0.00616,-0.0014 -0.00378,-6.89e-4 -0.00756,-0.001 -0.011391,-0.001 -0.00279,-1.57e-4 -0.00552,-4.73e-4 -0.00831,-5.25e-4 -0.00271,-3.2e-5 -0.0055,5e-6 -0.00821,0 -0.00238,-6e-6 -0.00493,1e-6 -0.00729,0 h -0.00564 -0.00513 -0.00523 c -0.00118,4.2e-5 -0.00218,1.57e-4 -0.00328,0 z m 0.07666,0.009 c 7.876e-4,0.0019 0.00135,0.0036 0.00205,0.0053 3.993e-4,9.98e-4 7.077e-4,0.002 0.00103,0.0031 0.00127,5.57e-4 0.00256,0.0017 0.00369,0.0023 0.00204,0.002 0.00381,0.004 0.00462,0.0068 3.994e-4,0.0019 1.734e-4,0.0037 5.15e-4,0.0056 3.152e-4,0.0023 6.047e-4,0.0049 5.149e-4,0.0072 -1.051e-4,0.0019 -4.309e-4,0.0034 -0.00103,0.0052 h 6.158e-4 c 5.044e-4,-1.05e-4 0.00218,-8.88e-4 0.00257,-0.0011 0.00271,-0.0014 0.00453,-0.0031 0.00616,-0.0056 6.878e-4,-0.0016 0.00141,-0.0029 0.00154,-0.0047 1.42e-5,-2.1e-4 0,-0.0031 0,-0.0031 -4.518e-4,-0.003 -0.0023,-0.0053 -0.00411,-0.0077 -0.00333,-0.0037 -0.00739,-0.0059 -0.011391,-0.0088 -0.0022,-0.0017 -0.00437,-0.003 -0.00677,-0.0044 z m -0.025245,0.0086 c -0.00132,9.25e-4 -0.00258,0.0024 -0.00369,0.0035 2.049e-4,4.72e-4 3.257e-4,6.25e-4 5.149e-4,0.0011 1.366e-4,4.21e-4 4.046e-4,9.25e-4 6.158e-4,10e-4 9.258e-4,-0.0019 0.00151,-0.0038 0.00257,-0.0056 z m 0.012828,0.007 c 2.207e-4,0.0022 4.309e-4,0.0046 6.158e-4,0.0067 l 5.149e-4,-5.26e-4 c 0.0022,-0.0013 0.00404,-0.0015 0.00564,-0.0015 -8.4e-5,-8.72e-4 1.209e-4,-0.0019 0,-0.0027 -4.66e-5,-3.16e-4 5.26e-5,-7.99e-4 0,-9.25e-4 h -5.149e-4 c -0.00196,-3.15e-4 -0.0036,-10e-4 -0.00564,-10e-4 z m -0.0079,0.0311 -1.051e-4,1.05e-4 1.051e-4,1.05e-4 h 1.051e-4 c 1.32e-5,-5e-5 -8.93e-5,-1.05e-4 -1.051e-4,-2.1e-4 z" />
    </clipPath>
    <clipPath
       clipPathUnits="userSpaceOnUse"
       id="clipPath20785">
      <path
         id="path20787"
         style="fill:#ff0000;fill-opacity:1;fill-rule:nonzero;stroke:none;stroke-width:0.264583"
         d="m 4.0178032,12.82661 v 0.0036 c 9.263e-4,-4.73e-4 0.0018,-10e-4 0.00318,-10e-4 5.553e-4,-3.1e-5 0.00142,-5e-5 0.00205,0 0.00304,2.62e-4 0.0062,0.0011 0.00924,0.0016 -5.822e-4,-0.0011 -8.77e-4,-0.0029 -5.149e-4,-0.0041 z m 0,0.01211 v 0.05306 h 0.058906 v -0.03725 c -2.312e-4,-4e-5 -5.044e-4,-5.3e-5 -7.183e-4,-1.05e-4 -3.152e-4,-5.3e-5 -6.058e-4,-1.05e-4 -9.237e-4,-2.1e-4 -2.785e-4,-5.3e-5 -5.427e-4,-1.06e-4 -8.212e-4,-2.11e-4 -3.573e-4,-5.2e-5 -7.714e-4,-2.1e-4 -0.00113,-3.15e-4 -3.572e-4,-1.05e-4 -6.688e-4,-2.1e-4 -0.00103,-3.15e-4 -2.995e-4,-5.3e-5 -6.258e-4,-1.05e-4 -9.237e-4,-2.1e-4 -2.995e-4,-5.3e-5 -5.255e-4,-2.11e-4 -8.213e-4,-3.16e-4 -2.364e-4,-5.2e-5 -4.781e-4,-1.57e-4 -7.182e-4,-2.1e-4 -2.365e-4,-1.05e-4 -4.624e-4,-1.57e-4 -7.183e-4,-2.1e-4 -3.363e-4,-1.05e-4 -7.083e-4,-2.1e-4 -0.00103,-3.15e-4 -1.996e-4,-1.05e-4 -3.152e-4,-5.3e-5 -5.149e-4,-1.05e-4 -2.995e-4,-2.1e-5 -6.457e-4,-4.5e-5 -9.237e-4,-1.05e-4 -3.363e-4,-5.3e-5 -6.058e-4,-2.11e-4 -9.237e-4,-3.16e-4 -2.995e-4,-4e-5 -5.428e-4,-1.05e-4 -8.213e-4,-2.1e-4 -1.208e-4,-3.6e-5 -2.784e-4,-1.05e-4 -4.098e-4,-1.05e-4 -2.785e-4,6e-6 -5.428e-4,-1.1e-5 -8.212e-4,-1.05e-4 -1.997e-4,-4e-5 -4.256e-4,-2.1e-4 -6.158e-4,-3.15e-4 3.97e-5,4.7e-5 -3.416e-4,-5.3e-5 -4.099e-4,-1.05e-4 -1.366e-4,-5.3e-5 -3.573e-4,1.5e-5 -5.149e-4,0 -2.995e-4,2e-6 -6.258e-4,-1.58e-4 -9.237e-4,-2.1e-4 -2.575e-4,-5.3e-5 -4.414e-4,-1.58e-4 -7.183e-4,-2.11e-4 -2.785e-4,-5.2e-5 -6.457e-4,-1.57e-4 -9.237e-4,-2.1e-4 -2.995e-4,-5.2e-5 -5.254e-4,-2.1e-4 -8.212e-4,-3.15e-4 -2.207e-4,-1.05e-4 -4.992e-4,-1.05e-4 -7.183e-4,-2.1e-4 -1.103e-4,-4.9e-5 -2.049e-4,-1.05e-4 -3.1e-4,-1.05e-4 -7.88e-5,-6e-6 -1.261e-4,5e-6 -2.049e-4,0 -3.97e-5,-5e-6 -6.31e-5,5e-6 -1.051e-4,0 -6.83e-5,-4e-6 -1.366e-4,4e-6 -2.049e-4,0 -8.94e-5,-1.4e-5 -2.155e-4,-1.05e-4 -3.1e-4,-1.05e-4 -3.31e-5,-3e-6 -6.83e-5,2e-6 -1.051e-4,0 -3.43e-5,-7e-6 -6.83e-5,7e-6 -1.051e-4,0 -4.729e-4,-2.5e-5 -9.642e-4,-5.3e-5 -0.00144,-1.06e-4 -0.0023,-3.67e-4 -0.00486,-8.45e-4 -0.00718,-9.24e-4 -0.00314,-4.21e-4 -0.00583,-0.0013 -0.00883,-0.0023 -0.00356,-0.0011 -0.00737,-0.0023 -0.010878,-0.0036 v 5.26e-4 c -4.834e-4,-1.58e-4 -8.481e-4,-3.68e-4 -0.00123,-6.15e-4 h -0.00195 c -7.188e-4,0 -0.00113,-2.63e-4 -0.00133,-6.15e-4 h -6.158e-4 -0.00195 c -0.00128,0 -0.00168,-7.88e-4 -0.00133,-0.0013 -6.31e-5,-3.68e-4 2.56e-5,-7.83e-4 4.098e-4,-10e-4 -8.911e-4,-1.57e-4 -0.00165,-4.73e-4 -0.00236,-8.2e-4 z" />
    </clipPath>
    <linearGradient
       inkscape:collect="always"
       xlink:href="#linearGradient22557"
       id="linearGradient17310-5"
       x1="2.6796248"
       y1="12.585118"
       x2="4.4916534"
       y2="12.585118"
       gradientUnits="userSpaceOnUse" />
    <clipPath
       clipPathUnits="userSpaceOnUse"
       id="clipPath20775-8">
      <path
         id="path20777-7"
         style="fill:#ff0000;fill-opacity:1;fill-rule:nonzero;stroke:none;stroke-width:0.264583"
         d="m 4.1614757,11.461208 -1.9858628,1.05e-4 v 1.726021 h 1.9858628 v -0.319877 c -0.00138,1.5e-5 -0.00278,1.05e-4 -0.0041,0 -0.00185,-1.57e-4 -0.00331,-9.24e-4 -0.00513,-10e-4 -0.00122,-3.16e-4 -0.00296,2.1e-4 -0.00421,0 -3.52e-4,-6e-6 -6.815e-4,1.05e-4 -0.00103,1.05e-4 l 1.05e-4,1.05e-4 c 2.207e-4,1.57e-4 4.939e-4,4.2e-4 7.183e-4,6.15e-4 l 1.051e-4,1.05e-4 c 2.627e-4,1.57e-4 4.046e-4,4.2e-4 5.149e-4,6.14e-4 h 1.051e-4 v 1.06e-4 1.05e-4 c 8.41e-5,1.05e-4 2.207e-4,1.57e-4 3.1e-4,2.1e-4 2.995e-4,2.1e-4 6.058e-4,4.73e-4 9.237e-4,6.15e-4 2.575e-4,1.05e-4 4.782e-4,3.67e-4 7.183e-4,5.25e-4 0.00178,9.93e-4 8.638e-4,0.0025 -9.237e-4,0.0015 -2.365e-4,-1.57e-4 -4.782e-4,-2.1e-4 -7.183e-4,-3.15e-4 -3.783e-4,-2.1e-4 -7.692e-4,-4.73e-4 -0.00113,-7.2e-4 -2.995e-4,-2.1e-4 -5.628e-4,-4.72e-4 -8.213e-4,-7.19e-4 -4.97e-5,-5.2e-5 -5.78e-5,-1.58e-4 -1.051e-4,-2.11e-4 l -1.05e-4,-1.05e-4 h -1.051e-4 c -5.859e-4,-1.57e-4 -0.00115,-4.2e-4 -0.00174,-6.14e-4 -5.559e-4,-2.11e-4 -0.00109,-2.63e-4 -0.00164,-4.21e-4 -6.158e-4,-1.57e-4 -0.00129,-5.25e-4 -0.00185,-8.19e-4 -6.158e-4,-3.16e-4 -0.00115,-7.15e-4 -0.00174,-0.001 l -1.051e-4,-1.05e-4 h -1.051e-4 c -2.469e-4,-3.9e-5 -4.781e-4,-4.6e-5 -7.182e-4,-1.05e-4 -0.00132,-2.63e-4 -0.00225,-10e-4 -0.00359,-10e-4 -0.00114,-2.1e-4 -0.00239,-4.2e-4 -0.00308,-5.25e-4 -0.0014,-1.58e-4 -0.00268,-1.58e-4 -0.00411,-5.26e-4 -0.00119,-3.15e-4 -0.00245,-0.001 -0.00369,-0.001 -0.00135,-2.1e-4 -0.0027,-1.05e-4 -0.00411,-5.26e-4 -0.00193,-1.57e-4 -0.00376,-5.25e-4 -0.00564,-9.24e-4 -0.00167,-4.21e-4 -0.00352,-8.2e-4 -0.00523,-9.25e-4 -0.00159,-3.15e-4 -0.00303,2.62e-4 -0.00462,0 -0.00204,-1.58e-4 -0.00416,-5.83e-4 -0.00616,-9.25e-4 -0.00274,1.58e-4 -0.0057,-5.25e-4 -0.00831,-9.25e-4 -6.862e-4,-2.1e-4 -0.00132,-5.62e-4 -0.00195,-9.25e-4 -4.729e-4,-4e-6 -9.5e-4,-5.2e-5 -0.00144,-1.05e-4 -3.783e-4,-2e-5 -7.514e-4,-1.05e-4 -0.00113,-2.1e-4 -3.152e-4,-1.05e-4 -6.058e-4,-2.62e-4 -9.237e-4,-4.2e-4 -2.784e-4,-1.05e-4 -5.427e-4,-1.58e-4 -8.212e-4,-3.15e-4 -1.997e-4,-1.05e-4 -4.151e-4,-1.58e-4 -6.158e-4,-2.11e-4 -3.153e-4,-1.57e-4 -6.258e-4,-2.62e-4 -9.237e-4,-4.2e-4 -1.366e-4,-5.2e-5 -2.575e-4,-5.2e-5 -4.099e-4,-1.05e-4 -2.364e-4,-1.7e-5 -4.781e-4,-1.58e-4 -7.182e-4,-2.1e-4 -2.575e-4,-4.2e-5 -5.827e-4,-4.8e-5 -8.213e-4,-1.05e-4 -3.993e-4,-1.05e-4 -7.513e-4,-2.63e-4 -0.00113,-4.21e-4 -4.151e-4,-5.2e-5 -7.319e-4,-1.57e-4 -0.00113,-3.15e-4 -3.153e-4,-1.05e-4 -6.884e-4,-2.1e-4 -0.00103,-3.15e-4 -3.573e-4,-5.3e-5 -7.713e-4,-1.05e-4 -0.00113,-2.1e-4 -3.153e-4,-5.3e-5 -6.059e-4,-1.05e-4 -9.238e-4,-2.1e-4 -2.784e-4,-5.3e-5 -5.427e-4,-1.06e-4 -8.212e-4,-2.11e-4 -3.573e-4,-5.2e-5 -7.713e-4,-2.1e-4 -0.00113,-3.15e-4 -3.573e-4,-1.05e-4 -6.689e-4,-2.1e-4 -0.00103,-3.15e-4 -2.995e-4,-5.3e-5 -6.258e-4,-1.05e-4 -9.237e-4,-2.1e-4 -2.995e-4,-5.3e-5 -5.254e-4,-2.1e-4 -8.212e-4,-3.16e-4 -2.365e-4,-5.2e-5 -4.782e-4,-1.57e-4 -7.183e-4,-2.1e-4 -2.365e-4,-1.05e-4 -4.624e-4,-1.57e-4 -7.183e-4,-2.1e-4 -3.363e-4,-1.05e-4 -7.083e-4,-2.1e-4 -0.00103,-3.15e-4 -1.997e-4,-1.05e-4 -3.153e-4,-5.3e-5 -5.15e-4,-1.05e-4 -2.995e-4,-2.1e-5 -6.457e-4,-4.5e-5 -9.237e-4,-1.05e-4 -3.363e-4,-5.3e-5 -6.058e-4,-2.11e-4 -9.237e-4,-3.16e-4 -2.995e-4,-4e-5 -5.428e-4,-1.05e-4 -8.212e-4,-2.1e-4 -1.209e-4,-3.5e-5 -2.785e-4,-1.05e-4 -4.099e-4,-1.05e-4 -2.784e-4,6e-6 -5.427e-4,-1.1e-5 -8.212e-4,-1.05e-4 -1.997e-4,-4e-5 -4.256e-4,-2.1e-4 -6.158e-4,-3.15e-4 3.97e-5,4.7e-5 -3.416e-4,-5.3e-5 -4.099e-4,-1.05e-4 -1.366e-4,-5.3e-5 -3.573e-4,1.5e-5 -5.149e-4,0 -2.995e-4,2e-6 -6.258e-4,-1.58e-4 -9.237e-4,-2.1e-4 -2.575e-4,-5.3e-5 -4.414e-4,-1.58e-4 -7.183e-4,-2.11e-4 -2.784e-4,-5.2e-5 -6.457e-4,-1.57e-4 -9.237e-4,-2.1e-4 -2.995e-4,-5.2e-5 -5.254e-4,-2.1e-4 -8.212e-4,-3.15e-4 -8.41e-5,-3.4e-5 -2.154e-4,-5.3e-5 -3.1e-4,-1.05e-4 -3.6e-5,-4e-6 -6.83e-5,4e-6 -1.051e-4,0 -7.36e-5,-1.9e-5 -1.314e-4,1.9e-5 -2.049e-4,0 -9.426e-4,-1.05e-4 -0.00193,-1.58e-4 -0.00287,-2.1e-4 -0.0023,-3.68e-4 -0.00497,-8.94e-4 -0.00729,-9.25e-4 -0.00314,-4.2e-4 -0.00572,-0.0015 -0.00872,-0.0025 -0.00356,-0.0011 -0.00737,-0.0023 -0.010878,-0.0036 v 6.14e-4 c -6.61e-4,-2.1e-4 -0.00123,-6.04e-4 -0.00174,-9.24e-4 h -0.00144 c -7.188e-4,0 -0.00113,-2.63e-4 -0.00133,-6.15e-4 h -6.158e-4 -0.00195 c -0.00128,0 -0.00168,-8.3e-4 -0.00133,-0.0013 -6.3e-5,-3.15e-4 2.1e-6,-8.46e-4 3.1e-4,-10e-4 -0.00764,-0.0018 -0.00705,-0.0096 8.213e-4,-0.01006 5.553e-4,-3.1e-5 0.00142,-4.7e-5 0.00205,0 0.00308,2.63e-4 0.00626,9.36e-4 0.00934,0.0014 -6.347e-4,-0.0012 -0.00112,-0.0031 -5.149e-4,-0.0045 9.526e-4,-0.0011 0.00338,-0.003 0.00564,-0.0033 h 6.158e-4 c 6.084e-4,-8.99e-4 0.0017,-0.0021 0.00308,-0.0025 0.00127,-3.15e-4 0.00325,-4.2e-4 0.00513,0 0.00293,6.1e-4 0.00547,0.0018 0.00831,0.0025 3.152e-4,5.2e-5 6.809e-4,-5.3e-5 0.00103,0 -3.678e-4,-3.16e-4 -6.016e-4,-6.63e-4 -0.00103,-9.25e-4 -0.00299,-0.0025 -0.00606,-0.0053 -0.00883,-0.0077 -0.00366,-0.0036 -0.00713,-0.0074 -0.010365,-0.01139 -0.00326,-0.0042 -0.00641,-0.0086 -0.00872,-0.01344 -0.00279,-0.0058 -3.1e-4,-0.01012 0.00308,-0.01006 9.258e-4,2.5e-5 0.00212,5.31e-4 0.00308,9.25e-4 0.00143,-7.14e-4 0.00375,-9.98e-4 0.00626,-6.15e-4 5.822e-4,1.05e-4 9.537e-4,4.73e-4 0.00154,6.15e-4 0.00119,2.63e-4 0.00235,4.9e-5 0.00359,0 h 0.00523 0.00513 0.00554 c 0.00238,0 0.005,-9e-6 0.00739,0 0.00275,5e-6 0.00546,-3.6e-5 0.00821,0 0.00297,3.6e-5 0.00588,4.21e-4 0.00883,6.15e-4 0.00214,1.58e-4 0.0045,2.63e-4 0.00667,6.15e-4 -0.00217,-0.0036 -0.00103,-0.0069 0.00164,-0.0078 0.00196,-6.1e-4 0.00496,5.88e-4 0.0077,0.0034 0.00273,0.0027 0.00502,0.0051 0.00729,0.0081 0.00122,3.67e-4 0.00243,6.67e-4 0.00359,9.24e-4 3.153e-4,-3.15e-4 6.81e-4,-8.25e-4 0.00103,-9.24e-4 0.00365,-0.0033 0.0077,-0.0061 0.011391,-0.0094 0.00143,-0.0013 0.00281,-0.0024 0.0041,-0.0028 0.0056,-0.0015 0.00874,0.0047 0.00257,0.01026 -0.0029,0.0026 -0.00591,0.0052 -0.00872,0.0078 0.00309,0.0016 0.00595,0.0031 0.00872,0.0052 0.00479,0.0035 0.00957,0.0069 0.013444,0.01139 0.00303,0.004 0.00566,0.0078 0.00616,0.01293 3.153e-4,0.0052 -5.501e-4,0.0099 -0.00308,0.01447 -0.00283,0.0043 -0.00626,0.0068 -0.010878,0.0091 -0.00103,4.73e-4 -0.00183,7.99e-4 -0.00257,9.25e-4 8.464e-4,4.2e-4 0.00173,7.57e-4 0.00257,0.0011 0.00119,6.88e-4 0.00289,9.35e-4 0.00421,0.0013 3.573e-4,1.05e-4 5.47e-4,3.15e-4 6.158e-4,4.21e-4 7.88e-5,4.4e-5 2.102e-4,2.3e-5 4.098e-4,1.05e-4 0.0046,0.0013 0.00608,0.0046 0.00564,0.007 3.415e-4,-1.1e-5 6.016e-4,-5e-6 0.00103,0 0.00164,5e-6 0.0036,4.73e-4 0.00523,6.15e-4 0.00172,3.15e-4 0.0034,4.73e-4 0.00513,6.14e-4 0.00108,5.2e-5 0.00204,1.7e-5 0.00308,0 z m -0.1205823,1.330613 c 9.463e-4,0.0018 0.00166,0.0037 0.00277,0.0048 0.00296,0.0036 0.006,0.007 0.00934,0.01037 0.00257,0.0026 0.00493,0.0044 0.0077,0.0067 0.00188,0.0015 0.00433,0.0032 0.00626,0.0047 0.00153,0.0012 0.00304,0.0025 0.00462,0.0036 0.00122,8.72e-4 0.00235,0.0018 0.00359,0.0026 3.731e-4,1.7e-5 6.284e-4,-1.8e-5 0.00103,0 -5.822e-4,-0.0027 -8.417e-4,-0.0056 -5.149e-4,-0.0083 5.822e-4,-0.0037 0.00289,-0.006 0.00523,-0.0089 0.00286,-0.003 0.00624,-0.0061 0.00975,-0.0077 0.00265,-0.0017 0.00551,-0.0023 0.00831,-0.0036 l 0.00103,-6.15e-4 c 5.821e-4,-3.15e-4 9.851e-4,-4.2e-4 0.00154,-6.15e-4 -0.00201,-5.57e-4 -0.00409,-10e-4 -0.00616,-0.0014 -0.00378,-6.89e-4 -0.00756,-0.001 -0.011391,-0.001 -0.00279,-1.57e-4 -0.00552,-4.73e-4 -0.00831,-5.25e-4 -0.00271,-3.2e-5 -0.0055,5e-6 -0.00821,0 -0.00238,-6e-6 -0.00493,1e-6 -0.00729,0 h -0.00564 -0.00513 -0.00523 c -0.00118,4.2e-5 -0.00218,1.57e-4 -0.00328,0 z m 0.07666,0.009 c 7.876e-4,0.0019 0.00135,0.0036 0.00205,0.0053 3.993e-4,9.98e-4 7.077e-4,0.002 0.00103,0.0031 0.00127,5.57e-4 0.00256,0.0017 0.00369,0.0023 0.00204,0.002 0.00381,0.004 0.00462,0.0068 3.994e-4,0.0019 1.734e-4,0.0037 5.15e-4,0.0056 3.152e-4,0.0023 6.047e-4,0.0049 5.149e-4,0.0072 -1.051e-4,0.0019 -4.309e-4,0.0034 -0.00103,0.0052 h 6.158e-4 c 5.044e-4,-1.05e-4 0.00218,-8.88e-4 0.00257,-0.0011 0.00271,-0.0014 0.00453,-0.0031 0.00616,-0.0056 6.878e-4,-0.0016 0.00141,-0.0029 0.00154,-0.0047 1.42e-5,-2.1e-4 0,-0.0031 0,-0.0031 -4.518e-4,-0.003 -0.0023,-0.0053 -0.00411,-0.0077 -0.00333,-0.0037 -0.00739,-0.0059 -0.011391,-0.0088 -0.0022,-0.0017 -0.00437,-0.003 -0.00677,-0.0044 z m -0.025245,0.0086 c -0.00132,9.25e-4 -0.00258,0.0024 -0.00369,0.0035 2.049e-4,4.72e-4 3.257e-4,6.25e-4 5.149e-4,0.0011 1.366e-4,4.21e-4 4.046e-4,9.25e-4 6.158e-4,10e-4 9.258e-4,-0.0019 0.00151,-0.0038 0.00257,-0.0056 z m 0.012828,0.007 c 2.207e-4,0.0022 4.309e-4,0.0046 6.158e-4,0.0067 l 5.149e-4,-5.26e-4 c 0.0022,-0.0013 0.00404,-0.0015 0.00564,-0.0015 -8.4e-5,-8.72e-4 1.209e-4,-0.0019 0,-0.0027 -4.66e-5,-3.16e-4 5.26e-5,-7.99e-4 0,-9.25e-4 h -5.149e-4 c -0.00196,-3.15e-4 -0.0036,-10e-4 -0.00564,-10e-4 z m -0.0079,0.0311 -1.051e-4,1.05e-4 1.051e-4,1.05e-4 h 1.051e-4 c 1.32e-5,-5e-5 -8.93e-5,-1.05e-4 -1.051e-4,-2.1e-4 z" />
    </clipPath>
    <linearGradient
       inkscape:collect="always"
       xlink:href="#linearGradient22557"
       id="linearGradient17342-0"
       gradientUnits="userSpaceOnUse"
       x1="2.6796248"
       y1="12.585118"
       x2="4.4916534"
       y2="12.585118"
       gradientTransform="translate(1.2473138,-0.09311906)" />
    <clipPath
       clipPathUnits="userSpaceOnUse"
       id="clipPath20741-2">
      <path
         id="path20743-4"
         style="fill:#ff0000;fill-opacity:1;fill-rule:nonzero;stroke:none;stroke-width:0.264583"
         d="m 2.7228002,11.409588 v 1.533807 h 1.316246 v -0.09718 c -0.00356,-0.0011 -0.00737,-0.0023 -0.010878,-0.0036 v 5.25e-4 c -4.676e-4,-1.57e-4 -8.549e-4,-4.2e-4 -0.00123,-6.14e-4 h -0.00195 c -7.188e-4,0 -0.00113,-2.63e-4 -0.00133,-6.15e-4 h -6.158e-4 -0.00195 c -4.782e-4,0 -9.921e-4,-2.1e-4 -0.00123,-4.2e-4 -2.154e-4,-2.63e-4 -2.784e-4,-6.36e-4 -1.05e-4,-9.25e-4 -6.31e-5,-3.68e-4 2.49e-5,-8.57e-4 4.098e-4,-0.0011 -0.00773,-0.0017 -0.00708,-0.0097 8.212e-4,-0.01006 5.56e-4,-3.1e-5 0.00142,-5e-5 0.00205,0 0.00306,2.63e-4 0.00618,10e-4 0.00924,0.0015 -6.348e-4,-0.0012 -0.00112,-0.0033 -5.15e-4,-0.0047 9.526e-4,-0.0011 0.00349,-0.0028 0.00575,-0.0031 h 5.15e-4 c 1.839e-4,-2.63e-4 7.524e-4,-3.68e-4 0.00103,-6.15e-4 v -0.01498 c -0.00127,-0.0015 -0.00248,-0.0031 -0.00369,-0.0046 -0.00326,-0.0042 -0.00641,-0.0086 -0.00872,-0.01344 -0.00279,-0.0057 -3.1e-4,-0.0096 0.00308,-0.0095 9.264e-4,2.5e-5 0.00212,4.21e-4 0.00308,9.25e-4 0.00143,-7.14e-4 0.00375,-0.0011 0.00626,-6.15e-4 v -1.370328 z" />
    </clipPath>
    <linearGradient
       inkscape:collect="always"
       xlink:href="#linearGradient17355"
       id="linearGradient17357-6"
       x1="4.3521891"
       y1="12.535544"
       x2="4.4411697"
       y2="12.535544"
       gradientUnits="userSpaceOnUse"
       gradientTransform="matrix(0.22743278,0,0,0.2277987,3.0280403,10.010582)" />
    <clipPath
       clipPathUnits="userSpaceOnUse"
       id="clipPath20785-1">
      <path
         id="path20787-9"
         style="fill:#ff0000;fill-opacity:1;fill-rule:nonzero;stroke:none;stroke-width:0.264583"
         d="m 4.0178032,12.82661 v 0.0036 c 9.263e-4,-4.73e-4 0.0018,-10e-4 0.00318,-10e-4 5.553e-4,-3.1e-5 0.00142,-5e-5 0.00205,0 0.00304,2.62e-4 0.0062,0.0011 0.00924,0.0016 -5.822e-4,-0.0011 -8.77e-4,-0.0029 -5.149e-4,-0.0041 z m 0,0.01211 v 0.05306 h 0.058906 v -0.03725 c -2.312e-4,-4e-5 -5.044e-4,-5.3e-5 -7.183e-4,-1.05e-4 -3.152e-4,-5.3e-5 -6.058e-4,-1.05e-4 -9.237e-4,-2.1e-4 -2.785e-4,-5.3e-5 -5.427e-4,-1.06e-4 -8.212e-4,-2.11e-4 -3.573e-4,-5.2e-5 -7.714e-4,-2.1e-4 -0.00113,-3.15e-4 -3.572e-4,-1.05e-4 -6.688e-4,-2.1e-4 -0.00103,-3.15e-4 -2.995e-4,-5.3e-5 -6.258e-4,-1.05e-4 -9.237e-4,-2.1e-4 -2.995e-4,-5.3e-5 -5.255e-4,-2.11e-4 -8.213e-4,-3.16e-4 -2.364e-4,-5.2e-5 -4.781e-4,-1.57e-4 -7.182e-4,-2.1e-4 -2.365e-4,-1.05e-4 -4.624e-4,-1.57e-4 -7.183e-4,-2.1e-4 -3.363e-4,-1.05e-4 -7.083e-4,-2.1e-4 -0.00103,-3.15e-4 -1.996e-4,-1.05e-4 -3.152e-4,-5.3e-5 -5.149e-4,-1.05e-4 -2.995e-4,-2.1e-5 -6.457e-4,-4.5e-5 -9.237e-4,-1.05e-4 -3.363e-4,-5.3e-5 -6.058e-4,-2.11e-4 -9.237e-4,-3.16e-4 -2.995e-4,-4e-5 -5.428e-4,-1.05e-4 -8.213e-4,-2.1e-4 -1.208e-4,-3.6e-5 -2.784e-4,-1.05e-4 -4.098e-4,-1.05e-4 -2.785e-4,6e-6 -5.428e-4,-1.1e-5 -8.212e-4,-1.05e-4 -1.997e-4,-4e-5 -4.256e-4,-2.1e-4 -6.158e-4,-3.15e-4 3.97e-5,4.7e-5 -3.416e-4,-5.3e-5 -4.099e-4,-1.05e-4 -1.366e-4,-5.3e-5 -3.573e-4,1.5e-5 -5.149e-4,0 -2.995e-4,2e-6 -6.258e-4,-1.58e-4 -9.237e-4,-2.1e-4 -2.575e-4,-5.3e-5 -4.414e-4,-1.58e-4 -7.183e-4,-2.11e-4 -2.785e-4,-5.2e-5 -6.457e-4,-1.57e-4 -9.237e-4,-2.1e-4 -2.995e-4,-5.2e-5 -5.254e-4,-2.1e-4 -8.212e-4,-3.15e-4 -2.207e-4,-1.05e-4 -4.992e-4,-1.05e-4 -7.183e-4,-2.1e-4 -1.103e-4,-4.9e-5 -2.049e-4,-1.05e-4 -3.1e-4,-1.05e-4 -7.88e-5,-6e-6 -1.261e-4,5e-6 -2.049e-4,0 -3.97e-5,-5e-6 -6.31e-5,5e-6 -1.051e-4,0 -6.83e-5,-4e-6 -1.366e-4,4e-6 -2.049e-4,0 -8.94e-5,-1.4e-5 -2.155e-4,-1.05e-4 -3.1e-4,-1.05e-4 -3.31e-5,-3e-6 -6.83e-5,2e-6 -1.051e-4,0 -3.43e-5,-7e-6 -6.83e-5,7e-6 -1.051e-4,0 -4.729e-4,-2.5e-5 -9.642e-4,-5.3e-5 -0.00144,-1.06e-4 -0.0023,-3.67e-4 -0.00486,-8.45e-4 -0.00718,-9.24e-4 -0.00314,-4.21e-4 -0.00583,-0.0013 -0.00883,-0.0023 -0.00356,-0.0011 -0.00737,-0.0023 -0.010878,-0.0036 v 5.26e-4 c -4.834e-4,-1.58e-4 -8.481e-4,-3.68e-4 -0.00123,-6.15e-4 h -0.00195 c -7.188e-4,0 -0.00113,-2.63e-4 -0.00133,-6.15e-4 h -6.158e-4 -0.00195 c -0.00128,0 -0.00168,-7.88e-4 -0.00133,-0.0013 -6.31e-5,-3.68e-4 2.56e-5,-7.83e-4 4.098e-4,-10e-4 -8.911e-4,-1.57e-4 -0.00165,-4.73e-4 -0.00236,-8.2e-4 z" />
    </clipPath>
    <linearGradient
       inkscape:collect="always"
       xlink:href="#linearGradient22549"
       id="linearGradient22559"
       x1="38.023846"
       y1="1.4376011"
       x2="43.74728"
       y2="1.4376011"
       gradientUnits="userSpaceOnUse" />
    <linearGradient
       inkscape:collect="always"
       xlink:href="#linearGradient22549"
       id="linearGradient22559-8"
       x1="38.023846"
       y1="1.4376011"
       x2="43.74728"
       y2="1.4376011"
       gradientUnits="userSpaceOnUse" />
    <linearGradient
       inkscape:collect="always"
       xlink:href="#linearGradient22549"
       id="linearGradient22559-0"
       x1="38.023846"
       y1="1.4376011"
       x2="43.74728"
       y2="1.4376011"
       gradientUnits="userSpaceOnUse" />
    <linearGradient
       inkscape:collect="always"
       xlink:href="#linearGradient22549"
       id="linearGradient22559-0-6"
       x1="38.023846"
       y1="1.4376011"
       x2="43.74728"
       y2="1.4376011"
       gradientUnits="userSpaceOnUse" />
    <linearGradient
       inkscape:collect="always"
       xlink:href="#linearGradient22557"
       id="linearGradient29493"
       gradientTransform="matrix(9.5367431e-7,0,0,9.5367431e-7,16.963492,140.85807)"
       gradientUnits="userSpaceOnUse" />
  </defs>
  <g
     inkscape:label="Warstwa 1"
     inkscape:groupmode="layer"
     id="layer1">
    <path
       sodipodi:type="spiral"
       style="fill:#000000;fill-opacity:0;fill-rule:evenodd;stroke:url(#linearGradient22559-0);stroke-width:0.50033;stroke-linecap:round;stroke-dasharray:none"
       id="path22541-5"
       sodipodi:cx="40.726868"
       sodipodi:cy="4.0224066"
       sodipodi:expansion="0"
       sodipodi:revolution="0.31"
       sodipodi:radius="3.4715228"
       sodipodi:argument="-2.4632721"
       sodipodi:t0="0"
       d="m 38.023844,1.8440737 c 1.186609,-1.47242466 3.408932,-1.71129935 4.881357,-0.5246907 0.339845,0.2738768 0.62692,0.611964 0.842079,0.9917136"
       transform="matrix(1.6930735,0.99291748,-0.58965081,2.8509808,-59.153196,-40.704581)" />
    <path
       sodipodi:type="spiral"
       style="fill:#000000;fill-opacity:0;fill-rule:evenodd;stroke:url(#linearGradient22559-0-6);stroke-width:0.50033;stroke-linecap:round;stroke-dasharray:none"
       id="path22541-5-9"
       sodipodi:cx="40.726868"
       sodipodi:cy="4.0224066"
       sodipodi:expansion="0"
       sodipodi:revolution="0.31"
       sodipodi:radius="3.4715228"
       sodipodi:argument="-2.4632721"
       sodipodi:t0="0"
       d="m 38.023844,1.8440737 c 1.186609,-1.47242466 3.408932,-1.71129935 4.881357,-0.5246907 0.339845,0.2738768 0.62692,0.611964 0.842079,0.9917136"
       transform="matrix(-1.6930748,0.99291752,0.58965124,2.8509808,89.153179,-40.704583)" />
    <ellipse
       style="fill:#a80000;fill-opacity:1;stroke-width:0;stroke-dasharray:none"
       id="path1892"
       cx="15"
       cy="24.187658"
       rx="15"
       ry="15.118793" />
    <path
       style="fill:#000000;fill-opacity:0;stroke:url(#linearGradient17310);stroke-width:0.1;stroke-dasharray:none"
       id="path13568"
       sodipodi:type="arc"
       sodipodi:cx="3.358444"
       sodipodi:cy="12.052034"
       sodipodi:rx="1.1332082"
       sodipodi:ry="1.085"
       sodipodi:start="0.82379541"
       sodipodi:end="3.6878807"
       sodipodi:arc-type="arc"
       d="M 4.1283924,12.848131 A 1.1332082,1.085 0 0 1 2.6414571,12.89225 1.1332082,1.085 0 0 1 2.3901643,11.488356"
       sodipodi:open="true"
       clip-path="url(#clipPath20775)"
       transform="matrix(5.0355474,0,0,5.0754266,-6.9554471,-22.93068)" />
    <path
       style="fill:#000000;fill-opacity:0;stroke:url(#linearGradient17342);stroke-width:0.1;stroke-dasharray:none"
       id="path13568-6"
       sodipodi:type="arc"
       sodipodi:cx="4.6057572"
       sodipodi:cy="11.958917"
       sodipodi:rx="1.8329999"
       sodipodi:ry="0.98500001"
       sodipodi:start="1.8901916"
       sodipodi:end="3.6878807"
       sodipodi:arc-type="arc"
       d="M 4.030209,12.894101 A 1.8329999,0.98500001 0 0 1 2.8854996,12.299035 1.8329999,0.98500001 0 0 1 3.0395342,11.44719"
       sodipodi:open="true"
       clip-path="url(#clipPath20741)"
       transform="matrix(5.0355474,0,0,5.0754266,-6.9554471,-22.93068)" />
    <ellipse
       style="fill:#000000;fill-opacity:0;stroke:url(#linearGradient17357);stroke-width:0;stroke-dasharray:none"
       id="path17351"
       cx="4.0473704"
       cy="12.859128"
       rx="0.029499814"
       ry="0.032725666"
       clip-path="url(#clipPath20785)"
       transform="matrix(5.0355474,0,0,5.0754266,-6.9554471,-22.93068)" />
    <path
       style="fill:#000000;fill-opacity:0;stroke-width:0;stroke-dasharray:none"
       d="M 9.7091545,43.483093 C 7.788506,43.398266 6.052089,42.342903 5.1481596,40.710992 c -0.35955,-0.649113 -0.565266,-1.332285 -0.629928,-2.09195 -0.01033,-0.121318 -0.014,-0.509941 -0.0061,-0.649537 0.03498,-0.621499 0.177137,-1.215367 0.426904,-1.783467 0.07395,-0.16821 0.231568,-0.470869 0.308028,-0.591488 l 0.01961,-0.03093 H 6.439398 7.612122 l -0.01544,0.01915 c -0.285874,0.354613 -0.484312,0.690241 -0.631494,1.068074 -0.185774,0.476904 -0.251389,0.989732 -0.189626,1.482046 0.125833,1.003003 0.748905,1.951021 1.809158,2.752676 0.724566,0.547846 1.644905,1.014508 2.701091,1.369603 0.476551,0.160218 1.06942,0.322025 1.504018,0.410477 0.03618,0.0074 0.06577,0.01478 0.06577,0.01651 0,0.0033 -0.13314,0.08029 -0.245554,0.141985 -0.142818,0.07839 -0.369298,0.183974 -0.555419,0.258942 -0.737414,0.297033 -1.547819,0.435249 -2.3454315,0.400024 z"
       id="path21638" />
    <path
       style="fill:#000000;fill-opacity:0;stroke-width:0;stroke-dasharray:none"
       d="m 9.8714305,43.997981 c -0.130953,-0.0016 -0.2591535,-0.0076 -0.3963575,-0.01816 -0.01819,-0.0013 -0.03575,-0.0028 -0.03902,-0.0032 l -0.0059,-5.34e-4 v -0.254219 -0.25422 l 0.0065,5.35e-4 c 0.06568,0.0068 0.20231,0.01573 0.2953305,0.01941 0.06969,0.0027 0.09486,0.0032 0.188619,0.0038 0.1363925,8e-4 0.2350425,-0.0016 0.3581175,-0.0086 0.876336,-0.04995 1.728778,-0.30344 2.481394,-0.737895 0.015,-0.0087 0.02745,-0.01576 0.02765,-0.01576 2.03e-4,0 2.51e-4,0.129926 1.08e-4,0.288723 l -2.61e-4,0.288719 -0.04857,0.02481 c -0.786144,0.401404 -1.651676,0.627076 -2.540414,0.662366 -0.06848,0.0027 -0.2101145,0.0055 -0.2552805,0.005 -0.008,-8.3e-5 -0.04028,-5.33e-4 -0.07183,-8e-4 z"
       id="path21640" />
    <path
       style="fill:#000000;fill-opacity:0;stroke-width:0;stroke-dasharray:none"
       d="m 9.8445585,43.490096 c -0.11495,-0.003 -0.1761015,-0.0057 -0.2619985,-0.01141 -0.06117,-0.004 -0.151277,-0.01144 -0.152329,-0.01251 -0.0016,-0.0016 0.0041,-0.0013 0.0316,0.0011 0.2508215,0.022 0.5013255,0.02723 0.751178,0.0157 0.609302,-0.0281 1.217499,-0.15618 1.779737,-0.374785 0.20941,-0.08142 0.456209,-0.194966 0.623734,-0.286962 0.0401,-0.02202 0.09484,-0.05276 0.136068,-0.0764 0.01885,-0.0108 0.03454,-0.01965 0.03488,-0.01965 3.44e-4,0 6.09e-4,5.33e-4 5.82e-4,0.0013 -3.4e-5,0.0013 -0.03088,0.01936 -0.08885,0.05185 -0.151211,0.08472 -0.305069,0.16172 -0.463073,0.231758 -0.565039,0.250456 -1.170354,0.405922 -1.790536,0.459874 -0.103344,0.009 -0.191625,0.01419 -0.320911,0.01891 -0.02784,0.0011 -0.2521375,0.0021 -0.2800855,0.0013 z"
       id="path21642" />
    <path
       style="fill:#a80000;fill-opacity:0;stroke:url(#linearGradient17310-5);stroke-width:0.1;stroke-dasharray:none"
       id="path13568-2"
       sodipodi:type="arc"
       sodipodi:cx="3.358444"
       sodipodi:cy="12.052034"
       sodipodi:rx="1.1332082"
       sodipodi:ry="1.085"
       sodipodi:start="0.82379541"
       sodipodi:end="3.6878807"
       sodipodi:arc-type="arc"
       d="M 4.1283924,12.848131 A 1.1332082,1.085 0 0 1 2.6414571,12.89225 1.1332082,1.085 0 0 1 2.3901643,11.488356"
       sodipodi:open="true"
       clip-path="url(#clipPath20775-8)"
       transform="matrix(-5.0355474,0,0,5.0754266,36.955307,-22.930474)" />
    <path
       style="fill:#000000;fill-opacity:0;stroke:url(#linearGradient17342-0);stroke-width:0.1;stroke-dasharray:none"
       id="path13568-6-4"
       sodipodi:type="arc"
       sodipodi:cx="4.6057572"
       sodipodi:cy="11.958917"
       sodipodi:rx="1.8329999"
       sodipodi:ry="0.98500001"
       sodipodi:start="1.8901916"
       sodipodi:end="3.6878807"
       sodipodi:arc-type="arc"
       d="M 4.030209,12.894101 A 1.8329999,0.98500001 0 0 1 2.8854996,12.299035 1.8329999,0.98500001 0 0 1 3.0395342,11.44719"
       sodipodi:open="true"
       clip-path="url(#clipPath20741-2)"
       transform="matrix(-5.0355474,0,0,5.0754266,36.955307,-22.930474)" />
    <path
       style="fill:#000000;fill-opacity:0;stroke-width:0.505576;stroke-dasharray:none"
       id="path17345-4"
       sodipodi:type="arc"
       sodipodi:cx="-23.063046"
       sodipodi:cy="36.954178"
       sodipodi:rx="0.57685006"
       sodipodi:ry="0.15101933"
       sodipodi:start="1.8901916"
       sodipodi:end="3.6878807"
       sodipodi:open="true"
       sodipodi:arc-type="arc"
       d="m -23.244172,37.097559 a 0.57685006,0.15101933 0 0 1 -0.360243,-0.09123 0.57685006,0.15101933 0 0 1 0.04847,-0.130605"
       transform="scale(-1,1)" />
    <path
       style="fill:#000000;fill-opacity:0;stroke-width:0.505576;stroke-dasharray:none"
       id="path17347-6"
       sodipodi:type="arc"
       sodipodi:cx="-17.298363"
       sodipodi:cy="41.472401"
       sodipodi:rx="0.62973005"
       sodipodi:ry="0.68979609"
       sodipodi:start="1.8901916"
       sodipodi:end="3.6878807"
       sodipodi:open="true"
       sodipodi:arc-type="arc"
       d="m -17.496093,42.127311 a 0.62973005,0.68979609 0 0 1 -0.393267,-0.416725 0.62973005,0.68979609 0 0 1 0.05292,-0.596548"
       transform="scale(-1,1)" />
    <ellipse
       style="fill:#000000;fill-opacity:0;stroke:url(#linearGradient17357-6);stroke-width:0;stroke-dasharray:none"
       id="path17351-4"
       cx="4.0473704"
       cy="12.859128"
       rx="0.029499814"
       ry="0.032725666"
       clip-path="url(#clipPath20785-1)"
       transform="matrix(-5.0355474,0,0,5.0754266,36.955307,-22.930474)" />
    <rect
       style="fill:#000000;fill-opacity:0;stroke-width:0;stroke-dasharray:none"
       id="rect20841-0"
       width="2.9700518"
       height="0.58242208"
       x="-24.794472"
       y="34.978443"
       transform="scale(-1,1)" />
    <path
       style="fill:#000000;fill-opacity:0;stroke-width:0;stroke-dasharray:none"
       d="m 20.290705,43.483299 c 1.920649,-0.08483 3.657066,-1.14019 4.560995,-2.772102 0.35955,-0.649112 0.565266,-1.332284 0.629928,-2.09195 0.01033,-0.121317 0.014,-0.509941 0.0061,-0.649536 -0.03498,-0.6215 -0.177137,-1.215367 -0.426904,-1.783468 -0.07395,-0.168209 -0.231568,-0.470869 -0.308028,-0.591487 l -0.01961,-0.03093 h -1.172724 -1.172724 l 0.01544,0.01915 c 0.285874,0.354613 0.484312,0.690242 0.631494,1.068074 0.185774,0.476905 0.251389,0.989733 0.189626,1.482046 -0.125833,1.003003 -0.748905,1.951022 -1.809158,2.752677 -0.724566,0.547846 -1.644906,1.014507 -2.701092,1.369602 -0.476551,0.160218 -1.06942,0.322026 -1.504018,0.410478 -0.03618,0.0074 -0.06577,0.01478 -0.06577,0.01651 0,0.0033 0.13314,0.08029 0.245554,0.141986 0.142818,0.07839 0.369298,0.183973 0.555419,0.258941 0.737414,0.297033 1.547819,0.435249 2.345432,0.400025 z"
       id="path21638-4" />
    <path
       style="fill:#000000;fill-opacity:0;stroke-width:0;stroke-dasharray:none"
       d="m 20.128429,43.998186 c 0.130953,-0.0016 0.259154,-0.0076 0.396358,-0.01816 0.01819,-0.0013 0.03575,-0.0028 0.03902,-0.0032 l 0.0059,-5.34e-4 v -0.25422 -0.254219 l -0.0065,5.34e-4 c -0.06568,0.0068 -0.20231,0.01573 -0.295331,0.01941 -0.06969,0.0027 -0.09486,0.0032 -0.188619,0.0038 -0.136393,8e-4 -0.235043,-0.0016 -0.358118,-0.0086 -0.876336,-0.04995 -1.728778,-0.30344 -2.481394,-0.737894 -0.015,-0.0087 -0.02745,-0.01576 -0.02765,-0.01576 -2.03e-4,0 -2.51e-4,0.129926 -1.08e-4,0.288722 l 2.61e-4,0.28872 0.04857,0.02481 c 0.786144,0.401404 1.651676,0.627076 2.540414,0.662365 0.06848,0.0027 0.210115,0.0055 0.255281,0.005 0.008,-8.3e-5 0.04028,-5.33e-4 0.07183,-8.01e-4 z"
       id="path21640-6" />
    <path
       style="fill:#000000;fill-opacity:0;stroke-width:0;stroke-dasharray:none"
       d="m 20.155301,43.490302 c 0.11495,-0.003 0.176102,-0.0057 0.261999,-0.01141 0.06117,-0.004 0.151277,-0.01144 0.152329,-0.01251 0.0016,-0.0016 -0.0041,-0.0013 -0.0316,0.0011 -0.250822,0.022 -0.501326,0.02723 -0.751179,0.0157 -0.609302,-0.0281 -1.217499,-0.15618 -1.779737,-0.374785 -0.20941,-0.08142 -0.456209,-0.194966 -0.623734,-0.286963 -0.0401,-0.02202 -0.09484,-0.05275 -0.136068,-0.0764 -0.01885,-0.0108 -0.03454,-0.01966 -0.03488,-0.01966 -3.44e-4,0 -6.09e-4,5.34e-4 -5.82e-4,0.0013 3.4e-5,0.0013 0.03088,0.01936 0.08885,0.05185 0.151211,0.08472 0.305069,0.16172 0.463073,0.231758 0.565039,0.250456 1.170354,0.405922 1.790536,0.459873 0.103344,0.009 0.191625,0.01419 0.320911,0.01891 0.02784,0.0011 0.252138,0.0021 0.280086,0.0013 z"
       id="path21642-3" />
    <ellipse
       style="fill:#ffffff;fill-opacity:1;stroke-width:0;stroke-dasharray:none"
       id="path22488"
       cx="9.0154572"
       cy="22.351484"
       rx="4.0154572"
       ry="3.8020349" />
    <ellipse
       style="fill:#000000;fill-opacity:1;stroke-width:0;stroke-dasharray:none"
       id="path22512"
       cx="9.0154572"
       cy="21.97127"
       rx="2.0077286"
       ry="1.520816" />
    <path
       sodipodi:type="spiral"
       style="fill:none;fill-opacity:1;fill-rule:evenodd;stroke:url(#linearGradient22559);stroke-width:0.50033;stroke-linecap:round;stroke-dasharray:none"
       id="path22541"
       sodipodi:cx="40.726868"
       sodipodi:cy="4.0224066"
       sodipodi:expansion="0"
       sodipodi:revolution="0.31"
       sodipodi:radius="3.4715228"
       sodipodi:argument="-2.4632721"
       sodipodi:t0="0"
       d="m 38.023844,1.8440737 c 1.186609,-1.47242466 3.408932,-1.71129935 4.881357,-0.5246907 0.339845,0.2738768 0.62692,0.611964 0.842079,0.9917136"
       transform="matrix(1.3044847,0.49473867,-0.45431604,1.4205514,-42.4745,-4.206202)" />
    <ellipse
       style="fill:#ffffff;fill-opacity:1;stroke-width:0;stroke-dasharray:none"
       id="path22488-6"
       cx="-20.984543"
       cy="22.351353"
       rx="4.0154519"
       ry="3.8020349"
       transform="scale(-1,1)" />
    <ellipse
       style="fill:#000000;fill-opacity:1;stroke-width:0;stroke-dasharray:none"
       id="path22512-6"
       cx="-20.984543"
       cy="21.971151"
       rx="2.007726"
       ry="1.5208162"
       transform="scale(-1,1)" />
    <path
       sodipodi:type="spiral"
       style="fill:none;fill-opacity:1;fill-rule:evenodd;stroke:url(#linearGradient22559-8);stroke-width:0.50033;stroke-linecap:round;stroke-dasharray:none"
       id="path22541-3"
       sodipodi:cx="40.726868"
       sodipodi:cy="4.0224066"
       sodipodi:expansion="0"
       sodipodi:revolution="0.31"
       sodipodi:radius="3.4715228"
       sodipodi:argument="-2.4632721"
       sodipodi:t0="0"
       d="m 38.023844,1.8440737 c 1.186609,-1.47242466 3.408932,-1.71129935 4.881357,-0.5246907 0.339845,0.2738768 0.62692,0.611964 0.842079,0.9917136"
       transform="matrix(-1.3044829,0.49473868,0.45431546,1.4205514,72.474411,-4.20633)" />
    <ellipse
       style="fill:#a80000;fill-opacity:1;stroke-width:0.548032;stroke-linecap:round;stroke-dasharray:none"
       id="path24981"
       cx="3.9708295"
       cy="3.0005152"
       rx="1.9708301"
       ry="2.3903408" />
    <ellipse
       style="fill:#a80000;fill-opacity:1;stroke-width:0.548032;stroke-linecap:round;stroke-dasharray:none"
       id="path24981-9"
       cx="-26.029099"
       cy="3.0005162"
       rx="1.9708315"
       ry="2.3903406"
       transform="scale(-1,1)" />
    <path
       style="fill:#000000;fill-opacity:0;stroke-width:0.128976;stroke-linecap:round;stroke-dasharray:none"
       d="m 36.4375,164.30256 c -0.928631,-0.075 -1.725924,-0.16819 -2.371688,-0.2773 -5.989285,-1.01203 -11.266464,-4.58995 -14.290575,-9.68899 -1.383819,-2.33329 -2.249124,-4.88201 -2.585565,-7.61565 -0.12685,-1.03068 -0.127701,-3.33672 -0.0016,-4.37874 0.197171,-1.62949 0.625635,-3.35178 1.193691,-4.79827 0.284232,-0.72376 1.241744,-2.66258 1.449325,-2.93466 l 0.107613,-0.14106 4.36244,0.0161 4.362439,0.0161 -0.294033,0.375 c -2.380042,3.03542 -3.334752,6.69027 -2.644822,10.125 1.038379,5.16944 5.717781,9.93628 12.934741,13.17644 2.587175,1.16155 5.850576,2.24119 8.8093,2.91442 l 1.03125,0.23465 -0.21875,0.13586 c -1.042576,0.64748 -3.214626,1.58358 -4.644749,2.00177 -2.286629,0.66865 -5.161629,1.00388 -7.199001,0.83942 z"
       id="path28688"
       transform="scale(0.26458333)" />
    <path
       style="fill:#000000;fill-opacity:0;stroke-width:0.128976;stroke-linecap:round;stroke-dasharray:none"
       d="m 36.21875,164.3073 c -0.120313,-0.0137 -0.528125,-0.0556 -0.90625,-0.0933 -2.541854,-0.25317 -5.410803,-1.13982 -7.705538,-2.38141 -0.946428,-0.51208 -2.364065,-1.45648 -3.231962,-2.15307 -0.889568,-0.71398 -2.29608,-2.11968 -2.99374,-2.99201 -4.32684,-5.41011 -5.505458,-12.5416 -3.119463,-18.875 0.27483,-0.72951 1.065824,-2.41483 1.329271,-2.83218 l 0.130779,-0.20718 0.576577,0.49345 c 1.310973,1.12199 3.121765,2.49406 4.723302,3.57893 0.669714,0.45366 0.941696,0.67196 0.917089,0.73609 -0.01924,0.0501 -0.107233,0.43198 -0.195539,0.84853 -0.217644,1.02665 -0.276522,2.85702 -0.125054,3.88766 0.820412,5.58242 5.584914,10.55967 13.413028,14.01195 2.471502,1.08996 5.589847,2.10471 8.459786,2.75294 1.224203,0.2765 1.227526,0.18733 -0.03163,0.84858 -2.216111,1.16379 -4.663491,1.92748 -7.240658,2.25941 -0.733603,0.0945 -3.487751,0.17478 -4,0.11662 z"
       id="path29473"
       transform="scale(0.26458333)" />
    <path
       style="fill:#000000;fill-opacity:0;stroke-width:0.128976;stroke-linecap:round;stroke-dasharray:none"
       d="m 36.21875,164.3073 c -0.120313,-0.0137 -0.528125,-0.0556 -0.90625,-0.0933 -2.541854,-0.25317 -5.410803,-1.13982 -7.705538,-2.38141 -0.946428,-0.51208 -2.364065,-1.45648 -3.231962,-2.15307 -0.889568,-0.71398 -2.29608,-2.11968 -2.99374,-2.99201 -4.32684,-5.41011 -5.505458,-12.5416 -3.119463,-18.875 0.27483,-0.72951 1.065824,-2.41483 1.329271,-2.83218 l 0.130779,-0.20718 0.576577,0.49345 c 1.310973,1.12199 3.121765,2.49406 4.723302,3.57893 0.669714,0.45366 0.941696,0.67196 0.917089,0.73609 -0.01924,0.0501 -0.107233,0.43198 -0.195539,0.84853 -0.217644,1.02665 -0.276522,2.85702 -0.125054,3.88766 0.820412,5.58242 5.584914,10.55967 13.413028,14.01195 2.471502,1.08996 5.589847,2.10471 8.459786,2.75294 1.224203,0.2765 1.227526,0.18733 -0.03163,0.84858 -2.216111,1.16379 -4.663491,1.92748 -7.240658,2.25941 -0.733603,0.0945 -3.487751,0.17478 -4,0.11662 z"
       id="path29475"
       transform="scale(0.26458333)" />
    <path
       style="fill:#000000;fill-opacity:0;stroke-width:0.128976;stroke-linecap:round;stroke-dasharray:none"
       d="m 36.21875,164.3073 c -0.120313,-0.0137 -0.528125,-0.0556 -0.90625,-0.0933 -2.541854,-0.25317 -5.410803,-1.13982 -7.705538,-2.38141 -0.946428,-0.51208 -2.364065,-1.45648 -3.231962,-2.15307 -0.889568,-0.71398 -2.29608,-2.11968 -2.99374,-2.99201 -4.32684,-5.41011 -5.505458,-12.5416 -3.119463,-18.875 0.27483,-0.72951 1.065824,-2.41483 1.329271,-2.83218 l 0.130779,-0.20718 0.576577,0.49345 c 1.310973,1.12199 3.121765,2.49406 4.723302,3.57893 0.669714,0.45366 0.941696,0.67196 0.917089,0.73609 -0.01924,0.0501 -0.107233,0.43198 -0.195539,0.84853 -0.217644,1.02665 -0.276522,2.85702 -0.125054,3.88766 0.820412,5.58242 5.584914,10.55967 13.413028,14.01195 2.471502,1.08996 5.589847,2.10471 8.459786,2.75294 1.224203,0.2765 1.227526,0.18733 -0.03163,0.84858 -2.216111,1.16379 -4.663491,1.92748 -7.240658,2.25941 -0.733603,0.0945 -3.487751,0.17478 -4,0.11662 z"
       id="path29477"
       transform="scale(0.26458333)" />
    <path
       style="fill:#000000;fill-opacity:0;stroke-width:0.128976;stroke-linecap:round;stroke-dasharray:none"
       d="m 36.081471,166.21835 c -5.762717,-0.42738 -10.989854,-2.84425 -14.899029,-6.88885 -3.231293,-3.34324 -5.221855,-7.46326 -5.88142,-12.17325 -0.159264,-1.13732 -0.158632,-4.14902 0.0011,-5.28125 0.410624,-2.91048 1.241451,-5.36914 2.655799,-7.85931 0.229388,-0.40387 0.439039,-0.73434 0.465891,-0.73438 0.02685,-3e-5 0.383253,0.21349 0.792001,0.4745 l 0.743178,0.47456 -0.277042,0.45633 c -0.433607,0.71421 -1.237595,2.42164 -1.551469,3.29485 -2.540172,7.06689 -0.759077,14.93209 4.595502,20.29344 3.31874,3.32293 7.469758,5.33563 12.343915,5.98519 0.597788,0.0797 1.255704,0.10729 2.555093,0.10729 2.360427,0 3.833401,-0.20009 5.954341,-0.80882 1.563654,-0.44879 3.533299,-1.29031 4.78521,-2.04445 l 0.36273,-0.2185 -0.488641,-0.10599 c -7.724924,-1.67556 -14.141367,-4.78064 -18.147394,-8.78201 -2.173256,-2.17073 -3.529803,-4.4064 -4.153489,-6.8452 -0.298286,-1.16638 -0.366201,-1.83435 -0.326005,-3.20632 0.05471,-1.86726 0.376001,-3.12049 1.26101,-4.91868 0.4798,-0.97487 1.027274,-1.8435 1.720988,-2.73054 0.4717,-0.60315 2.245455,-2.43764 2.329766,-2.40954 0.03144,0.0105 0.317135,0.31199 0.634878,0.67003 l 0.577717,0.65097 -0.755555,0.75389 c -4.859898,4.84921 -5.272997,10.48342 -1.136124,15.49546 3.635175,4.40421 10.493809,7.8844 18.974318,9.6279 1.166691,0.23986 1.283021,0.27546 1.301052,0.3982 0.01879,0.12791 0.02755,0.12971 0.171607,0.0353 0.138679,-0.0909 0.185608,-0.0909 0.542698,-4.4e-4 0.214991,0.0545 0.599182,0.1312 0.853759,0.17056 0.359845,0.0556 0.495634,0.10691 0.610096,0.23041 0.141315,0.15248 0.142808,0.16379 0.03714,0.28144 -0.182191,0.20283 -1.263022,1.05561 -1.906618,1.50433 -3.188187,2.22283 -6.727378,3.5486 -10.703479,4.00949 -1.013546,0.11749 -3.076273,0.16514 -4.043529,0.0934 z"
       id="path29479"
       transform="scale(0.26458333)" />
    <path
       style="fill:url(#linearGradient4246);fill-opacity:0;stroke-width:0.128976;stroke-linecap:round;stroke-dasharray:none"
       d="m 36.21875,164.3073 c -0.120313,-0.0137 -0.528125,-0.0556 -0.90625,-0.0933 -2.541854,-0.25317 -5.410803,-1.13982 -7.705538,-2.38141 -0.946428,-0.51208 -2.364065,-1.45648 -3.231962,-2.15307 -0.889568,-0.71398 -2.29608,-2.11968 -2.99374,-2.99201 -4.32684,-5.41011 -5.505458,-12.5416 -3.119463,-18.875 0.27483,-0.72951 1.065824,-2.41483 1.329271,-2.83218 l 0.130779,-0.20718 0.576577,0.49345 c 1.310973,1.12199 3.121765,2.49406 4.723302,3.57893 0.669714,0.45366 0.941696,0.67196 0.917089,0.73609 -0.01924,0.0501 -0.107233,0.43198 -0.195539,0.84853 -0.217644,1.02665 -0.276522,2.85702 -0.125054,3.88766 0.820412,5.58242 5.584914,10.55967 13.413028,14.01195 2.471502,1.08996 5.589847,2.10471 8.459786,2.75294 1.224203,0.2765 1.227526,0.18733 -0.03163,0.84858 -2.216111,1.16379 -4.663491,1.92748 -7.240658,2.25941 -0.733603,0.0945 -3.487751,0.17478 -4,0.11662 z"
       id="path29481"
       transform="scale(0.26458333)" />
    <path
       style="fill:url(#linearGradient4246);fill-opacity:0;stroke-width:0.128976;stroke-linecap:round;stroke-dasharray:none"
       d="m 36.21875,164.3073 c -0.120313,-0.0137 -0.528125,-0.0556 -0.90625,-0.0933 -2.541854,-0.25317 -5.410803,-1.13982 -7.705538,-2.38141 -0.946428,-0.51208 -2.364065,-1.45648 -3.231962,-2.15307 -0.889568,-0.71398 -2.29608,-2.11968 -2.99374,-2.99201 -4.32684,-5.41011 -5.505458,-12.5416 -3.119463,-18.875 0.27483,-0.72951 1.065824,-2.41483 1.329271,-2.83218 l 0.130779,-0.20718 0.576577,0.49345 c 1.310973,1.12199 3.121765,2.49406 4.723302,3.57893 0.669714,0.45366 0.941696,0.67196 0.917089,0.73609 -0.01924,0.0501 -0.107233,0.43198 -0.195539,0.84853 -0.217644,1.02665 -0.276522,2.85702 -0.125054,3.88766 0.820412,5.58242 5.584914,10.55967 13.413028,14.01195 2.471502,1.08996 5.589847,2.10471 8.459786,2.75294 1.224203,0.2765 1.227526,0.18733 -0.03163,0.84858 -2.216111,1.16379 -4.663491,1.92748 -7.240658,2.25941 -0.733603,0.0945 -3.487751,0.17478 -4,0.11662 z"
       id="path29483"
       transform="scale(0.26458333)" />
    <path
       style="fill:url(#linearGradient4246);fill-opacity:0;stroke-width:0.128976;stroke-linecap:round;stroke-dasharray:none"
       d="m 36.21875,164.3073 c -0.120313,-0.0137 -0.528125,-0.0556 -0.90625,-0.0933 -2.541854,-0.25317 -5.410803,-1.13982 -7.705538,-2.38141 -0.946428,-0.51208 -2.364065,-1.45648 -3.231962,-2.15307 -0.889568,-0.71398 -2.29608,-2.11968 -2.99374,-2.99201 -4.32684,-5.41011 -5.505458,-12.5416 -3.119463,-18.875 0.27483,-0.72951 1.065824,-2.41483 1.329271,-2.83218 l 0.130779,-0.20718 0.576577,0.49345 c 1.310973,1.12199 3.121765,2.49406 4.723302,3.57893 0.669714,0.45366 0.941696,0.67196 0.917089,0.73609 -0.01924,0.0501 -0.107233,0.43198 -0.195539,0.84853 -0.217644,1.02665 -0.276522,2.85702 -0.125054,3.88766 0.820412,5.58242 5.584914,10.55967 13.413028,14.01195 2.471502,1.08996 5.589847,2.10471 8.459786,2.75294 1.224203,0.2765 1.227526,0.18733 -0.03163,0.84858 -2.216111,1.16379 -4.663491,1.92748 -7.240658,2.25941 -0.733603,0.0945 -3.487751,0.17478 -4,0.11662 z"
       id="path29485"
       transform="scale(0.26458333)" />
    <path
       style="fill:url(#linearGradient4246);fill-opacity:0;stroke-width:0.128976;stroke-linecap:round;stroke-dasharray:none"
       d="m 36.081471,166.21835 c -5.762717,-0.42738 -10.989854,-2.84425 -14.899029,-6.88885 -3.231293,-3.34324 -5.221855,-7.46326 -5.88142,-12.17325 -0.159264,-1.13732 -0.158632,-4.14902 0.0011,-5.28125 0.410624,-2.91048 1.241451,-5.36914 2.655799,-7.85931 0.229388,-0.40387 0.439039,-0.73434 0.465891,-0.73438 0.02685,-3e-5 0.383253,0.21349 0.792001,0.4745 l 0.743178,0.47456 -0.277042,0.45633 c -0.433607,0.71421 -1.237595,2.42164 -1.551469,3.29485 -2.540172,7.06689 -0.759077,14.93209 4.595502,20.29344 3.31874,3.32293 7.469758,5.33563 12.343915,5.98519 0.597788,0.0797 1.255704,0.10729 2.555093,0.10729 2.360427,0 3.833401,-0.20009 5.954341,-0.80882 1.563654,-0.44879 3.533299,-1.29031 4.78521,-2.04445 l 0.36273,-0.2185 -0.488641,-0.10599 c -7.724924,-1.67556 -14.141367,-4.78064 -18.147394,-8.78201 -2.173256,-2.17073 -3.529803,-4.4064 -4.153489,-6.8452 -0.298286,-1.16638 -0.366201,-1.83435 -0.326005,-3.20632 0.05471,-1.86726 0.376001,-3.12049 1.26101,-4.91868 0.4798,-0.97487 1.027274,-1.8435 1.720988,-2.73054 0.4717,-0.60315 2.245455,-2.43764 2.329766,-2.40954 0.03144,0.0105 0.317135,0.31199 0.634878,0.67003 l 0.577717,0.65097 -0.755555,0.75389 c -4.859898,4.84921 -5.272997,10.48342 -1.136124,15.49546 3.635175,4.40421 10.493809,7.8844 18.974318,9.6279 1.166691,0.23986 1.283021,0.27546 1.301052,0.3982 0.01879,0.12791 0.02755,0.12971 0.171607,0.0353 0.138679,-0.0909 0.185608,-0.0909 0.542698,-4.4e-4 0.214991,0.0545 0.599182,0.1312 0.853759,0.17056 0.359845,0.0556 0.495634,0.10691 0.610096,0.23041 0.141315,0.15248 0.142808,0.16379 0.03714,0.28144 -0.182191,0.20283 -1.263022,1.05561 -1.906618,1.50433 -3.188187,2.22283 -6.727378,3.5486 -10.703479,4.00949 -1.013546,0.11749 -3.076273,0.16514 -4.043529,0.0934 z"
       id="path29487"
       transform="scale(0.26458333)" />
    <path
       style="fill:url(#linearGradient4246);fill-opacity:0;stroke-width:0.128976;stroke-linecap:round;stroke-dasharray:none"
       d="m 53.96875,148.46705 c -9.026977,-0.47947 -17.398533,-2.93556 -25.289912,-7.41968 l -0.946161,-0.53764 0.11727,-0.42318 c 0.508484,-1.83493 1.698357,-3.73856 3.474818,-5.55924 l 0.888082,-0.91018 -0.594611,-0.68357 c -0.327037,-0.37596 -0.635713,-0.69277 -0.685947,-0.70404 -0.05086,-0.0114 -0.459582,0.34864 -0.922359,0.8125 -1.854229,1.85859 -3.156674,3.85113 -3.849029,5.88841 l -0.16752,0.49294 -0.87169,-0.5925 c -1.020808,-0.69386 -1.773942,-1.23754 -2.809562,-2.02817 -0.896558,-0.68446 -2.49119,-2.00528 -2.520423,-2.08764 -0.01144,-0.0322 0.04099,-0.15855 0.116504,-0.28073 0.07551,-0.12219 0.127059,-0.22972 0.114544,-0.23896 -0.01252,-0.009 -0.369823,-0.23794 -0.794018,-0.50822 -0.686902,-0.43767 -0.785125,-0.48277 -0.897992,-0.41228 -0.11687,0.073 -0.239538,-0.0343 -1.5767,-1.37911 C 12.36004,127.47664 8.9745587,122.79206 6.1923631,117.28125 2.111071,109.19727 0.03120177,100.40757 0.03270102,91.25 0.03284172,90.390625 0.04991556,89.624219 0.07064287,89.546875 L 0.10832892,89.40625 H 9.9480406 19.787752 l 0.07,0.200811 c 0.13056,0.374525 0.783575,1.651407 1.135562,2.220435 0.716546,1.158382 1.838252,2.450947 2.912932,3.356631 3.083455,2.598573 6.961859,3.877544 11.080967,3.654139 2.160459,-0.117175 4.059802,-0.608059 6.012783,-1.553999 2.475043,-1.198805 4.481957,-2.94048 5.97371,-5.184208 0.436862,-0.657079 1.072944,-1.85166 1.276303,-2.396934 l 0.110719,-0.296875 h 8.323734 8.323734 l 0.2923,0.671875 c 0.160762,0.369531 0.476381,0.982365 0.701369,1.361853 2.583275,4.357216 7.197368,7.114336 12.373131,7.393481 2.843844,0.153378 5.483256,-0.37293 7.9375,-1.582767 3.218231,-1.586452 5.742475,-4.204605 7.096056,-7.360067 l 0.207781,-0.484375 h 9.863707 9.86371 l -6.3e-4,1.828125 c -6.2e-4,1.953031 -0.0667,3.535394 -0.22204,5.296875 -0.83389,9.45446 -4.09504,18.7516 -9.33992,26.62697 -2.21192,3.32128 -4.18692,5.73599 -7.078389,8.65428 -1.397913,1.41088 -1.556263,1.55197 -1.631856,1.45401 -0.07704,-0.0999 -0.14295,-0.0707 -0.827469,0.36599 -0.974175,0.62147 -0.931706,0.57308 -0.744625,0.8484 l 0.154475,0.22733 -0.9518,0.79209 c -1.185081,0.98622 -3.020313,2.36791 -4.304969,3.24108 -0.537987,0.36567 -0.995019,0.66485 -1.015625,0.66485 -0.02061,0 -0.03746,-0.0443 -0.03746,-0.0985 0,-0.18206 -0.566232,-1.55164 -0.912369,-2.20679 -0.436794,-0.82677 -1.022606,-1.71497 -1.665669,-2.52549 -0.592081,-0.74627 -2.168625,-2.35863 -2.300144,-2.35241 -0.04981,0.002 -0.362231,0.31877 -0.694268,0.70313 l -0.6037,0.69884 0.8867,0.90625 c 1.32375,1.35294 2.063518,2.35648 2.754618,3.73682 0.308113,0.6154 0.893625,2.17718 0.836494,2.23126 -0.08556,0.081 -1.688794,0.98087 -2.739162,1.53746 -6.866019,3.63831 -14.445263,5.78444 -22.5,6.3711 -1.236406,0.09 -5.174586,0.12624 -6.4375,0.0592 z"
       id="path29489"
       transform="scale(0.26458333)" />
    <path
       style="fill:url(#linearGradient29493);fill-opacity:1;stroke-width:0.128976;stroke-linecap:round;stroke-dasharray:none"
       d="m 36.21875,164.3073 c -0.120313,-0.0137 -0.528125,-0.0556 -0.90625,-0.0933 -2.541854,-0.25317 -5.410803,-1.13982 -7.705538,-2.38141 -0.946428,-0.51208 -2.364065,-1.45648 -3.231962,-2.15307 -0.889568,-0.71398 -2.29608,-2.11968 -2.99374,-2.99201 -4.32684,-5.41011 -5.505458,-12.5416 -3.119463,-18.875 0.27483,-0.72951 1.065824,-2.41483 1.329271,-2.83218 l 0.130779,-0.20718 0.576577,0.49345 c 1.310973,1.12199 3.121765,2.49406 4.723302,3.57893 0.669714,0.45366 0.941696,0.67196 0.917089,0.73609 -0.01924,0.0501 -0.107233,0.43198 -0.195539,0.84853 -0.217644,1.02665 -0.276522,2.85702 -0.125054,3.88766 0.820412,5.58242 5.584914,10.55967 13.413028,14.01195 2.471502,1.08996 5.589847,2.10471 8.459786,2.75294 1.224203,0.2765 1.227526,0.18733 -0.03163,0.84858 -2.216111,1.16379 -4.663491,1.92748 -7.240658,2.25941 -0.733603,0.0945 -3.487751,0.17478 -4,0.11662 z"
       id="path29491"
       transform="scale(0.26458333)" />
    <path
       style="fill:url(#linearGradient4246);fill-opacity:0;stroke-width:0.128976;stroke-linecap:round;stroke-dasharray:none"
       d="m 36.081471,166.21835 c -5.762717,-0.42738 -10.989854,-2.84425 -14.899029,-6.88885 -3.231293,-3.34324 -5.221855,-7.46326 -5.88142,-12.17325 -0.159264,-1.13732 -0.158632,-4.14902 0.0011,-5.28125 0.410624,-2.91048 1.241451,-5.36914 2.655799,-7.85931 0.229388,-0.40387 0.439039,-0.73434 0.465891,-0.73438 0.02685,-3e-5 0.383253,0.21349 0.792001,0.4745 l 0.743178,0.47456 -0.277042,0.45633 c -0.433607,0.71421 -1.237595,2.42164 -1.551469,3.29485 -2.540172,7.06689 -0.759077,14.93209 4.595502,20.29344 3.31874,3.32293 7.469758,5.33563 12.343915,5.98519 0.597788,0.0797 1.255704,0.10729 2.555093,0.10729 2.360427,0 3.833401,-0.20009 5.954341,-0.80882 1.563654,-0.44879 3.533299,-1.29031 4.78521,-2.04445 l 0.36273,-0.2185 -0.488641,-0.10599 c -7.724924,-1.67556 -14.141367,-4.78064 -18.147394,-8.78201 -2.173256,-2.17073 -3.529803,-4.4064 -4.153489,-6.8452 -0.298286,-1.16638 -0.366201,-1.83435 -0.326005,-3.20632 0.05471,-1.86726 0.376001,-3.12049 1.26101,-4.91868 0.4798,-0.97487 1.027274,-1.8435 1.720988,-2.73054 0.4717,-0.60315 2.245455,-2.43764 2.329766,-2.40954 0.03144,0.0105 0.317135,0.31199 0.634878,0.67003 l 0.577717,0.65097 -0.755555,0.75389 c -4.859898,4.84921 -5.272997,10.48342 -1.136124,15.49546 3.635175,4.40421 10.493809,7.8844 18.974318,9.6279 1.166691,0.23986 1.283021,0.27546 1.301052,0.3982 0.01879,0.12791 0.02755,0.12971 0.171607,0.0353 0.138679,-0.0909 0.185608,-0.0909 0.542698,-4.4e-4 0.214991,0.0545 0.599182,0.1312 0.853759,0.17056 0.359845,0.0556 0.495634,0.10691 0.610096,0.23041 0.141315,0.15248 0.142808,0.16379 0.03714,0.28144 -0.182191,0.20283 -1.263022,1.05561 -1.906618,1.50433 -3.188187,2.22283 -6.727378,3.5486 -10.703479,4.00949 -1.013546,0.11749 -3.076273,0.16514 -4.043529,0.0934 z"
       id="path29495"
       transform="scale(0.26458333)" />
    <path
       style="fill:url(#linearGradient4246);fill-opacity:0;stroke-width:0.128976;stroke-linecap:round;stroke-dasharray:none"
       d="m 73.96875,164.27878 c -2.5539,-0.24159 -4.934633,-0.87836 -7.21875,-1.93079 -0.660155,-0.30417 -1.84375,-0.95285 -1.84375,-1.01048 0,-0.022 0.175781,-0.0743 0.390625,-0.11624 0.751686,-0.14672 2.877647,-0.6991 3.973071,-1.03231 8.944448,-2.72078 15.235873,-7.2711 17.592316,-12.72378 0.686111,-1.58763 0.918863,-2.64392 0.963236,-4.37143 0.0351,-1.36637 -0.04014,-2.17296 -0.29229,-3.13336 -0.06646,-0.25314 -0.101121,-0.47763 -0.07702,-0.49887 0.0241,-0.0212 0.311002,-0.21603 0.637565,-0.43288 1.504535,-0.99909 3.336585,-2.37139 4.77444,-3.5763 l 0.805691,-0.67517 0.126291,0.20517 c 0.06946,0.11284 0.344569,0.65516 0.611355,1.20516 0.934442,1.92643 1.475607,3.73486 1.786128,5.96875 0.14972,1.07709 0.149897,3.58574 3.13e-4,4.70835 -0.736089,5.52496 -3.644484,10.33389 -8.229729,13.60756 -2.779767,1.98464 -6.071977,3.25582 -9.629942,3.7183 -0.911982,0.11854 -3.497627,0.17081 -4.369567,0.0883 z"
       id="path29497"
       transform="scale(0.26458333)" />
    <path
       style="fill:#a80000;fill-opacity:0.970443;stroke-width:0.0644882;stroke-linecap:round;stroke-dasharray:none"
       d="m 74.484375,164.32795 c -2.66021,-0.18013 -5.134134,-0.79032 -7.469924,-1.84246 -0.476231,-0.21452 -1.462925,-0.72149 -1.885592,-0.96883 l -0.339891,-0.1989 0.668016,-0.14779 c 7.206291,-1.59426 13.307456,-4.4681 17.293016,-8.14554 2.910335,-2.68535 4.608523,-5.68317 5.032454,-8.88381 0.07003,-0.52873 0.09469,-1.71469 0.04782,-2.29986 -0.04675,-0.58368 -0.183491,-1.4004 -0.326507,-1.95014 -0.06036,-0.23203 -0.0976,-0.42617 -0.08275,-0.43144 0.05481,-0.0194 1.533983,-1.02838 2.063357,-1.40745 1.209033,-0.86575 2.59778,-1.94743 3.671875,-2.85998 0.275,-0.23364 0.50839,-0.4251 0.518644,-0.42546 0.03195,-0.001 0.482167,0.83278 0.75885,1.40558 1.023929,2.11979 1.625734,4.30281 1.852196,6.71875 0.07342,0.7833 0.07372,2.50924 5.63e-4,3.27753 -0.350238,3.6781 -1.628463,7.0096 -3.813981,9.94055 -0.589964,0.79119 -1.021922,1.28907 -1.812426,2.08905 -0.797183,0.80674 -1.356314,1.29794 -2.213901,1.94494 -3.120259,2.35402 -6.826311,3.76977 -10.83682,4.13979 -0.632761,0.0584 -2.527279,0.0859 -3.125,0.0455 z"
       id="path29568"
       transform="scale(0.26458333)" />
  </g>
</svg>
